<svg version="1.1" xmlns="http://www.w3.org/2000/svg" viewBox="0 0 924.9758486332928 818.4789159621323" width="924.9758486332928" height="818.4789159621323">
  <!-- svg-source:excalidraw -->
  
  <defs>
    <style class="style-fonts">
      @font-face {
        font-family: "Virgil";
        src: url("https://excalidraw.com/Virgil.woff2");
      }
      @font-face {
        font-family: "Cascadia";
        src: url("https://excalidraw.com/Cascadia.woff2");
      }
    </style>
  </defs>
  <rect x="0" y="0" width="924.9758486332928" height="818.4789159621323" fill="#ffffff"></rect><g stroke-linecap="round" transform="translate(420.3686420232664 198.97875425295024) rotate(0 85.44252186968527 91.47375870754558)"><path d="M30.2 1.07 L148.49 -2.66 L158.38 4.06 L168.3 10.04 L168.92 30.81 L174.85 150.74 L167.01 162.8 L157.55 178.43 L142.21 186.33 L29.78 179.09 L20.06 182.75 L5.87 170.48 L-3.98 154.15 L-0.71 25.56 L4.26 5.34 L20.23 4.35 L35.09 -2.33" stroke="none" stroke-width="0" fill="#228be6"></path><path d="M32 0 M32 0 C69.93 -0.7, 111.76 -0.68, 138.89 0 M32 0 C55.77 0.76, 81.14 -0.39, 138.89 0 M138.89 0 C161.4 -0.75, 170.88 10.51, 170.89 32 M138.89 0 C160.28 -2.85, 171.91 13.66, 170.89 32 M170.89 32 C171.28 69, 167.1 99.66, 170.89 150.95 M170.89 32 C172.6 69.08, 173.33 106.1, 170.89 150.95 M170.89 150.95 C167.22 169.59, 163.83 182.34, 138.89 182.95 M170.89 150.95 C167.92 169.56, 156.57 181.56, 138.89 182.95 M138.89 182.95 C101.4 181.06, 72 186.25, 32 182.95 M138.89 182.95 C105.12 182.06, 68.03 182.2, 32 182.95 M32 182.95 C11.37 180.93, 0.24 168.74, 0 150.95 M32 182.95 C8.68 183.89, 4.34 174.41, 0 150.95 M0 150.95 C-5.56 109.13, -1.84 70.66, 0 32 M0 150.95 C0.77 108.81, 1.73 65.31, 0 32 M0 32 C-0.9 11.09, 13.43 -1.42, 32 0 M0 32 C1.93 13.96, 11.94 4.27, 32 0" stroke="#000000" stroke-width="4" fill="none"></path></g><g stroke-linecap="round" transform="translate(404.2853437889735 108.5102016850451) rotate(0 106.55185080219576 55.286337680384804)"><path d="M28.72 2.11 L182.31 -0.01 L201.87 5.81 L206.75 8.84 L211.49 25.13 L212.9 81.05 L207.07 98.94 L202.28 110.01 L188.85 108.36 L23.79 112.63 L12.6 108.05 L3.92 95.8 L3.63 88.2 L1.49 17.42 L4.25 9.14 L17.9 4.82 L25.31 3.18" stroke="none" stroke-width="0" fill="#228be6"></path><path d="M27.64 0 M27.64 0 C78.24 0.7, 128.4 -0.7, 185.46 0 M27.64 0 C60.81 1.24, 91.95 1.94, 185.46 0 M185.46 0 C203.14 -0.01, 212.95 9.27, 213.1 27.64 M185.46 0 C201.04 1.02, 216.1 8.21, 213.1 27.64 M213.1 27.64 C217.53 37.44, 215.12 50.91, 213.1 82.93 M213.1 27.64 C212.38 47.68, 211.75 62.53, 213.1 82.93 M213.1 82.93 C210.41 104.97, 203.28 108, 185.46 110.57 M213.1 82.93 C210.38 97.71, 202.5 111.83, 185.46 110.57 M185.46 110.57 C139.8 111.72, 100.73 109.55, 27.64 110.57 M185.46 110.57 C151.04 110.2, 117.66 112.23, 27.64 110.57 M27.64 110.57 C7.2 110.81, -3.54 99.63, 0 82.93 M27.64 110.57 C10.16 114.91, 2.13 102.54, 0 82.93 M0 82.93 C-3.92 62.28, -3.66 44.39, 0 27.64 M0 82.93 C1.02 68.68, 0.5 51.45, 0 27.64 M0 27.64 C0.43 11.98, 7.8 1.68, 27.64 0 M0 27.64 C3.29 10.49, 13.48 -3.76, 27.64 0" stroke="#000000" stroke-width="4" fill="none"></path></g><g transform="translate(468.618536726148 160.7809209465031) rotate(0 0.0000904685525711102 0.0000904685525711102)" stroke="none"><path fill="#000000" d="M 6.28,-6.28 Q 6.28,-6.28 7.11,-5.11 7.95,-3.94 8.37,-2.57 8.80,-1.19 8.76,0.23 8.72,1.67 8.22,3.02 7.73,4.37 6.83,5.49 5.93,6.61 4.72,7.38 3.50,8.15 2.11,8.50 0.72,8.85 -0.71,8.73 -2.14,8.61 -3.46,8.05 -4.78,7.48 -5.85,6.52 -6.92,5.56 -7.63,4.31 -8.33,3.06 -8.60,1.65 -8.87,0.23 -8.68,-1.18 -8.49,-2.60 -7.85,-3.89 -7.21,-5.18 -6.19,-6.19 -5.18,-7.21 -3.89,-7.85 -2.60,-8.49 -1.18,-8.68 0.24,-8.87 1.65,-8.60 3.06,-8.33 4.31,-7.62 5.56,-6.92 6.52,-5.85 7.48,-4.78 8.05,-3.46 8.62,-2.14 8.73,-0.70 8.85,0.72 8.50,2.11 8.15,3.51 7.38,4.72 6.61,5.93 5.49,6.83 4.36,7.73 3.02,8.22 1.67,8.72 0.23,8.76 -1.20,8.80 -2.57,8.37 -3.94,7.95 -5.11,7.11 -6.28,6.27 -6.28,6.28 -6.28,6.28 -6.94,5.43 -7.60,4.59 -8.04,3.61 -8.48,2.64 -8.67,1.58 -8.86,0.53 -8.80,-0.53 -8.73,-1.60 -8.41,-2.62 -8.09,-3.64 -7.54,-4.56 -6.99,-5.47 -6.23,-6.23 -5.47,-6.99 -4.56,-7.54 -3.64,-8.10 -2.62,-8.41 -1.60,-8.73 -0.53,-8.80 0.53,-8.86 1.58,-8.67 2.64,-8.48 3.61,-8.04 4.59,-7.60 5.43,-6.94 6.28,-6.28 6.28,-6.28 L 6.28,-6.28 Z"></path></g><g transform="translate(561.097501573337 158.77050866721584) rotate(0 0.0000904685525711102 0.0000904685525711102)" stroke="none"><path fill="#000000" d="M 6.28,-6.28 Q 6.28,-6.28 7.11,-5.11 7.95,-3.94 8.37,-2.57 8.80,-1.19 8.76,0.23 8.72,1.67 8.22,3.02 7.73,4.37 6.83,5.49 5.93,6.61 4.72,7.38 3.50,8.15 2.11,8.50 0.72,8.85 -0.71,8.73 -2.14,8.61 -3.46,8.05 -4.78,7.48 -5.85,6.52 -6.92,5.56 -7.63,4.31 -8.33,3.06 -8.60,1.65 -8.87,0.23 -8.68,-1.18 -8.49,-2.60 -7.85,-3.89 -7.21,-5.18 -6.19,-6.19 -5.18,-7.21 -3.89,-7.85 -2.60,-8.49 -1.18,-8.68 0.24,-8.87 1.65,-8.60 3.06,-8.33 4.31,-7.62 5.56,-6.92 6.52,-5.85 7.48,-4.78 8.05,-3.46 8.62,-2.14 8.73,-0.70 8.85,0.72 8.50,2.11 8.15,3.51 7.38,4.72 6.61,5.93 5.49,6.83 4.36,7.73 3.02,8.22 1.67,8.72 0.23,8.76 -1.20,8.80 -2.57,8.37 -3.94,7.95 -5.11,7.11 -6.28,6.27 -6.28,6.28 -6.28,6.28 -6.94,5.43 -7.60,4.59 -8.04,3.61 -8.48,2.64 -8.67,1.58 -8.86,0.53 -8.80,-0.53 -8.73,-1.60 -8.41,-2.62 -8.09,-3.64 -7.54,-4.56 -6.99,-5.47 -6.23,-6.23 -5.47,-6.99 -4.56,-7.54 -3.64,-8.10 -2.62,-8.41 -1.60,-8.73 -0.53,-8.80 0.53,-8.86 1.58,-8.67 2.64,-8.48 3.61,-8.04 4.59,-7.60 5.43,-6.94 6.28,-6.28 6.28,-6.28 L 6.28,-6.28 Z"></path></g><g transform="translate(514.8580191497417 106.49978940576511) rotate(0 1.0052061396434055 -31.16139032894398)" stroke="none"><path fill="#000000" d="M -4.19,0 Q -4.19,0 -4.24,-2.80 -4.29,-5.60 -5.32,-7.50 -6.35,-9.40 -6.44,-13.20 -6.53,-17.00 -6.44,-20.79 -6.35,-24.58 -5.62,-28.79 -4.89,-33.01 -4.66,-36.25 -4.44,-39.50 -4.26,-43.19 -4.09,-46.89 -2.77,-50.79 -1.45,-54.70 -0.94,-58.11 -0.43,-61.52 -0.20,-62.16 0.03,-62.80 0.47,-63.33 0.90,-63.86 1.47,-64.23 2.05,-64.59 2.72,-64.75 3.38,-64.91 4.06,-64.85 4.74,-64.79 5.37,-64.52 5.99,-64.24 6.50,-63.79 7.00,-63.33 7.33,-62.73 7.67,-62.13 7.79,-61.46 7.92,-60.79 7.82,-60.11 7.72,-59.44 7.42,-58.83 7.11,-58.22 6.62,-57.74 6.14,-57.26 5.52,-56.96 4.91,-56.66 4.23,-56.57 3.56,-56.48 2.89,-56.62 2.22,-56.75 1.62,-57.09 1.03,-57.43 0.58,-57.94 0.13,-58.45 -0.13,-59.08 -0.40,-59.71 -0.45,-60.39 -0.50,-61.07 -0.33,-61.73 -0.16,-62.39 0.20,-62.97 0.57,-63.54 1.11,-63.97 1.64,-64.39 2.28,-64.62 2.93,-64.85 3.61,-64.87 4.29,-64.88 4.94,-64.68 5.59,-64.47 6.15,-64.07 6.70,-63.67 7.09,-63.11 7.49,-62.55 7.69,-61.90 7.88,-61.25 7.86,-60.56 7.84,-59.88 7.84,-59.88 7.84,-59.88 6.89,-55.97 5.95,-52.05 4.87,-49.30 3.79,-46.55 3.76,-42.74 3.74,-38.92 3.49,-35.38 3.23,-31.84 2.85,-28.26 2.46,-24.67 2.64,-20.98 2.82,-17.29 2.91,-13.73 3.01,-10.17 3.65,-8.06 4.29,-5.95 4.24,-2.97 4.19,0 4.13,0.50 4.07,1.00 3.89,1.47 3.71,1.94 3.42,2.36 3.13,2.78 2.76,3.11 2.38,3.45 1.93,3.68 1.48,3.92 0.99,4.04 0.50,4.16 -0.00,4.16 -0.50,4.16 -0.99,4.04 -1.48,3.92 -1.93,3.68 -2.38,3.45 -2.76,3.11 -3.14,2.78 -3.42,2.36 -3.71,1.94 -3.89,1.47 -4.07,1.00 -4.13,0.50 -4.19,-0.00 -4.19,-0.00 L -4.19,0 Z"></path></g><g stroke-linecap="round" transform="translate(506.8163700325954 10) rotate(0 20.104122792867088 12.062473675719957)"><path d="M18.88 -1.07 C22.43 -1.71, 25.15 -1.05, 28.84 0.46 C32.53 1.96, 39.56 5.49, 41 7.97 C42.44 10.45, 39.65 12.99, 37.49 15.34 C35.34 17.69, 31.53 20.72, 28.05 22.08 C24.56 23.44, 20.6 24.11, 16.57 23.48 C12.54 22.85, 6.75 20, 3.87 18.29 C0.99 16.59, -1.21 15.55, -0.69 13.26 C-0.17 10.96, 2.01 6.4, 6.99 4.51 C11.97 2.62, 23.73 1.38, 29.2 1.93 C34.67 2.48, 40 7.78, 39.83 7.82 M20.96 -1.11 C25.38 -0.39, 32.69 4.82, 36.13 7.14 C39.57 9.47, 41.35 10.35, 41.6 12.84 C41.85 15.33, 41.11 20.64, 37.62 22.11 C34.13 23.57, 25.29 21.92, 20.68 21.63 C16.06 21.35, 12.86 21.4, 9.93 20.39 C6.99 19.39, 4.58 17.6, 3.05 15.6 C1.52 13.6, -0.62 10.41, 0.76 8.4 C2.14 6.38, 7.45 5, 11.34 3.52 C15.23 2.04, 22.03 -0.32, 24.11 -0.49 C26.2 -0.66, 24.18 1.97, 23.86 2.49" stroke="none" stroke-width="0" fill="#228be6"></path><path d="M13.29 -0.55 C16.73 -1.4, 23.15 -0.52, 27.55 0.95 C31.95 2.42, 37.84 6.3, 39.68 8.28 C41.52 10.27, 39.66 10.46, 38.58 12.85 C37.51 15.24, 36.37 20.72, 33.23 22.6 C30.08 24.48, 24.53 24.14, 19.73 24.12 C14.93 24.1, 7.77 24.16, 4.4 22.48 C1.04 20.8, 0.05 17.11, -0.46 14.06 C-0.96 11.01, -2.03 6.3, 1.37 4.16 C4.78 2.01, 16.04 2.02, 19.99 1.2 C23.94 0.38, 24.97 -0.81, 25.07 -0.74 M29.49 2.12 C33.1 2.72, 35.46 3.15, 37.05 5.32 C38.64 7.49, 40.02 12.29, 39.03 15.15 C38.04 18.01, 34.98 20.87, 31.11 22.47 C27.24 24.07, 20.34 25.26, 15.79 24.78 C11.25 24.3, 6.51 21.77, 3.86 19.61 C1.21 17.46, 0.01 14.31, -0.11 11.84 C-0.23 9.37, -0.06 6.84, 3.12 4.78 C6.31 2.72, 14.9 -0.24, 18.99 -0.52 C23.08 -0.79, 25.44 2.22, 27.66 3.12 C29.88 4.02, 32.21 4.76, 32.32 4.9" stroke="#000000" stroke-width="2" fill="none"></path></g><g stroke-linecap="round" transform="translate(736.7459136818418 604.2753921640306) rotate(0 67.31946814082949 69.21579118704994)"><path d="M19.96 20 C19.96 20, 19.96 20, 19.96 20 M19.96 20 C19.96 20, 19.96 20, 19.96 20 M3.17 63.7 C18.77 45.75, 34.38 27.79, 54.99 4.08 M3.17 63.7 C22.2 41.8, 41.24 19.9, 54.99 4.08 M4.09 87.03 C25.22 62.72, 46.34 38.42, 77.57 2.5 M4.09 87.03 C19.57 69.21, 35.06 51.4, 77.57 2.5 M10.91 103.56 C39.96 70.16, 69 36.75, 94.23 7.72 M10.91 103.56 C27.73 84.22, 44.55 64.87, 94.23 7.72 M20.37 117.08 C55.55 76.61, 90.73 36.14, 108.93 15.19 M20.37 117.08 C44.13 89.74, 67.89 62.4, 108.93 15.19 M31.78 128.33 C61.42 94.24, 91.05 60.16, 120.35 26.45 M31.78 128.33 C62.63 92.84, 93.48 57.35, 120.35 26.45 M46.48 135.81 C77.71 99.89, 108.93 63.97, 129.15 40.72 M46.48 135.81 C64.04 115.61, 81.6 95.42, 129.15 40.72 M63.15 141.02 C84.32 116.67, 105.49 92.32, 136.63 56.5 M63.15 141.02 C91.46 108.46, 119.76 75.9, 136.63 56.5 M89.66 134.92 C102.63 120, 115.59 105.09, 132.96 85.11 M89.66 134.92 C105.58 116.61, 121.49 98.3, 132.96 85.11" stroke="#82c91e" stroke-width="2" fill="none"></path><path d="M134.64 69.22 C134.64 71.8, 134.5 74.4, 134.22 76.97 C133.93 79.53, 133.51 82.1, 132.95 84.62 C132.39 87.14, 131.69 89.64, 130.86 92.08 C130.03 94.51, 129.06 96.92, 127.97 99.25 C126.88 101.57, 125.66 103.85, 124.32 106.04 C122.98 108.23, 121.52 110.35, 119.95 112.37 C118.39 114.39, 116.7 116.33, 114.92 118.16 C113.14 119.99, 111.26 121.72, 109.29 123.33 C107.33 124.94, 105.26 126.45, 103.14 127.82 C101.01 129.2, 98.79 130.46, 96.53 131.58 C94.26 132.7, 91.93 133.69, 89.55 134.55 C87.18 135.4, 84.75 136.12, 82.3 136.7 C79.85 137.27, 77.35 137.71, 74.86 138 C72.36 138.29, 69.83 138.43, 67.32 138.43 C64.81 138.43, 62.28 138.29, 59.78 138 C57.29 137.71, 54.79 137.27, 52.34 136.7 C49.89 136.12, 47.46 135.4, 45.09 134.55 C42.71 133.69, 40.37 132.7, 38.11 131.58 C35.85 130.46, 33.63 129.2, 31.5 127.82 C29.38 126.45, 27.31 124.94, 25.35 123.33 C23.38 121.72, 21.49 119.99, 19.72 118.16 C17.94 116.33, 16.25 114.39, 14.69 112.37 C13.12 110.35, 11.66 108.23, 10.32 106.04 C8.98 103.85, 7.76 101.57, 6.67 99.25 C5.58 96.92, 4.61 94.51, 3.78 92.08 C2.95 89.64, 2.25 87.14, 1.69 84.62 C1.13 82.1, 0.7 79.53, 0.42 76.97 C0.14 74.4, 0 71.8, 0 69.22 C0 66.63, 0.14 64.03, 0.42 61.47 C0.7 58.9, 1.13 56.33, 1.69 53.81 C2.25 51.3, 2.95 48.79, 3.78 46.36 C4.61 43.92, 5.58 41.51, 6.67 39.18 C7.76 36.86, 8.98 34.58, 10.32 32.39 C11.66 30.2, 13.12 28.08, 14.69 26.06 C16.25 24.04, 17.94 22.1, 19.72 20.27 C21.49 18.45, 23.38 16.71, 25.35 15.1 C27.31 13.49, 29.38 11.98, 31.5 10.61 C33.63 9.23, 35.85 7.98, 38.11 6.85 C40.37 5.73, 42.71 4.74, 45.09 3.88 C47.46 3.03, 49.89 2.31, 52.34 1.74 C54.79 1.16, 57.29 0.72, 59.78 0.44 C62.28 0.15, 64.81 0, 67.32 0 C69.83 0, 72.36 0.15, 74.86 0.44 C77.35 0.72, 79.85 1.16, 82.3 1.74 C84.75 2.31, 87.18 3.03, 89.55 3.88 C91.93 4.74, 94.26 5.73, 96.53 6.85 C98.79 7.98, 101.01 9.23, 103.14 10.61 C105.26 11.98, 107.33 13.49, 109.29 15.1 C111.26 16.71, 113.14 18.45, 114.92 20.27 C116.7 22.1, 118.39 24.04, 119.95 26.06 C121.52 28.08, 122.98 30.2, 124.32 32.39 C125.66 34.58, 126.88 36.86, 127.97 39.18 C129.06 41.51, 130.03 43.92, 130.86 46.36 C131.69 48.79, 132.39 51.3, 132.95 53.81 C133.51 56.33, 133.93 58.9, 134.22 61.47 C134.5 64.03, 134.57 67.92, 134.64 69.22 C134.71 70.51, 134.71 67.92, 134.64 69.22" stroke="#000000" stroke-width="4" fill="none"></path></g><g stroke-linecap="round" transform="translate(10 619.6471186988674) rotate(0 259.16899215744775 58.14422173615185)"><path d="M13.73 41.09 C13.73 41.09, 13.73 41.09, 13.73 41.09 M13.73 41.09 C13.73 41.09, 13.73 41.09, 13.73 41.09 M9.74 68.24 C23.05 59.34, 28.34 49.36, 51 23 M14.73 67.46 C23.36 51.79, 38.65 38.8, 49.95 27.66 M17.69 77.9 C35.43 61.7, 53.29 43.27, 76.34 21.96 M22.49 79.17 C33.1 64.98, 46.7 53.08, 72.22 21.74 M34.6 90.44 C58.76 64.56, 75.78 39.04, 102.38 13.86 M36.21 89.2 C52.72 72.15, 69.85 48.68, 97.42 16.55 M50.62 96.83 C75.98 72.71, 95.79 43.26, 120.52 11.4 M48.57 98.45 C65.59 79.56, 82.74 62.32, 124.3 14.89 M63.29 99.45 C87.94 73.93, 118.76 43.22, 142.81 8.44 M66.92 102.2 C90.1 74.65, 110.05 48.32, 146.76 11.46 M89.22 100.41 C103.11 82.3, 114.35 68, 165.69 15.65 M88.66 101.67 C111.93 78.66, 134.96 50.6, 163.19 13.82 M105.67 109.81 C131.55 78.63, 148.18 55.11, 183.78 9.47 M104.48 105.71 C128.26 83.34, 148.08 56.22, 186.06 10.71 M123.96 109.14 C147.19 89.5, 164.75 67.12, 207.29 12.98 M123.45 109.35 C156.31 70.6, 184.12 35.8, 208.92 10.18 M141.71 113.66 C173.68 76.94, 207.28 39.54, 234.51 6.35 M143.03 109.63 C171.49 79.08, 195.58 50.04, 234.62 5.37 M162.49 111.52 C186.51 88.71, 204.92 70.58, 256.97 2.07 M164.29 111.98 C185.34 85.23, 208.02 61.13, 258.16 7.06 M184.58 111.9 C218.63 72.6, 254.97 36.55, 280.65 2.72 M186.45 111.67 C212.48 80.94, 240.06 53.1, 279.6 4.75 M206.56 113.86 C230.98 86.79, 257.41 59.1, 301.06 1.9 M204.09 113.95 C239.82 73.18, 275.56 33.01, 304.78 0.88 M218.26 122.28 C241.51 92.52, 266.9 70.81, 320.93 5.67 M219.84 119.38 C254.65 75.68, 291.7 37.25, 322.73 3.65 M237.33 122.33 C280.29 72.08, 315.5 31.96, 338.01 7.29 M240.61 121.51 C265.05 94.61, 288.4 63.55, 343.19 6.96 M264.54 118.04 C284.33 93.08, 307.7 67.72, 359.61 5.44 M262.6 122.85 C292.41 88.27, 319.16 55.08, 362.77 8.04 M282.4 121.56 C318.92 81.46, 348.8 41.35, 378.08 10.32 M281.57 123.39 C310.63 90.45, 337.52 56.87, 378.14 10.85 M298.11 124.56 C318.06 105.52, 337.09 77.31, 398.18 12.74 M301.51 125.35 C337.89 84.78, 375.11 40.45, 397.12 14.44 M321.59 124.81 C356.61 84.21, 396.66 43.82, 418.23 19.34 M324.35 123.01 C356.44 84.72, 390.94 48.07, 417.48 17.47 M346.75 122.43 C371.85 98.27, 385.58 70.06, 435.41 19.36 M344.89 120.37 C372.46 91.94, 396.3 68.51, 435.96 16.39 M373.99 116.13 C387.86 101.11, 406.72 74.9, 454.21 24.1 M369.06 118.6 C399.81 82.24, 427.66 47.79, 454.38 22.13 M391.9 112.67 C421.45 85.01, 446.78 53.53, 472.36 28.48 M393.21 114.88 C413.36 88.37, 437.15 65.21, 473.25 24.95 M424 101.12 C445.58 84.55, 463.48 58.75, 489.21 34.43 M426.62 103.96 C442.94 82.3, 461.89 61.01, 485.87 31.24 M454.04 97.23 C461.3 86.44, 472.72 68.27, 501.25 37.03 M450.43 95.81 C466.88 79.31, 483.15 65.1, 501.52 40.89 M473.66 89.04 C490.34 78.63, 503.11 64.58, 518.26 45.88 M477.03 92.59 C484.8 83.04, 494.1 72.56, 519.32 46.01" stroke="#82c91e" stroke-width="2" fill="none"></path><path d="M229.52 0.53 C251.75 -0.89, 277.61 -1.4, 301.26 -0.22 C324.92 0.97, 349.09 5.14, 371.42 7.62 C393.76 10.11, 416.9 11.29, 435.25 14.71 C453.6 18.14, 468.85 23.57, 481.53 28.17 C494.21 32.76, 505.16 37.09, 511.33 42.29 C517.51 47.49, 519.7 53.67, 518.58 59.35 C517.45 65.04, 511.95 71.29, 504.59 76.4 C497.23 81.5, 488.01 85.55, 474.44 90 C460.87 94.45, 442.26 99.8, 423.18 103.08 C404.1 106.37, 382.16 107.25, 359.96 109.7 C337.77 112.16, 314.25 117.1, 290 117.82 C265.75 118.54, 238.74 115.28, 214.47 114.02 C190.2 112.76, 166.06 112.51, 144.38 110.26 C122.7 108.02, 102.02 104.33, 84.39 100.54 C66.77 96.76, 50.93 92.42, 38.64 87.55 C26.35 82.67, 16.87 76.6, 10.68 71.3 C4.49 65.99, 1 60.73, 1.48 55.73 C1.95 50.73, 6.26 46.67, 13.54 41.31 C20.81 35.95, 31.6 28.17, 45.14 23.58 C58.68 18.99, 76.37 16.8, 94.78 13.77 C113.19 10.73, 127.68 7.94, 155.61 5.37 C183.55 2.8, 238.83 -0.88, 262.38 -1.66 C285.94 -2.44, 296.72 -0.3, 296.92 0.71 M457.89 20.98 C476.73 24.19, 486.35 29.33, 495.96 34.4 C505.56 39.48, 512.11 46.29, 515.55 51.43 C518.99 56.57, 519.91 60.01, 516.6 65.24 C513.3 70.47, 505.79 77.76, 495.73 82.79 C485.67 87.83, 472.68 91.5, 456.24 95.45 C439.8 99.4, 417.37 103.46, 397.09 106.52 C376.81 109.58, 357.25 111.7, 334.58 113.83 C311.91 115.95, 286.08 119.68, 261.07 119.26 C236.07 118.83, 208.54 113.75, 184.56 111.26 C160.58 108.78, 137.82 106.64, 117.22 104.35 C96.62 102.07, 76.16 100.97, 60.97 97.54 C45.78 94.12, 35.44 88.65, 26.07 83.78 C16.7 78.92, 8.76 74.27, 4.76 68.34 C0.75 62.42, -0.76 53.53, 2.04 48.21 C4.85 42.89, 11.81 41.56, 21.6 36.44 C31.39 31.32, 44.25 22.3, 60.78 17.51 C77.32 12.73, 100.27 9.88, 120.81 7.72 C141.36 5.55, 160.78 5.97, 184.05 4.5 C207.32 3.03, 235.29 -0.85, 260.42 -1.11 C285.55 -1.38, 311.29 1.38, 334.85 2.9 C358.41 4.42, 381.81 5.39, 401.8 8.01 C421.79 10.62, 446.25 16.37, 454.78 18.6 C463.31 20.83, 455.86 20.7, 452.97 21.38" stroke="#000000" stroke-width="4" fill="none"></path></g><g stroke-linecap="round"><g transform="translate(613.7165451267776 410.3003130706984) rotate(0 53.46183543433597 84.01145568252832)"><path d="M0 0 C17.82 28, 89.1 140.02, 106.92 168.02 M0 0 C17.82 28, 89.1 140.02, 106.92 168.02" stroke="#000000" stroke-width="4" fill="none"></path></g><g transform="translate(613.7165451267776 410.3003130706984) rotate(0 53.46183543433597 84.01145568252832)"><path d="M83.13 149.75 C90.42 155.35, 97.71 160.95, 106.92 168.02 M83.13 149.75 C88.09 153.56, 93.05 157.36, 106.92 168.02" stroke="#000000" stroke-width="4" fill="none"></path></g><g transform="translate(613.7165451267776 410.3003130706984) rotate(0 53.46183543433597 84.01145568252832)"><path d="M100.45 138.73 C102.43 147.7, 104.41 156.68, 106.92 168.02 M100.45 138.73 C101.8 144.83, 103.15 150.94, 106.92 168.02" stroke="#000000" stroke-width="4" fill="none"></path></g></g><mask></mask><g stroke-linecap="round"><g transform="translate(405.4377391991625 420.4113347214425) rotate(0 -54.0452068172857 87.23086012614567)"><path d="M0 0 C-18.02 29.08, -90.08 145.38, -108.09 174.46 M0 0 C-18.02 29.08, -90.08 145.38, -108.09 174.46" stroke="#000000" stroke-width="4" fill="none"></path></g><g transform="translate(405.4377391991625 420.4113347214425) rotate(0 -54.0452068172857 87.23086012614567)"><path d="M-101.97 145.09 C-103.5 152.47, -105.04 159.85, -108.09 174.46 M-101.97 145.09 C-103.38 151.86, -104.79 158.62, -108.09 174.46" stroke="#000000" stroke-width="4" fill="none"></path></g><g transform="translate(405.4377391991625 420.4113347214425) rotate(0 -54.0452068172857 87.23086012614567)"><path d="M-84.52 155.9 C-90.44 160.57, -96.37 165.23, -108.09 174.46 M-84.52 155.9 C-89.95 160.18, -95.38 164.45, -108.09 174.46" stroke="#000000" stroke-width="4" fill="none"></path></g></g><mask></mask><g transform="translate(221.49440371576907 455.6120569693958) rotate(0 30.5 22.5)"><text x="0" y="32" font-family="Virgil, Segoe UI Emoji" font-size="36px" fill="#000000" text-anchor="start" style="white-space: pre;" direction="ltr">0.0</text></g><g transform="translate(701.2641344095684 436.6488265071912) rotate(0 23 22.5)"><text x="0" y="32" font-family="Virgil, Segoe UI Emoji" font-size="36px" fill="#000000" text-anchor="start" style="white-space: pre;" direction="ltr">1.0</text></g><g transform="translate(128.098661437077 765.4789159621323) rotate(0 127.5 21.5)"><text x="0" y="35" font-family="Cascadia, Segoe UI Emoji" font-size="36px" fill="#000000" text-anchor="start" style="white-space: pre;" direction="ltr">reward = +10</text></g><g transform="translate(680.9758486332928 755.7930548467411) rotate(0 117 21.5)"><text x="0" y="35" font-family="Cascadia, Segoe UI Emoji" font-size="36px" fill="#000000" text-anchor="start" style="white-space: pre;" direction="ltr">reward = +1</text></g></svg>