<svg version="1.1" xmlns="http://www.w3.org/2000/svg" viewBox="0 0 1228.8893992895448 690.4787134455164" width="1228.8893992895448" height="690.4787134455164">
  <!-- svg-source:excalidraw -->
  
  <defs>
    <style class="style-fonts">
      @font-face {
        font-family: "Virgil";
        src: url("https://excalidraw.com/Virgil.woff2");
      }
      @font-face {
        font-family: "Cascadia";
        src: url("https://excalidraw.com/Cascadia.woff2");
      }
    </style>
  </defs>
  <rect x="0" y="0" width="1228.8893992895448" height="690.4787134455164" fill="#ffffff"></rect><g transform="translate(715.0357478037104 126.23969681109611) rotate(0 -11.546646179883624 258.2249963864906)" stroke="none"><path fill="#000000" d="M 6.06,1.51 Q 6.06,1.51 3.51,11.13 0.97,20.76 -1.93,34.38 -4.84,48.00 -7.28,66.89 -9.73,85.79 -10.79,109.98 -11.85,134.17 -12.32,158.37 -12.79,182.56 -13.00,202.51 -13.22,222.45 -13.32,239.38 -13.41,256.30 -13.46,271.34 -13.51,286.38 -13.53,303.03 -13.56,319.68 -13.57,335.21 -13.59,350.73 -13.60,362.77 -13.60,374.80 -14.22,384.30 -14.83,393.81 -14.89,401.33 -14.95,408.84 -15.50,416.49 -16.06,424.13 -16.10,430.77 -16.15,437.42 -15.91,442.66 -15.67,447.90 -15.07,453.99 -14.48,460.08 -14.00,464.60 -13.53,469.12 -13.13,474.23 -12.72,479.35 -12.32,484.00 -11.92,488.66 -11.87,493.03 -11.82,497.39 -11.61,503.83 -11.40,510.26 -11.30,513.35 -11.21,516.45 -11.52,518.34 -11.83,520.24 -12.73,521.94 -13.63,523.63 -15.03,524.95 -16.42,526.28 -18.17,527.08 -19.91,527.89 -21.82,528.10 -23.73,528.30 -25.61,527.89 -27.49,527.48 -29.13,526.49 -30.78,525.50 -32.02,524.03 -33.27,522.57 -33.98,520.78 -34.69,519.00 -34.79,517.08 -34.90,515.16 -34.38,513.31 -33.87,511.46 -32.79,509.87 -31.71,508.28 -30.18,507.11 -28.65,505.95 -26.83,505.34 -25.01,504.72 -23.09,504.72 -21.16,504.72 -19.34,505.34 -17.52,505.95 -15.99,507.12 -14.46,508.28 -13.39,509.87 -12.31,511.46 -11.79,513.31 -11.28,515.16 -11.39,517.08 -11.49,519.00 -12.20,520.79 -12.91,522.57 -14.16,524.03 -15.40,525.50 -17.05,526.49 -18.69,527.48 -20.57,527.89 -22.45,528.30 -24.36,528.10 -26.27,527.89 -28.01,527.08 -29.76,526.27 -31.15,524.95 -32.55,523.63 -33.44,521.93 -34.34,520.23 -34.65,518.34 -34.97,516.44 -34.97,516.44 -34.97,516.44 -34.87,513.35 -34.78,510.26 -34.57,503.82 -34.36,497.39 -34.31,493.03 -34.26,488.66 -33.86,484.00 -33.46,479.34 -33.04,474.21 -32.63,469.08 -32.13,464.50 -31.63,459.93 -30.88,453.74 -30.13,447.55 -29.63,442.20 -29.13,436.84 -28.57,429.91 -28.01,422.98 -27.14,415.72 -26.27,408.46 -25.82,400.80 -25.36,393.13 -24.76,383.96 -24.17,374.79 -24.17,362.76 -24.17,350.73 -24.18,335.20 -24.18,319.67 -24.17,303.01 -24.17,286.35 -24.15,271.30 -24.13,256.25 -24.07,239.30 -24.01,222.35 -23.86,202.36 -23.70,182.37 -23.30,158.04 -22.90,133.71 -21.91,109.04 -20.91,84.38 -18.54,65.03 -16.16,45.67 -13.39,31.76 -10.62,17.86 -8.34,8.17 -6.06,-1.51 -5.79,-2.21 -5.52,-2.92 -5.09,-3.54 -4.66,-4.15 -4.09,-4.65 -3.53,-5.15 -2.86,-5.50 -2.19,-5.85 -1.46,-6.02 -0.73,-6.20 0.02,-6.20 0.77,-6.20 1.50,-6.01 2.23,-5.83 2.90,-5.48 3.56,-5.13 4.12,-4.62 4.69,-4.12 5.11,-3.50 5.54,-2.88 5.80,-2.17 6.07,-1.47 6.16,-0.72 6.24,0.02 6.15,0.76 6.06,1.51 6.06,1.51 L 6.06,1.51 Z"></path></g><g transform="translate(966.9625735466273 136.73664788371934) rotate(0 11.546646179883965 271.87103278089853)" stroke="none"><path fill="#000000" d="M 6.24,0 Q 6.24,0 6.11,12.07 5.97,24.14 5.27,42.04 4.56,59.94 4.24,76.51 3.91,93.08 3.75,112.19 3.59,131.29 3.50,149.68 3.42,168.06 3.97,186.65 4.53,205.24 5.36,222.19 6.19,239.13 7.73,254.06 9.27,268.98 9.94,281.56 10.61,294.13 11.48,306.00 12.36,317.87 14.50,329.29 16.65,340.71 18.21,353.71 19.76,366.70 21.01,377.59 22.27,388.49 22.87,396.86 23.47,405.24 23.72,413.67 23.97,422.10 25.36,429.47 26.75,436.85 27.74,442.72 28.73,448.59 29.19,455.43 29.65,462.28 30.53,468.45 31.40,474.63 31.97,480.58 32.53,486.53 32.89,492.11 33.25,497.68 33.51,503.07 33.76,508.46 34.01,513.17 34.26,517.87 34.47,522.29 34.69,526.71 35.10,533.17 35.52,539.63 35.69,541.68 35.86,543.73 35.58,545.43 35.30,547.14 34.49,548.66 33.68,550.19 32.43,551.38 31.18,552.56 29.61,553.29 28.05,554.01 26.33,554.20 24.62,554.39 22.93,554.02 21.24,553.65 19.77,552.76 18.29,551.87 17.17,550.56 16.05,549.24 15.41,547.64 14.77,546.04 14.68,544.31 14.58,542.59 15.04,540.93 15.50,539.26 16.47,537.83 17.44,536.41 18.81,535.36 20.19,534.31 21.82,533.76 23.46,533.21 25.18,533.21 26.91,533.21 28.54,533.76 30.18,534.31 31.55,535.35 32.93,536.40 33.90,537.83 34.87,539.25 35.33,540.92 35.79,542.58 35.70,544.30 35.61,546.03 34.97,547.63 34.33,549.23 33.21,550.55 32.10,551.86 30.62,552.75 29.14,553.65 27.45,554.02 25.77,554.39 24.05,554.20 22.34,554.02 20.77,553.29 19.20,552.57 17.95,551.38 16.70,550.20 15.89,548.67 15.08,547.15 14.80,545.44 14.52,543.74 14.52,543.74 14.52,543.74 14.69,541.69 14.85,539.65 15.26,533.20 15.66,526.75 15.86,522.36 16.05,517.96 16.25,513.30 16.45,508.64 16.60,503.35 16.75,498.06 16.86,492.70 16.96,487.34 16.93,481.78 16.89,476.21 16.36,469.49 15.83,462.77 15.82,456.30 15.81,449.84 15.69,444.28 15.58,438.72 14.35,430.56 13.13,422.40 12.93,414.17 12.73,405.93 12.27,397.81 11.80,389.69 10.54,378.82 9.29,367.95 7.78,355.30 6.26,342.65 4.03,330.66 1.80,318.66 0.90,306.68 0.01,294.70 -0.65,282.39 -1.32,270.09 -2.91,254.88 -4.51,239.67 -5.38,222.62 -6.25,205.58 -6.87,186.81 -7.48,168.03 -7.47,149.63 -7.46,131.23 -7.41,112.07 -7.35,92.90 -7.16,76.23 -6.98,59.55 -6.48,41.85 -5.97,24.14 -6.11,12.07 -6.24,0 -6.15,-0.74 -6.06,-1.49 -5.80,-2.19 -5.53,-2.90 -5.10,-3.52 -4.67,-4.14 -4.11,-4.64 -3.54,-5.14 -2.88,-5.49 -2.21,-5.84 -1.48,-6.02 -0.75,-6.20 0.00,-6.20 0.75,-6.20 1.48,-6.02 2.21,-5.84 2.88,-5.49 3.55,-5.14 4.11,-4.64 4.67,-4.14 5.10,-3.52 5.53,-2.90 5.80,-2.19 6.06,-1.49 6.15,-0.74 6.24,0.00 6.24,0.00 L 6.24,0 Z"></path></g><g transform="translate(1199.9948873588262 124.14030659657055) rotate(0 6.29817064357303 273.9704229954232)" stroke="none"><path fill="#000000" d="M 6.24,0.29 Q 6.24,0.29 5.50,12.96 4.76,25.63 4.41,41.18 4.05,56.74 3.87,76.63 3.69,96.53 3.59,118.27 3.49,140.01 3.44,163.73 3.38,187.46 5.14,209.39 6.91,231.33 8.86,249.12 10.80,266.91 11.64,281.28 12.47,295.65 12.82,309.03 13.17,322.40 13.32,332.92 13.46,343.43 13.52,352.12 13.58,360.82 13.60,369.95 13.63,379.08 13.73,387.19 13.83,395.29 13.99,402.96 14.16,410.63 14.78,418.50 15.40,426.38 15.89,433.54 16.38,440.70 16.81,446.77 17.24,452.84 17.64,457.83 18.05,462.83 19.52,471.47 20.99,480.10 22.17,487.20 23.35,494.30 24.15,498.57 24.95,502.84 25.10,511.58 25.25,520.31 24.50,526.95 23.75,533.59 23.71,539.38 23.68,545.18 23.73,546.83 23.78,548.48 23.40,550.25 23.02,552.02 22.09,553.58 21.17,555.14 19.80,556.32 18.42,557.50 16.74,558.18 15.06,558.86 13.25,558.97 11.45,559.08 9.70,558.60 7.95,558.13 6.44,557.12 4.94,556.11 3.83,554.67 2.73,553.24 2.14,551.53 1.55,549.81 1.54,548.00 1.53,546.19 2.10,544.47 2.67,542.75 3.76,541.30 4.84,539.85 6.34,538.82 7.83,537.80 9.57,537.30 11.32,536.81 13.13,536.90 14.94,536.99 16.62,537.65 18.31,538.31 19.70,539.47 21.09,540.64 22.03,542.18 22.97,543.73 23.37,545.50 23.77,547.27 23.58,549.07 23.40,550.87 22.65,552.52 21.90,554.17 20.66,555.49 19.42,556.81 17.82,557.67 16.23,558.53 14.44,558.83 12.65,559.13 10.86,558.85 9.08,558.57 7.47,557.73 5.86,556.89 4.61,555.58 3.36,554.27 2.59,552.63 1.82,550.99 1.61,549.19 1.41,547.39 1.41,547.39 1.41,547.40 1.61,545.76 1.82,544.12 2.51,537.86 3.19,531.59 3.63,525.98 4.07,520.38 3.95,514.59 3.82,508.80 3.96,503.13 4.11,497.46 3.60,492.86 3.10,488.25 3.30,480.67 3.49,473.09 3.15,468.04 2.80,462.99 3.11,458.04 3.42,453.09 3.63,447.12 3.85,441.16 3.82,434.20 3.79,427.25 3.20,418.94 2.61,410.64 2.77,402.98 2.92,395.31 3.00,387.21 3.08,379.11 3.05,370.01 3.01,360.90 2.95,352.24 2.88,343.58 2.72,333.13 2.56,322.69 2.20,309.48 1.83,296.28 0.99,282.18 0.15,268.09 -1.84,250.14 -3.84,232.20 -5.68,209.83 -7.52,187.45 -7.54,163.72 -7.56,139.98 -7.56,118.23 -7.57,96.47 -7.53,76.51 -7.49,56.55 -7.33,40.80 -7.17,25.06 -6.70,12.38 -6.24,-0.29 -6.11,-1.03 -5.98,-1.78 -5.68,-2.47 -5.38,-3.16 -4.93,-3.76 -4.47,-4.36 -3.88,-4.83 -3.30,-5.30 -2.61,-5.62 -1.93,-5.94 -1.19,-6.08 -0.45,-6.23 0.29,-6.19 1.04,-6.16 1.76,-5.94 2.49,-5.73 3.14,-5.34 3.79,-4.96 4.32,-4.44 4.86,-3.91 5.26,-3.27 5.66,-2.63 5.89,-1.92 6.13,-1.20 6.18,-0.45 6.24,0.29 6.24,0.29 L 6.24,0.29 Z"></path></g><g transform="translate(1478.9521179243045 371.86835191043974) rotate(0 -527.8658049697373 18.60284016896776)" stroke="none"><path fill="#000000" d="M -277.32,7.47 Q -277.32,7.47 -284.69,8.99 -292.05,10.52 -297.56,12.38 -303.07,14.24 -310.07,15.22 -317.07,16.21 -323.58,17.10 -330.09,17.99 -337.85,18.26 -345.62,18.52 -352.87,19.10 -360.12,19.68 -367.73,19.92 -375.34,20.16 -382.73,21.16 -390.12,22.16 -398.59,22.97 -407.06,23.79 -414.86,24.71 -422.67,25.64 -430.06,26.18 -437.46,26.71 -444.89,26.95 -452.31,27.18 -460.11,27.21 -467.90,27.23 -475.47,27.27 -483.04,27.31 -490.51,27.34 -497.98,27.38 -506.96,27.16 -515.94,26.93 -525.38,27.30 -534.83,27.66 -544.91,28.82 -554.99,29.98 -563.79,30.46 -572.60,30.94 -579.83,31.40 -587.06,31.86 -592.84,32.32 -598.63,32.78 -603.81,33.17 -608.99,33.56 -613.51,33.90 -618.03,34.24 -625.30,34.81 -632.57,35.38 -640.72,35.74 -648.88,36.11 -653.54,36.22 -658.20,36.32 -665.39,37.08 -672.57,37.83 -679.67,38.46 -686.78,39.10 -692.58,39.82 -698.39,40.54 -704.99,41.12 -711.59,41.71 -716.51,42.73 -721.44,43.76 -726.29,44.20 -731.15,44.64 -735.90,44.85 -740.64,45.07 -745.85,45.19 -751.05,45.31 -756.94,45.38 -762.82,45.46 -763.44,44.50 -764.05,43.55 -765.40,45.42 -766.75,47.28 -768.62,48.62 -770.49,49.95 -772.69,50.62 -774.89,51.29 -777.19,51.22 -779.49,51.15 -781.64,50.35 -783.80,49.55 -785.59,48.11 -787.38,46.66 -788.61,44.72 -789.84,42.78 -790.39,40.55 -790.94,38.31 -790.75,36.02 -790.55,33.73 -789.64,31.62 -788.72,29.51 -787.18,27.80 -785.64,26.10 -783.64,24.97 -781.63,23.85 -779.37,23.42 -777.11,22.99 -774.83,23.31 -772.56,23.63 -770.50,24.65 -768.44,25.68 -766.82,27.31 -765.20,28.94 -764.19,31.01 -763.17,33.07 -762.87,35.35 -762.56,37.63 -763.00,39.89 -763.44,42.14 -764.58,44.14 -765.72,46.14 -767.43,47.67 -769.15,49.20 -771.27,50.10 -773.38,51.00 -775.67,51.18 -777.97,51.36 -780.20,50.80 -782.43,50.24 -784.36,49.00 -786.29,47.75 -787.73,45.95 -789.16,44.16 -789.95,42.00 -790.74,39.84 -790.79,37.54 -790.85,35.24 -790.16,33.04 -789.48,30.85 -789.48,30.85 -789.48,30.85 -785.51,27.06 -781.53,23.27 -776.08,21.36 -770.63,19.45 -762.82,18.66 -755.01,17.86 -749.32,17.97 -743.62,18.08 -738.18,18.30 -732.74,18.51 -728.02,18.65 -723.29,18.79 -717.86,18.15 -712.43,17.52 -707.20,17.43 -701.96,17.35 -694.70,16.88 -687.44,16.42 -681.44,16.40 -675.44,16.39 -666.82,16.07 -658.20,15.75 -653.54,15.86 -648.88,15.97 -640.73,16.33 -632.59,16.69 -625.34,17.24 -618.10,17.79 -613.61,18.09 -609.11,18.40 -603.99,18.70 -598.87,19.00 -593.17,19.26 -587.46,19.53 -580.40,19.52 -573.33,19.51 -564.90,18.89 -556.46,18.26 -545.99,16.82 -535.52,15.39 -525.73,14.68 -515.95,13.97 -506.98,13.73 -498.01,13.50 -490.55,13.51 -483.10,13.51 -475.57,13.49 -468.04,13.46 -460.34,13.34 -452.65,13.21 -445.45,13.09 -438.26,12.97 -431.29,12.68 -424.33,12.38 -416.53,11.36 -408.74,10.33 -400.53,9.06 -392.32,7.78 -384.13,6.39 -375.95,5.01 -368.74,4.66 -361.54,4.31 -353.96,3.52 -346.39,2.72 -339.29,2.26 -332.18,1.81 -325.57,0.99 -318.95,0.18 -313.25,-0.31 -307.55,-0.81 -301.40,-2.46 -295.25,-4.10 -287.92,-5.78 -280.58,-7.47 -279.67,-7.55 -278.75,-7.64 -277.84,-7.50 -276.92,-7.37 -276.07,-7.02 -275.22,-6.67 -274.47,-6.13 -273.73,-5.58 -273.14,-4.88 -272.54,-4.17 -272.14,-3.34 -271.73,-2.51 -271.54,-1.61 -271.34,-0.71 -271.36,0.20 -271.39,1.12 -271.63,2.01 -271.88,2.90 -272.33,3.70 -272.78,4.51 -273.41,5.18 -274.04,5.85 -274.81,6.36 -275.58,6.86 -276.45,7.16 -277.32,7.47 -277.32,7.47 L -277.32,7.47 Z"></path></g><g transform="translate(718.4675113694964 127.56237311108998) rotate(0 244.96246842371397 2.487747171789124)" stroke="none"><path fill="#000000" d="M 0.44,-7.23 Q 0.44,-7.23 5.83,-7.19 11.22,-7.15 17.05,-6.87 22.89,-6.59 31.22,-6.01 39.55,-5.42 50.53,-4.71 61.51,-4.00 73.02,-3.50 84.53,-3.00 94.83,-2.50 105.14,-2.00 112.92,-1.90 120.70,-1.80 128.22,-1.83 135.73,-1.86 143.20,-1.82 150.66,-1.77 157.24,-1.93 163.83,-2.08 171.22,-2.08 178.62,-2.08 185.22,-2.23 191.82,-2.38 198.84,-2.43 205.87,-2.48 212.69,-2.55 219.52,-2.63 226.19,-2.81 232.87,-3.00 239.87,-3.25 246.87,-3.51 254.58,-3.51 262.29,-3.52 268.62,-3.72 274.95,-3.92 281.42,-4.14 287.89,-4.36 294.16,-4.53 300.43,-4.70 305.39,-4.96 310.36,-5.22 315.16,-5.44 319.96,-5.66 327.90,-6.09 335.85,-6.52 345.16,-6.45 354.46,-6.39 359.63,-6.34 364.80,-6.30 370.92,-6.06 377.05,-5.82 382.64,-5.74 388.23,-5.67 392.52,-5.77 396.82,-5.87 404.07,-6.14 411.32,-6.41 415.88,-6.45 420.44,-6.49 428.23,-6.76 436.02,-7.03 442.74,-7.43 449.45,-7.84 455.57,-8.15 461.68,-8.46 466.17,-8.72 470.66,-8.97 475.32,-9.19 479.97,-9.42 484.94,-9.53 489.92,-9.65 492.01,-9.31 494.10,-8.97 495.97,-7.97 497.85,-6.98 499.30,-5.44 500.76,-3.90 501.65,-1.98 502.54,-0.06 502.77,2.04 503.00,4.15 502.55,6.22 502.09,8.29 501.00,10.10 499.91,11.92 498.29,13.29 496.67,14.66 494.71,15.45 492.74,16.23 490.62,16.35 488.50,16.46 486.46,15.90 484.42,15.33 482.67,14.14 480.91,12.95 479.63,11.26 478.35,9.58 477.67,7.57 476.99,5.56 476.99,3.44 476.99,1.32 477.67,-0.68 478.35,-2.69 479.63,-4.37 480.91,-6.06 482.67,-7.25 484.42,-8.44 486.46,-9.01 488.50,-9.57 490.62,-9.46 492.74,-9.34 494.71,-8.56 496.67,-7.78 498.29,-6.40 499.90,-5.03 501.00,-3.21 502.09,-1.40 502.55,0.66 503.00,2.73 502.77,4.84 502.54,6.95 501.65,8.87 500.76,10.79 499.30,12.33 497.85,13.87 495.97,14.86 494.10,15.85 492.01,16.20 489.92,16.54 489.92,16.54 489.92,16.54 487.05,16.49 484.17,16.43 479.55,16.25 474.94,16.07 468.74,15.89 462.54,15.71 456.27,15.70 450.01,15.69 443.35,15.73 436.70,15.77 428.56,15.72 420.43,15.67 415.86,15.63 411.29,15.58 403.99,15.28 396.70,14.98 392.36,14.83 388.01,14.68 382.30,14.64 376.58,14.59 370.56,14.56 364.54,14.52 359.19,14.43 353.83,14.35 344.85,13.88 335.86,13.41 327.93,13.00 320.00,12.58 315.22,12.38 310.44,12.18 305.51,11.97 300.57,11.75 294.39,11.69 288.21,11.63 281.64,11.67 275.07,11.72 268.79,11.61 262.51,11.51 254.98,11.73 247.46,11.96 240.29,12.23 233.12,12.50 226.32,12.54 219.51,12.57 212.69,12.49 205.86,12.42 198.83,12.36 191.80,12.30 185.18,12.13 178.57,11.96 171.14,11.91 163.70,11.86 157.06,11.59 150.42,11.32 143.03,11.09 135.63,10.86 128.05,10.71 120.47,10.56 112.60,10.37 104.73,10.18 94.47,9.99 84.21,9.81 72.60,9.74 60.99,9.67 50.10,9.54 39.20,9.42 30.37,9.61 21.55,9.79 15.90,9.13 10.26,8.47 4.91,7.85 -0.44,7.23 -1.30,7.07 -2.16,6.92 -2.96,6.56 -3.75,6.20 -4.44,5.66 -5.13,5.12 -5.67,4.43 -6.20,3.74 -6.56,2.94 -6.92,2.15 -7.08,1.29 -7.23,0.43 -7.18,-0.44 -7.13,-1.31 -6.86,-2.14 -6.60,-2.98 -6.15,-3.72 -5.70,-4.47 -5.08,-5.09 -4.46,-5.71 -3.71,-6.16 -2.96,-6.61 -2.13,-6.87 -1.29,-7.13 -0.42,-7.18 0.44,-7.23 0.44,-7.23 L 0.44,-7.23 Z"></path></g><g transform="translate(1485.0942993148872 670.5651058963949) rotate(0 -530.9368956650287 0.7580233455109919)" stroke="none"><path fill="#000000" d="M -265.68,5.41 Q -265.68,5.41 -273.72,6.02 -281.75,6.63 -291.25,7.10 -300.76,7.57 -315.35,7.73 -329.95,7.89 -345.76,7.93 -361.58,7.96 -380.34,7.95 -399.11,7.94 -419.23,7.26 -439.34,6.59 -455.84,6.29 -472.34,5.99 -483.77,5.85 -495.20,5.72 -503.27,5.75 -511.34,5.79 -519.98,5.73 -528.63,5.67 -536.72,5.73 -544.81,5.79 -553.88,5.74 -562.94,5.69 -571.61,5.65 -580.28,5.62 -588.50,5.35 -596.71,5.09 -607.00,4.58 -617.28,4.06 -624.41,4.11 -631.55,4.16 -637.78,4.40 -644.00,4.64 -649.85,4.91 -655.71,5.18 -661.80,5.37 -667.90,5.57 -673.71,5.77 -679.51,5.97 -685.19,6.15 -690.87,6.32 -696.10,6.52 -701.33,6.72 -708.96,7.19 -716.59,7.66 -724.50,7.99 -732.40,8.33 -736.91,8.63 -741.41,8.92 -747.27,10.26 -753.14,11.60 -759.29,12.37 -765.44,13.14 -769.91,13.88 -774.38,14.63 -779.14,15.38 -783.89,16.14 -791.10,15.71 -798.30,15.28 -800.28,14.52 -802.25,13.76 -803.88,12.42 -805.51,11.07 -806.63,9.27 -807.74,7.47 -808.23,5.41 -808.71,3.35 -808.51,1.25 -808.31,-0.85 -807.45,-2.78 -806.59,-4.71 -805.15,-6.27 -803.72,-7.82 -801.86,-8.84 -800.01,-9.86 -797.93,-10.23 -795.84,-10.60 -793.75,-10.28 -791.66,-9.97 -789.78,-9.01 -787.89,-8.04 -786.42,-6.52 -784.94,-5.01 -784.03,-3.10 -783.11,-1.19 -782.86,0.90 -782.60,3.00 -783.02,5.07 -783.45,7.14 -784.52,8.97 -785.58,10.80 -787.18,12.19 -788.77,13.58 -790.73,14.39 -792.68,15.20 -794.79,15.34 -796.90,15.49 -798.95,14.95 -800.99,14.41 -802.76,13.25 -804.53,12.08 -805.83,10.42 -807.13,8.75 -807.84,6.75 -808.54,4.76 -808.57,2.64 -808.60,0.53 -807.95,-1.48 -807.30,-3.49 -806.04,-5.19 -804.78,-6.89 -803.05,-8.10 -801.31,-9.32 -799.28,-9.91 -797.25,-10.50 -795.14,-10.42 -793.02,-10.33 -793.03,-10.33 -793.03,-10.33 -789.43,-9.87 -785.82,-9.40 -779.23,-9.79 -772.63,-10.17 -767.24,-10.63 -761.84,-11.09 -756.34,-11.45 -750.83,-11.81 -746.25,-12.46 -741.67,-13.12 -737.04,-12.82 -732.40,-12.53 -724.50,-12.19 -716.59,-11.86 -708.96,-11.38 -701.32,-10.91 -696.09,-10.71 -690.87,-10.52 -685.18,-10.33 -679.50,-10.15 -673.68,-9.93 -667.86,-9.72 -661.74,-9.50 -655.62,-9.27 -649.72,-8.93 -643.82,-8.59 -637.52,-8.18 -631.22,-7.77 -624.00,-7.32 -616.78,-6.88 -606.52,-6.45 -596.26,-6.03 -588.27,-5.63 -580.28,-5.24 -571.61,-5.27 -562.93,-5.30 -553.87,-5.34 -544.80,-5.39 -536.70,-5.31 -528.60,-5.23 -519.94,-5.25 -511.27,-5.27 -503.18,-5.14 -495.10,-5.00 -483.63,-4.91 -472.16,-4.81 -455.58,-4.57 -439.00,-4.33 -419.07,-3.73 -399.14,-3.14 -380.40,-3.24 -361.65,-3.34 -345.90,-3.52 -330.15,-3.71 -315.84,-4.07 -301.53,-4.42 -292.15,-5.17 -282.78,-5.92 -274.75,-6.62 -266.72,-7.32 -265.95,-7.29 -265.18,-7.26 -264.44,-7.05 -263.70,-6.83 -263.03,-6.45 -262.37,-6.07 -261.81,-5.53 -261.25,-5.00 -260.84,-4.35 -260.43,-3.70 -260.18,-2.97 -259.94,-2.24 -259.88,-1.47 -259.81,-0.70 -259.94,0.05 -260.06,0.81 -260.36,1.52 -260.66,2.23 -261.12,2.85 -261.59,3.46 -262.18,3.95 -262.78,4.44 -263.47,4.77 -264.17,5.10 -264.92,5.25 -265.68,5.41 -265.68,5.41 L -265.68,5.41 Z"></path></g><g stroke-linecap="round" transform="translate(806.1232928626621 295.9390389427308) rotate(0 28.41865668262858 30.424679507284964)"><path d="M12.96 3.52 L46.96 4.2 L53.82 2.84 L54.22 10.46 L57.58 48.3 L58.74 55.76 L55.14 57.45 L42.85 58.08 L12.37 58.39 L5.98 53.53 L0.1 47.1 L-0.09 13.46 L5.01 5.73 L10.49 -3.36" stroke="none" stroke-width="0" fill="#228be6"></path><path d="M14.21 0 M14.21 0 C20.81 -1.62, 29 0.7, 42.63 0 M14.21 0 C23.76 -0.77, 29.88 2.19, 42.63 0 M42.63 0 C54.18 -3.69, 60.43 3.15, 56.84 14.21 M42.63 0 C53.27 -2.95, 52.55 1.3, 56.84 14.21 M56.84 14.21 C55.72 27.07, 61.02 37.38, 56.84 46.64 M56.84 14.21 C54.67 20.18, 55.96 30.55, 56.84 46.64 M56.84 46.64 C60.53 56.78, 48.51 58.79, 42.63 60.85 M56.84 46.64 C56.78 56.28, 51.69 62.54, 42.63 60.85 M42.63 60.85 C36.34 63.67, 22.03 58.5, 14.21 60.85 M42.63 60.85 C32.39 59.55, 22.99 62.19, 14.21 60.85 M14.21 60.85 C2.34 56.95, -3.64 58.71, 0 46.64 M14.21 60.85 C2.62 56.31, 2.43 57.06, 0 46.64 M0 46.64 C1.19 37.56, 1.6 21.33, 0 14.21 M0 46.64 C-1.17 37.72, -1.42 32.57, 0 14.21 M0 14.21 C-1.53 2.73, 7.79 -2.74, 14.21 0 M0 14.21 C-1.94 8.67, 4.19 2.98, 14.21 0" stroke="#000000" stroke-width="4" fill="none"></path></g><g stroke-linecap="round" transform="translate(800.7738986635791 265.8486965728889) rotate(0 35.43973656892524 18.388542559348025)"><path d="M12.72 1 L69.69 -0.44 L67.59 2.55 L66.56 32.34 L70.24 37.27 L64.59 40.63 L3.77 36.42 L-2.19 33.09 L-2.24 13.17 L0.53 2.39 L9.65 -0.31" stroke="none" stroke-width="0" fill="#228be6"></path><path d="M9.19 0 M9.19 0 C24.61 -4.34, 44.12 -4.71, 61.69 0 M9.19 0 C23.57 0.71, 35.34 0.25, 61.69 0 M61.69 0 C66.27 2.38, 68.9 0.95, 70.88 9.19 M61.69 0 C72.35 2.39, 66.63 7.2, 70.88 9.19 M70.88 9.19 C67.55 11.24, 70.97 20.52, 70.88 27.58 M70.88 9.19 C72.53 16.83, 69.65 20.07, 70.88 27.58 M70.88 27.58 C74.1 30.07, 64.16 35.72, 61.69 36.78 M70.88 27.58 C72.6 37.96, 68.58 32.65, 61.69 36.78 M61.69 36.78 C48.29 38.28, 36.26 32.88, 9.19 36.78 M61.69 36.78 C42.88 36.2, 27.67 35.49, 9.19 36.78 M9.19 36.78 C3.8 36.12, -2.81 34.08, 0 27.58 M9.19 36.78 C5.9 34.02, -4.48 29.52, 0 27.58 M0 27.58 C2.11 21.63, 2.26 10.58, 0 9.19 M0 27.58 C0.4 22.43, -1.49 20.51, 0 9.19 M0 9.19 C1.1 1.59, -0.41 -1.96, 9.19 0 M0 9.19 C0.68 1.31, 0.76 3.51, 9.19 0" stroke="#000000" stroke-width="4" fill="none"></path></g><g transform="translate(822.1714754599111 283.23422771991045) rotate(0 0.00003009034242040798 0.000030090342534094816)" stroke="none"><path fill="#000000" d="M 6.28,-6.28 Q 6.28,-6.28 7.11,-5.11 7.95,-3.94 8.37,-2.57 8.80,-1.19 8.76,0.23 8.72,1.67 8.22,3.02 7.73,4.37 6.83,5.49 5.93,6.61 4.72,7.38 3.50,8.15 2.11,8.50 0.72,8.85 -0.71,8.73 -2.14,8.61 -3.46,8.05 -4.78,7.48 -5.85,6.52 -6.92,5.56 -7.63,4.31 -8.33,3.06 -8.60,1.65 -8.87,0.23 -8.68,-1.18 -8.49,-2.60 -7.85,-3.89 -7.21,-5.18 -6.19,-6.19 -5.18,-7.21 -3.89,-7.85 -2.60,-8.49 -1.18,-8.68 0.24,-8.87 1.65,-8.60 3.06,-8.33 4.31,-7.62 5.56,-6.92 6.52,-5.85 7.48,-4.78 8.05,-3.46 8.62,-2.14 8.73,-0.70 8.85,0.72 8.50,2.11 8.15,3.51 7.38,4.72 6.61,5.93 5.48,6.83 4.36,7.73 3.02,8.22 1.67,8.72 0.23,8.76 -1.20,8.80 -2.57,8.37 -3.94,7.95 -5.11,7.11 -6.28,6.27 -6.28,6.27 -6.28,6.28 -6.94,5.43 -7.60,4.59 -8.04,3.61 -8.48,2.64 -8.67,1.58 -8.86,0.53 -8.80,-0.53 -8.73,-1.60 -8.41,-2.62 -8.09,-3.64 -7.54,-4.56 -6.99,-5.47 -6.23,-6.23 -5.47,-6.99 -4.56,-7.54 -3.64,-8.10 -2.62,-8.41 -1.60,-8.73 -0.53,-8.80 0.53,-8.86 1.59,-8.67 2.64,-8.48 3.61,-8.04 4.59,-7.60 5.43,-6.94 6.28,-6.28 6.28,-6.28 L 6.28,-6.28 Z"></path></g><g transform="translate(852.9304921046389 282.5655534450234) rotate(0 0.00003009034230672114 0.000030090342534094816)" stroke="none"><path fill="#000000" d="M 6.28,-6.28 Q 6.28,-6.28 7.11,-5.11 7.95,-3.94 8.37,-2.57 8.80,-1.19 8.76,0.23 8.72,1.67 8.22,3.02 7.73,4.37 6.83,5.49 5.93,6.61 4.72,7.38 3.50,8.15 2.11,8.50 0.72,8.85 -0.71,8.73 -2.14,8.61 -3.46,8.05 -4.78,7.48 -5.85,6.52 -6.92,5.56 -7.63,4.31 -8.33,3.06 -8.60,1.65 -8.87,0.23 -8.68,-1.18 -8.49,-2.60 -7.85,-3.89 -7.21,-5.18 -6.19,-6.19 -5.18,-7.21 -3.89,-7.85 -2.60,-8.49 -1.18,-8.68 0.24,-8.87 1.65,-8.60 3.06,-8.33 4.31,-7.62 5.56,-6.92 6.52,-5.85 7.48,-4.78 8.05,-3.46 8.62,-2.14 8.73,-0.70 8.85,0.72 8.50,2.11 8.15,3.51 7.38,4.72 6.61,5.93 5.48,6.83 4.36,7.73 3.02,8.22 1.67,8.72 0.23,8.76 -1.20,8.80 -2.57,8.37 -3.94,7.95 -5.11,7.11 -6.28,6.27 -6.28,6.27 -6.28,6.28 -6.94,5.43 -7.60,4.59 -8.04,3.61 -8.48,2.64 -8.67,1.58 -8.86,0.53 -8.80,-0.53 -8.73,-1.60 -8.41,-2.62 -8.09,-3.64 -7.54,-4.56 -6.99,-5.47 -6.23,-6.23 -5.47,-6.99 -4.56,-7.54 -3.64,-8.10 -2.62,-8.41 -1.60,-8.73 -0.53,-8.80 0.53,-8.86 1.59,-8.67 2.64,-8.48 3.61,-8.04 4.59,-7.60 5.43,-6.94 6.28,-6.28 6.28,-6.28 L 6.28,-6.28 Z"></path></g><g transform="translate(837.5509837822749 265.1800222980046) rotate(0 0.3343371374428443 -10.3644512607234)" stroke="none"><path fill="#000000" d="M -5.24,0.87 Q -5.24,0.87 -5.51,-0.26 -5.78,-1.41 -6.07,-4.62 -6.36,-7.84 -6.21,-10.62 -6.06,-13.39 -5.42,-17.38 -4.77,-21.37 -4.42,-22.30 -4.08,-23.23 -3.45,-24.00 -2.83,-24.76 -1.99,-25.29 -1.15,-25.82 -0.19,-26.06 0.76,-26.29 1.75,-26.20 2.74,-26.12 3.64,-25.72 4.55,-25.33 5.28,-24.66 6.02,-23.99 6.50,-23.13 6.98,-22.27 7.16,-21.29 7.35,-20.32 7.21,-19.34 7.07,-18.36 6.62,-17.47 6.18,-16.59 5.47,-15.89 4.77,-15.19 3.88,-14.76 2.99,-14.32 2.01,-14.20 1.03,-14.07 0.06,-14.26 -0.91,-14.45 -1.77,-14.94 -2.63,-15.44 -3.28,-16.18 -3.94,-16.92 -4.33,-17.83 -4.71,-18.74 -4.79,-19.73 -4.86,-20.72 -4.62,-21.68 -4.37,-22.64 -3.84,-23.47 -3.30,-24.30 -2.52,-24.91 -1.75,-25.53 -0.82,-25.87 0.11,-26.20 1.10,-26.23 2.09,-26.25 3.03,-25.95 3.98,-25.65 4.78,-25.07 5.58,-24.49 6.15,-23.68 6.73,-22.87 7.01,-21.93 7.30,-20.98 7.26,-19.99 7.23,-19.00 7.23,-19.00 7.23,-19.00 6.54,-15.81 5.84,-12.61 5.48,-10.36 5.12,-8.11 5.07,-5.65 5.01,-3.20 5.12,-2.03 5.24,-0.87 5.27,-0.23 5.29,0.40 5.17,1.03 5.04,1.66 4.77,2.24 4.50,2.82 4.09,3.32 3.69,3.81 3.18,4.20 2.67,4.59 2.08,4.84 1.49,5.09 0.86,5.20 0.23,5.30 -0.40,5.26 -1.04,5.21 -1.65,5.01 -2.25,4.81 -2.80,4.47 -3.34,4.12 -3.79,3.66 -4.23,3.20 -4.55,2.65 -4.88,2.10 -5.06,1.48 -5.24,0.87 -5.24,0.87 L -5.24,0.87 Z"></path></g><g stroke-linecap="round" transform="translate(834.8762866827335 233.08365710350608) rotate(0 6.686742748853703 4.012045649312313)"><path d="M7.76 0.13 C9.39 0.51, 10.6 1.83, 11.59 2.14 C12.58 2.45, 13.55 1.05, 13.7 2.01 C13.85 2.97, 13.26 7.14, 12.51 7.91 C11.77 8.69, 10.96 6.55, 9.22 6.65 C7.49 6.74, 3.92 8.62, 2.13 8.48 C0.33 8.33, -1.21 6.99, -1.55 5.79 C-1.9 4.58, -0.78 1.93, 0.06 1.27 C0.89 0.6, 1.51 1.86, 3.47 1.79 C5.44 1.72, 10.84 -0.21, 11.85 0.83 C12.86 1.88, 9.57 8.06, 9.51 8.08 M7.13 -1.68 C8.31 -1.29, 12.3 3.61, 13.39 4.52 C14.49 5.43, 14.65 2.94, 13.69 3.77 C12.73 4.6, 8.88 8.99, 7.65 9.51 C6.43 10.02, 7.78 7.59, 6.32 6.86 C4.87 6.12, -0.08 5.78, -1.06 5.11 C-2.04 4.44, 0.26 3.09, 0.45 2.85 C0.64 2.62, -0.43 4.39, 0.08 3.71 C0.59 3.03, 1.41 -0.62, 3.5 -1.2 C5.59 -1.79, 11.21 0.38, 12.62 0.19 C14.03 0, 12.59 -2.06, 11.93 -2.37" stroke="none" stroke-width="0" fill="#228be6"></path><path d="M11.31 -0.36 C12.38 -0.55, 12.36 0.16, 12.8 0.86 C13.23 1.56, 13.95 2.93, 13.92 3.85 C13.9 4.77, 13.9 5.63, 12.63 6.37 C11.36 7.1, 8.08 7.94, 6.29 8.25 C4.51 8.55, 2.99 8.52, 1.9 8.2 C0.82 7.88, 0.21 7.66, -0.23 6.31 C-0.67 4.96, -1.29 1.44, -0.73 0.1 C-0.16 -1.24, 1.29 -1.92, 3.15 -1.7 C5.01 -1.49, 9.01 0.51, 10.44 1.42 C11.88 2.32, 11.64 3.71, 11.76 3.7 M4.37 -1.55 C6.4 -1.74, 12.28 1.02, 13.27 2.2 C14.26 3.38, 10.58 4.84, 10.31 5.53 C10.04 6.22, 12.07 6.46, 11.66 6.34 C11.24 6.21, 9.26 4.53, 7.81 4.79 C6.36 5.05, 3.8 7.53, 2.96 7.92 C2.12 8.31, 3.45 7.4, 2.78 7.1 C2.11 6.81, -1.38 6.67, -1.06 6.16 C-0.74 5.66, 3.84 5.36, 4.69 4.07 C5.55 2.79, 3.47 -0.45, 4.07 -1.57 C4.67 -2.68, 8.44 -2.82, 8.29 -2.62" stroke="#000000" stroke-width="2" fill="none"></path></g><g stroke-linecap="round" transform="translate(758.3710994369128 517.2938123051108) rotate(0 71.15482245498833 65.42396328346058)"><path d="M11.8 55.31 C11.8 55.31, 11.8 55.31, 11.8 55.31 M11.8 55.31 C11.8 55.31, 11.8 55.31, 11.8 55.31 M13.38 77.88 C29.27 63.04, 40.27 43.57, 76.36 5.43 M13.38 77.88 C34.74 50.97, 55.36 27.47, 76.36 5.43 M25.46 88.38 C43.8 69.47, 65.95 48.32, 88.44 15.93 M25.46 88.38 C47.15 67.13, 67.33 42.02, 88.44 15.93 M36.88 99.63 C47.29 81.87, 68.34 68.39, 101.17 25.67 M36.88 99.63 C61.82 69.69, 90.27 41.5, 101.17 25.67 M48.95 110.13 C63.58 92.67, 83.64 66.56, 112.59 36.92 M48.95 110.13 C70.45 84.7, 90.98 60.78, 112.59 36.92 M61.03 120.63 C81.63 91.84, 104.96 61.28, 124.01 48.17 M61.03 120.63 C82.95 96.72, 106.52 69.98, 124.01 48.17 M79.66 123.58 C98.09 101.18, 112.69 82.63, 134.77 60.18 M79.66 123.58 C100.16 100.68, 119.74 78.69, 134.77 60.18" stroke="#e64980" stroke-width="2" fill="none"></path><path d="M90 16.5 M90 16.5 C103.72 29.22, 120.46 38.53, 124.31 49.5 M90 16.5 C99.23 25.43, 107.96 32.6, 124.31 49.5 M124.31 49.5 C141.43 63.39, 145.4 66.02, 124.31 82.5 M124.31 49.5 C139.01 67.45, 146.91 69.03, 124.31 82.5 M124.31 82.5 C111.08 92.8, 96.19 106.6, 90 114.35 M124.31 82.5 C112.34 91.45, 101.96 102.22, 90 114.35 M90 114.35 C74.96 131.84, 70.65 131.34, 54 114.35 M90 114.35 C70.62 126.9, 68.22 127.66, 54 114.35 M54 114.35 C45.21 108.86, 34.09 96.17, 18 82.5 M54 114.35 C44.68 107.16, 35.99 97.69, 18 82.5 M18 82.5 C2.58 63.47, -1.84 67.87, 18 49.5 M18 82.5 C-1.59 61.93, -0.69 63.89, 18 49.5 M18 49.5 C33.02 34.49, 45.25 25.52, 54 16.5 M18 49.5 C30.69 41.07, 38.31 31.12, 54 16.5 M54 16.5 C72.71 -2.92, 73.86 -2.54, 90 16.5 M54 16.5 C74.52 -0.65, 75.37 3.72, 90 16.5" stroke="#000000" stroke-width="4" fill="none"></path></g><g stroke-linecap="round" transform="translate(1023.2537094970291 518.2954417723831) rotate(0 74.40666257550401 67.93651800372118)"><path d="M8.23 33.66 C8.23 33.66, 8.23 33.66, 8.23 33.66 M8.23 33.66 C8.23 33.66, 8.23 33.66, 8.23 33.66 M1.67 62.32 C12.66 52.97, 27.65 36.81, 41.37 17.48 M0.96 63.5 C8.83 54.49, 19 46.2, 41.22 20.62 M7.66 84.98 C32.93 56.5, 56.66 31.8, 69.2 9.43 M7.02 86.14 C24.64 66.63, 40.56 44.26, 73.68 10.3 M12.1 97.34 C35.05 77.55, 58.04 49.73, 98.28 5.35 M14.46 101 C39.95 69.14, 68.29 38.67, 94.17 5.64 M26.93 111.19 C38.53 93.07, 60.48 70.68, 112.92 16.04 M22.52 112.97 C56.76 70.3, 93.28 31.85, 112.49 11.32 M36.04 126.82 C54.2 96.47, 80.43 74.23, 127.78 19.41 M32.05 126.02 C67.07 86.2, 97.87 47.45, 125.67 21.52 M45.98 134.87 C78.77 102.79, 101.25 76.7, 139.68 32.71 M47.91 132.33 C66.7 111.02, 84.6 90.11, 135.42 33.41 M63.82 139.34 C93.73 109.54, 122.53 68.8, 151.55 44.3 M62.5 140.64 C83.59 119.47, 102.08 96.26, 147.74 42.29 M85.57 138.98 C101.9 123.74, 118.22 104.84, 152.22 66.35 M87.89 136.94 C110.44 110.05, 136.5 83.66, 150.49 63.6 M119.55 122.43 C136.58 112.87, 143.09 94.24, 158.93 78.59 M120.84 124.94 C134.49 107.27, 148.43 94.59, 159.48 79.96" stroke="#82c91e" stroke-width="2" fill="none"></path><path d="M61.19 -0.82 C70.62 -3.47, 83.54 1.54, 93.74 4.31 C103.94 7.08, 114.15 9.85, 122.4 15.8 C130.65 21.74, 138.65 30.43, 143.25 39.99 C147.85 49.55, 150.37 62.97, 150 73.16 C149.63 83.36, 146.71 93.15, 141.04 101.17 C135.36 109.19, 125.2 115.81, 115.95 121.29 C106.7 126.76, 95.65 132.12, 85.52 134.03 C75.38 135.94, 65.07 135.3, 55.15 132.76 C45.23 130.22, 34.2 125.25, 26 118.81 C17.81 112.37, 10.5 103.36, 5.99 94.12 C1.48 84.88, -1.42 73.44, -1.04 63.36 C-0.66 53.28, 2.95 42.19, 8.25 33.64 C13.55 25.09, 15.93 17.09, 30.77 12.06 C45.6 7.02, 81.5 2.14, 97.27 3.42 C113.03 4.7, 126.08 18.71, 125.36 19.74 M123.4 19.94 C131.68 26.29, 142.33 37.54, 146.69 46.37 C151.05 55.19, 151.43 63.74, 149.57 72.91 C147.71 82.07, 141.39 92.81, 135.52 101.37 C129.66 109.92, 123.32 118.09, 114.4 124.24 C105.48 130.38, 92.7 137.17, 82.01 138.26 C71.31 139.35, 60.59 134.38, 50.24 130.77 C39.9 127.16, 27.55 122.83, 19.92 116.59 C12.3 110.35, 7.33 102.89, 4.52 93.35 C1.7 83.81, 1.73 69.24, 3.05 59.38 C4.37 49.51, 7.72 42.45, 12.44 34.16 C17.16 25.87, 22.16 15.24, 31.37 9.64 C40.57 4.04, 57.01 1.82, 67.67 0.56 C78.33 -0.7, 85.16 -0.63, 95.33 2.07 C105.5 4.77, 123.81 13.95, 128.69 16.79 C133.58 19.62, 126.26 17.81, 124.62 19.06" stroke="#000000" stroke-width="4" fill="none"></path></g><g transform="translate(35.610339793536696 121.35152685020421) rotate(0 -11.546646179883624 258.2249963864906)" stroke="none"><path fill="#000000" d="M 6.06,1.51 Q 6.06,1.51 3.51,11.13 0.97,20.76 -1.93,34.38 -4.84,48.00 -7.28,66.89 -9.73,85.79 -10.79,109.98 -11.85,134.17 -12.32,158.37 -12.79,182.56 -13.00,202.51 -13.22,222.45 -13.32,239.38 -13.41,256.30 -13.46,271.34 -13.51,286.38 -13.53,303.03 -13.56,319.68 -13.57,335.21 -13.59,350.73 -13.60,362.77 -13.60,374.80 -14.22,384.30 -14.83,393.81 -14.89,401.33 -14.95,408.84 -15.50,416.49 -16.06,424.13 -16.10,430.77 -16.15,437.42 -15.91,442.66 -15.67,447.90 -15.07,453.99 -14.48,460.08 -14.00,464.60 -13.53,469.12 -13.13,474.23 -12.72,479.35 -12.32,484.00 -11.92,488.66 -11.87,493.03 -11.82,497.39 -11.61,503.83 -11.40,510.26 -11.33,512.79 -11.27,515.33 -11.58,517.21 -11.89,519.10 -12.78,520.79 -13.68,522.48 -15.07,523.79 -16.46,525.11 -18.19,525.91 -19.93,526.71 -21.83,526.92 -23.73,527.13 -25.60,526.72 -27.46,526.31 -29.10,525.32 -30.74,524.33 -31.98,522.88 -33.21,521.42 -33.92,519.64 -34.63,517.87 -34.73,515.96 -34.84,514.05 -34.32,512.21 -33.81,510.36 -32.74,508.78 -31.67,507.20 -30.14,506.04 -28.62,504.89 -26.81,504.28 -25.00,503.67 -23.09,503.67 -21.17,503.67 -19.36,504.28 -17.55,504.89 -16.03,506.04 -14.51,507.20 -13.43,508.78 -12.36,510.37 -11.85,512.21 -11.34,514.05 -11.44,515.96 -11.55,517.87 -12.26,519.65 -12.96,521.42 -14.20,522.88 -15.44,524.34 -17.08,525.32 -18.72,526.31 -20.58,526.72 -22.45,527.13 -24.35,526.92 -26.25,526.71 -27.99,525.91 -29.72,525.11 -31.11,523.79 -32.50,522.48 -33.39,520.79 -34.29,519.10 -34.60,517.21 -34.91,515.32 -34.91,515.33 -34.91,515.33 -34.84,512.79 -34.78,510.26 -34.57,503.82 -34.36,497.39 -34.31,493.03 -34.26,488.66 -33.86,484.00 -33.46,479.34 -33.04,474.21 -32.63,469.08 -32.13,464.50 -31.63,459.93 -30.88,453.74 -30.13,447.55 -29.63,442.20 -29.13,436.84 -28.57,429.91 -28.01,422.98 -27.14,415.72 -26.27,408.46 -25.82,400.80 -25.36,393.13 -24.76,383.96 -24.17,374.79 -24.17,362.76 -24.17,350.73 -24.18,335.20 -24.18,319.67 -24.17,303.01 -24.17,286.35 -24.15,271.30 -24.13,256.25 -24.07,239.30 -24.01,222.35 -23.86,202.36 -23.70,182.37 -23.30,158.04 -22.90,133.71 -21.91,109.04 -20.91,84.38 -18.54,65.03 -16.16,45.67 -13.39,31.76 -10.62,17.86 -8.34,8.17 -6.06,-1.51 -5.79,-2.21 -5.52,-2.92 -5.09,-3.54 -4.66,-4.15 -4.09,-4.65 -3.53,-5.15 -2.86,-5.50 -2.19,-5.85 -1.46,-6.02 -0.73,-6.20 0.02,-6.20 0.77,-6.20 1.50,-6.01 2.23,-5.83 2.90,-5.48 3.56,-5.13 4.12,-4.62 4.69,-4.12 5.11,-3.50 5.54,-2.88 5.80,-2.17 6.07,-1.47 6.16,-0.72 6.24,0.02 6.15,0.76 6.06,1.51 6.06,1.51 L 6.06,1.51 Z"></path></g><g transform="translate(287.53716553645427 131.84847792282835) rotate(0 11.546646179883851 271.87103278089853)" stroke="none"><path fill="#000000" d="M 6.24,0 Q 6.24,0 6.11,12.07 5.97,24.14 5.27,42.04 4.56,59.94 4.24,76.51 3.91,93.08 3.75,112.19 3.59,131.29 3.50,149.68 3.42,168.06 3.97,186.65 4.53,205.24 5.36,222.19 6.19,239.13 7.73,254.06 9.27,268.98 9.94,281.56 10.61,294.13 11.48,306.00 12.36,317.87 14.50,329.29 16.65,340.71 18.21,353.71 19.76,366.70 21.01,377.59 22.27,388.49 22.87,396.86 23.47,405.24 23.72,413.67 23.97,422.10 25.36,429.47 26.75,436.85 27.74,442.72 28.73,448.59 29.19,455.43 29.65,462.28 30.53,468.45 31.40,474.63 31.97,480.58 32.53,486.53 32.89,492.11 33.25,497.68 33.51,503.07 33.76,508.46 34.01,513.17 34.26,517.87 34.47,522.29 34.69,526.71 35.04,534.35 35.38,541.99 35.12,543.62 34.85,545.25 34.08,546.70 33.31,548.16 32.11,549.30 30.91,550.43 29.42,551.13 27.92,551.82 26.28,552.00 24.64,552.18 23.03,551.83 21.42,551.47 20.00,550.62 18.59,549.77 17.52,548.51 16.45,547.26 15.84,545.73 15.23,544.19 15.14,542.55 15.05,540.90 15.49,539.31 15.93,537.72 16.85,536.35 17.78,534.99 19.09,533.99 20.41,532.99 21.97,532.46 23.53,531.93 25.18,531.93 26.83,531.93 28.40,532.46 29.96,532.98 31.27,533.98 32.59,534.98 33.51,536.34 34.44,537.71 34.88,539.30 35.32,540.89 35.24,542.54 35.15,544.18 34.54,545.72 33.93,547.25 32.86,548.51 31.79,549.77 30.38,550.62 28.97,551.47 27.35,551.82 25.74,552.18 24.10,552.00 22.46,551.82 20.96,551.13 19.47,550.44 18.27,549.30 17.07,548.17 16.30,546.71 15.52,545.25 15.26,543.63 14.99,542.00 14.99,542.00 14.99,542.00 15.32,534.38 15.66,526.75 15.86,522.36 16.05,517.96 16.25,513.30 16.45,508.64 16.60,503.35 16.75,498.06 16.86,492.70 16.96,487.34 16.93,481.78 16.89,476.21 16.36,469.49 15.83,462.77 15.82,456.30 15.81,449.84 15.69,444.28 15.58,438.72 14.35,430.56 13.13,422.40 12.93,414.17 12.73,405.93 12.27,397.81 11.80,389.69 10.54,378.82 9.29,367.95 7.78,355.30 6.26,342.65 4.03,330.66 1.80,318.66 0.90,306.68 0.01,294.70 -0.65,282.39 -1.32,270.09 -2.91,254.88 -4.51,239.67 -5.38,222.62 -6.25,205.58 -6.87,186.81 -7.48,168.03 -7.47,149.63 -7.46,131.23 -7.41,112.07 -7.35,92.90 -7.16,76.23 -6.98,59.55 -6.48,41.85 -5.97,24.14 -6.11,12.07 -6.24,0 -6.15,-0.74 -6.06,-1.49 -5.80,-2.19 -5.53,-2.90 -5.10,-3.52 -4.67,-4.14 -4.11,-4.64 -3.54,-5.14 -2.88,-5.49 -2.21,-5.84 -1.48,-6.02 -0.75,-6.20 0.00,-6.20 0.75,-6.20 1.48,-6.02 2.21,-5.84 2.88,-5.49 3.55,-5.14 4.11,-4.64 4.67,-4.14 5.10,-3.52 5.53,-2.90 5.80,-2.19 6.06,-1.49 6.15,-0.74 6.24,0.00 6.24,0.00 L 6.24,0 Z"></path></g><g transform="translate(576.9395510331954 116.50237704131268) rotate(0 6.298170643572917 273.9704229954232)" stroke="none"><path fill="#000000" d="M 6.24,0.29 Q 6.24,0.29 5.50,12.96 4.76,25.63 4.41,41.18 4.05,56.74 3.87,76.63 3.69,96.53 3.59,118.27 3.49,140.01 3.44,163.73 3.38,187.46 5.14,209.39 6.91,231.33 8.86,249.12 10.80,266.91 11.64,281.28 12.47,295.65 12.82,309.03 13.17,322.40 13.32,332.92 13.46,343.43 13.52,352.12 13.58,360.82 13.60,369.95 13.63,379.08 13.73,387.19 13.83,395.29 13.99,402.96 14.16,410.63 14.78,418.50 15.40,426.38 15.89,433.54 16.38,440.70 16.81,446.77 17.24,452.84 17.64,457.83 18.05,462.83 19.52,471.47 20.99,480.10 22.17,487.20 23.35,494.30 24.15,498.57 24.95,502.84 25.10,511.58 25.25,520.31 24.50,526.95 23.75,533.59 23.61,540.32 23.46,547.06 23.10,548.77 22.73,550.48 21.84,551.99 20.94,553.49 19.62,554.63 18.29,555.78 16.67,556.43 15.05,557.09 13.30,557.19 11.55,557.30 9.86,556.84 8.17,556.38 6.72,555.41 5.27,554.44 4.20,553.05 3.13,551.66 2.56,550.01 1.99,548.35 1.98,546.60 1.97,544.85 2.52,543.19 3.07,541.53 4.12,540.13 5.17,538.73 6.62,537.74 8.06,536.75 9.74,536.27 11.43,535.79 13.18,535.88 14.92,535.96 16.55,536.60 18.18,537.24 19.52,538.36 20.86,539.49 21.77,540.98 22.68,542.48 23.07,544.19 23.46,545.89 23.28,547.63 23.10,549.37 22.37,550.97 21.65,552.56 20.45,553.84 19.25,555.11 17.71,555.94 16.17,556.77 14.45,557.06 12.72,557.36 10.99,557.08 9.26,556.81 7.71,556.00 6.16,555.19 4.95,553.92 3.74,552.66 3.00,551.08 2.25,549.49 2.05,547.75 1.85,546.01 1.85,546.02 1.85,546.02 2.52,538.80 3.19,531.59 3.63,525.98 4.07,520.38 3.95,514.59 3.82,508.80 3.96,503.13 4.11,497.46 3.60,492.86 3.10,488.25 3.30,480.67 3.49,473.09 3.15,468.04 2.80,462.99 3.11,458.04 3.42,453.09 3.63,447.12 3.85,441.16 3.82,434.20 3.79,427.25 3.20,418.94 2.61,410.64 2.77,402.98 2.92,395.31 3.00,387.21 3.08,379.11 3.05,370.01 3.01,360.90 2.95,352.24 2.88,343.58 2.72,333.13 2.56,322.69 2.20,309.48 1.83,296.28 0.99,282.18 0.15,268.09 -1.84,250.14 -3.84,232.20 -5.68,209.83 -7.52,187.45 -7.54,163.72 -7.56,139.98 -7.56,118.23 -7.57,96.47 -7.53,76.51 -7.49,56.55 -7.33,40.80 -7.17,25.06 -6.70,12.38 -6.24,-0.29 -6.11,-1.03 -5.98,-1.78 -5.68,-2.47 -5.38,-3.16 -4.93,-3.76 -4.47,-4.36 -3.88,-4.83 -3.30,-5.30 -2.61,-5.62 -1.93,-5.94 -1.19,-6.08 -0.45,-6.23 0.29,-6.19 1.04,-6.16 1.76,-5.94 2.49,-5.73 3.14,-5.34 3.79,-4.96 4.32,-4.44 4.86,-3.91 5.26,-3.27 5.66,-2.63 5.89,-1.92 6.13,-1.20 6.18,-0.45 6.24,0.29 6.24,0.29 L 6.24,0.29 Z"></path></g><g transform="translate(788.1492591711801 366.02792725175914) rotate(0 -496.24356963450634 16.54052047319192)" stroke="none"><path fill="#000000" d="M -214.56,6.64 Q -214.56,6.64 -222.88,7.90 -231.19,9.15 -237.52,10.87 -243.86,12.59 -251.47,13.42 -259.08,14.24 -266.45,15.01 -273.81,15.78 -282.42,15.91 -291.02,16.04 -299.27,16.49 -307.53,16.95 -316.01,17.11 -324.49,17.27 -333.01,18.20 -341.53,19.13 -351.00,19.98 -360.48,20.83 -369.27,21.64 -378.07,22.45 -386.31,22.88 -394.55,23.31 -402.86,23.48 -411.17,23.64 -419.93,23.65 -428.70,23.66 -437.22,23.64 -445.74,23.63 -454.15,23.63 -462.57,23.63 -472.68,23.61 -482.80,23.59 -493.52,24.04 -504.24,24.50 -515.68,25.62 -527.11,26.75 -536.96,27.24 -546.81,27.73 -554.93,28.04 -563.04,28.34 -569.55,28.78 -576.05,29.22 -581.87,29.61 -587.70,30.00 -592.79,30.37 -597.88,30.73 -606.07,31.36 -614.26,31.99 -623.44,32.36 -632.63,32.72 -637.88,32.81 -643.14,32.91 -647.55,33.06 -651.96,33.21 -659.82,34.16 -667.67,35.11 -674.96,35.51 -682.25,35.91 -689.46,36.78 -696.66,37.64 -702.34,37.99 -708.01,38.33 -713.54,39.39 -719.07,40.44 -724.28,40.78 -729.48,41.13 -734.45,41.32 -739.41,41.51 -745.83,41.62 -752.25,41.73 -756.71,41.78 -761.18,41.83 -765.82,43.27 -770.46,44.71 -767.56,42.50 -764.65,40.30 -766.17,42.00 -767.68,43.70 -769.67,44.84 -771.65,45.97 -773.88,46.41 -776.12,46.85 -778.38,46.55 -780.65,46.25 -782.69,45.24 -784.74,44.24 -786.36,42.63 -787.98,41.03 -789.00,38.99 -790.03,36.95 -790.34,34.69 -790.66,32.43 -790.24,30.19 -789.82,27.95 -788.71,25.96 -787.59,23.97 -785.90,22.44 -784.21,20.91 -782.12,20.00 -780.03,19.09 -777.75,18.89 -775.48,18.70 -773.26,19.24 -771.05,19.78 -769.12,21.00 -767.19,22.22 -765.76,23.99 -764.32,25.76 -763.53,27.90 -762.73,30.04 -762.66,32.32 -762.59,34.60 -763.25,36.78 -763.91,38.97 -765.23,40.82 -766.55,42.68 -768.40,44.02 -770.25,45.36 -772.43,46.04 -774.60,46.72 -776.88,46.66 -779.17,46.61 -781.31,45.83 -783.45,45.06 -785.24,43.63 -787.02,42.21 -788.26,40.29 -789.49,38.38 -790.05,36.17 -790.61,33.95 -790.44,31.68 -790.26,29.41 -789.37,27.31 -788.48,25.21 -788.48,25.21 -788.48,25.21 -784.14,21.95 -779.79,18.70 -775.17,17.24 -770.54,15.78 -765.97,15.09 -761.40,14.40 -756.82,14.45 -752.25,14.49 -747.85,14.56 -743.45,14.63 -738.88,14.76 -734.32,14.89 -729.20,15.14 -724.08,15.38 -719.71,15.45 -715.35,15.53 -709.73,15.07 -704.11,14.62 -697.96,14.56 -691.81,14.51 -683.89,14.15 -675.97,13.79 -669.00,13.82 -662.03,13.85 -657.00,13.47 -651.97,13.09 -647.56,13.24 -643.14,13.40 -637.88,13.49 -632.63,13.58 -623.45,13.94 -614.27,14.31 -606.10,14.92 -597.93,15.53 -592.86,15.86 -587.79,16.19 -582.00,16.50 -576.22,16.82 -569.77,17.08 -563.33,17.34 -555.34,17.23 -547.35,17.12 -537.76,16.63 -528.17,16.14 -516.44,14.96 -504.72,13.78 -493.76,13.28 -482.81,12.78 -472.70,12.74 -462.58,12.71 -454.18,12.69 -445.77,12.67 -437.28,12.59 -428.78,12.52 -420.08,12.40 -411.39,12.27 -403.22,12.12 -395.06,11.97 -387.11,11.67 -379.16,11.36 -370.38,10.43 -361.59,9.50 -352.27,8.50 -342.94,7.49 -333.91,6.30 -324.87,5.10 -316.66,4.75 -308.45,4.39 -299.99,3.62 -291.53,2.85 -283.38,2.33 -275.24,1.82 -267.80,1.08 -260.37,0.33 -253.67,-0.16 -246.98,-0.66 -240.17,-2.05 -233.36,-3.44 -225.11,-5.04 -216.85,-6.64 -216.04,-6.68 -215.23,-6.73 -214.43,-6.57 -213.63,-6.41 -212.89,-6.07 -212.16,-5.73 -211.52,-5.22 -210.89,-4.71 -210.39,-4.07 -209.90,-3.42 -209.57,-2.68 -209.24,-1.93 -209.11,-1.13 -208.97,-0.33 -209.03,0.47 -209.08,1.28 -209.33,2.06 -209.59,2.83 -210.01,3.52 -210.44,4.21 -211.02,4.78 -211.60,5.35 -212.30,5.76 -213.01,6.18 -213.78,6.41 -214.56,6.64 -214.56,6.64 L -214.56,6.64 Z"></path></g><g transform="translate(37.66722356213836 111.67516477272784) rotate(0 264.2107855842894 7.299826461932753)" stroke="none"><path fill="#000000" d="M 1.12,-6.73 Q 1.12,-6.73 6.96,-6.03 12.80,-5.34 19.22,-4.09 25.63,-2.83 34.27,-1.99 42.92,-1.16 54.83,0.30 66.74,1.77 79.08,2.78 91.41,3.79 102.57,4.93 113.72,6.06 122.04,6.57 130.35,7.07 138.41,7.23 146.47,7.39 154.57,7.76 162.66,8.12 169.72,8.09 176.78,8.05 184.73,8.14 192.69,8.23 199.80,8.10 206.91,7.97 214.48,7.94 222.05,7.92 229.41,7.86 236.77,7.79 243.88,7.40 251.00,7.01 258.44,6.28 265.89,5.54 274.32,5.34 282.75,5.14 289.62,4.82 296.48,4.50 303.39,4.02 310.30,3.54 317.12,3.25 323.93,2.95 329.31,2.60 334.68,2.25 339.88,1.97 345.07,1.70 349.35,1.42 353.62,1.14 357.93,0.91 362.23,0.69 366.91,0.83 371.59,0.98 377.19,1.41 382.79,1.85 388.23,2.02 393.66,2.19 400.34,2.73 407.02,3.28 412.95,3.47 418.89,3.67 423.49,3.59 428.09,3.51 435.88,3.22 443.66,2.94 448.57,2.90 453.48,2.86 458.05,2.78 462.62,2.71 470.22,1.78 477.82,0.85 484.22,0.29 490.62,-0.25 496.56,-0.93 502.50,-1.60 507.27,-1.90 512.04,-2.19 517.12,-2.42 522.20,-2.66 524.74,-2.70 527.29,-2.75 529.34,-2.41 531.40,-2.08 533.24,-1.10 535.07,-0.13 536.51,1.37 537.94,2.88 538.81,4.77 539.69,6.66 539.91,8.72 540.14,10.79 539.69,12.83 539.25,14.86 538.17,16.64 537.10,18.43 535.52,19.77 533.93,21.12 532.00,21.89 530.07,22.66 527.99,22.78 525.91,22.89 523.90,22.33 521.90,21.78 520.18,20.61 518.45,19.44 517.19,17.79 515.93,16.13 515.27,14.16 514.60,12.19 514.60,10.11 514.60,8.03 515.27,6.05 515.93,4.08 517.19,2.42 518.45,0.77 520.17,-0.39 521.89,-1.56 523.90,-2.12 525.90,-2.67 527.98,-2.56 530.06,-2.45 531.99,-1.68 533.92,-0.91 535.51,0.43 537.10,1.77 538.17,3.56 539.24,5.34 539.69,7.37 540.14,9.40 539.91,11.47 539.69,13.54 538.82,15.43 537.94,17.32 536.51,18.83 535.08,20.34 533.24,21.32 531.40,22.29 529.35,22.63 527.30,22.97 527.30,22.97 527.30,22.97 521.15,22.79 515.01,22.61 509.51,22.44 504.00,22.27 497.64,22.61 491.28,22.96 485.76,22.96 480.24,22.96 475.88,23.36 471.52,23.76 467.07,23.99 462.62,24.22 458.04,24.15 453.45,24.07 448.52,24.02 443.58,23.97 435.68,23.59 427.78,23.22 423.06,22.99 418.35,22.77 412.09,22.61 405.83,22.46 399.41,22.20 392.98,21.93 387.07,21.71 381.17,21.49 371.71,20.51 362.25,19.53 357.96,19.32 353.68,19.10 349.42,18.85 345.17,18.60 340.03,18.38 334.89,18.16 329.59,17.95 324.29,17.74 317.68,17.77 311.07,17.79 303.92,18.08 296.77,18.37 290.03,18.33 283.28,18.29 275.28,18.76 267.29,19.22 259.45,20.05 251.61,20.88 244.18,21.13 236.76,21.38 229.40,21.31 222.03,21.23 214.44,21.18 206.85,21.13 199.71,20.94 192.57,20.75 184.53,20.69 176.48,20.64 169.28,20.26 162.08,19.88 154.15,19.45 146.21,19.01 137.99,18.82 129.77,18.62 121.21,18.27 112.65,17.91 101.61,17.05 90.58,16.18 77.98,15.51 65.39,14.83 53.71,13.87 42.02,12.90 32.16,12.56 22.30,12.22 16.33,10.72 10.37,9.22 4.62,7.97 -1.12,6.73 -1.91,6.49 -2.70,6.26 -3.41,5.85 -4.12,5.43 -4.71,4.86 -5.30,4.29 -5.74,3.59 -6.17,2.89 -6.43,2.11 -6.69,1.33 -6.75,0.51 -6.81,-0.30 -6.68,-1.11 -6.54,-1.92 -6.21,-2.68 -5.89,-3.43 -5.39,-4.09 -4.89,-4.74 -4.25,-5.26 -3.62,-5.78 -2.87,-6.13 -2.13,-6.48 -1.32,-6.64 -0.51,-6.80 0.30,-6.76 1.12,-6.73 1.12,-6.73 L 1.12,-6.73 Z"></path></g><g transform="translate(805.6688913047151 665.6769359355048) rotate(0 -510.3136987072693 0.7580233455109919)" stroke="none"><path fill="#000000" d="M -224.48,5.27 Q -224.48,5.27 -233.15,5.79 -241.82,6.31 -252.05,6.83 -262.27,7.34 -277.98,7.53 -293.68,7.72 -310.73,7.78 -327.77,7.84 -348.00,7.84 -368.22,7.85 -389.89,7.19 -411.56,6.52 -429.35,6.23 -447.14,5.94 -459.46,5.81 -471.79,5.68 -480.49,5.62 -489.18,5.56 -498.50,5.53 -507.82,5.51 -516.55,5.49 -525.27,5.48 -535.04,5.47 -544.81,5.46 -554.15,5.46 -563.50,5.45 -572.33,5.12 -581.17,4.79 -592.25,4.32 -603.34,3.84 -611.03,3.82 -618.73,3.79 -625.45,4.00 -632.17,4.22 -638.48,4.48 -644.79,4.73 -651.37,4.91 -657.95,5.08 -664.21,5.27 -670.46,5.47 -676.59,5.64 -682.71,5.81 -688.34,6.01 -693.98,6.21 -698.53,6.47 -703.09,6.73 -710.92,7.19 -718.74,7.65 -723.11,7.81 -727.47,7.96 -732.35,8.30 -737.22,8.63 -743.60,10.00 -749.97,11.37 -756.59,12.15 -763.20,12.93 -768.03,13.69 -772.86,14.45 -778.05,15.23 -783.25,16.01 -790.17,15.67 -797.09,15.34 -799.05,14.62 -801.02,13.90 -802.64,12.59 -804.27,11.29 -805.40,9.53 -806.53,7.77 -807.03,5.74 -807.54,3.72 -807.37,1.63 -807.20,-0.44 -806.38,-2.36 -805.56,-4.28 -804.16,-5.83 -802.77,-7.39 -800.95,-8.42 -799.14,-9.45 -797.08,-9.84 -795.03,-10.24 -792.96,-9.96 -790.90,-9.68 -789.02,-8.75 -787.15,-7.82 -785.67,-6.35 -784.20,-4.87 -783.27,-3.00 -782.34,-1.13 -782.05,0.93 -781.77,3.00 -782.16,5.05 -782.55,7.10 -783.58,8.92 -784.61,10.74 -786.16,12.13 -787.71,13.53 -789.63,14.35 -791.55,15.18 -793.63,15.35 -795.71,15.52 -797.74,15.02 -799.76,14.52 -801.53,13.39 -803.29,12.27 -804.60,10.64 -805.90,9.02 -806.63,7.06 -807.35,5.10 -807.41,3.01 -807.46,0.92 -806.85,-1.06 -806.24,-3.06 -805.02,-4.76 -803.81,-6.45 -802.11,-7.67 -800.42,-8.89 -798.42,-9.51 -796.42,-10.12 -794.34,-10.07 -792.25,-10.01 -792.25,-10.01 -792.25,-10.01 -788.45,-9.65 -784.65,-9.28 -777.55,-9.65 -770.46,-10.01 -764.70,-10.45 -758.95,-10.89 -752.96,-11.24 -746.98,-11.60 -742.20,-12.21 -737.43,-12.83 -732.45,-12.50 -727.47,-12.16 -723.11,-12.01 -718.74,-11.85 -710.92,-11.39 -703.09,-10.93 -698.53,-10.67 -693.97,-10.41 -688.34,-10.20 -682.70,-10.00 -676.58,-9.82 -670.45,-9.64 -664.18,-9.44 -657.91,-9.24 -651.31,-9.03 -644.72,-8.82 -638.36,-8.50 -632.01,-8.17 -625.23,-7.78 -618.44,-7.40 -610.67,-7.03 -602.89,-6.66 -591.83,-6.19 -580.77,-5.73 -572.14,-5.40 -563.50,-5.07 -554.15,-5.08 -544.80,-5.08 -535.03,-5.08 -525.26,-5.08 -516.53,-5.07 -507.80,-5.07 -498.46,-5.06 -489.12,-5.04 -480.41,-5.01 -471.69,-4.97 -459.33,-4.87 -446.98,-4.77 -429.11,-4.51 -411.24,-4.26 -389.74,-3.65 -368.25,-3.05 -348.04,-3.13 -327.84,-3.22 -310.85,-3.38 -293.87,-3.54 -278.42,-3.86 -262.96,-4.19 -252.84,-4.89 -242.72,-5.60 -234.07,-6.39 -225.43,-7.18 -224.67,-7.15 -223.92,-7.11 -223.20,-6.90 -222.48,-6.69 -221.83,-6.31 -221.18,-5.93 -220.63,-5.40 -220.09,-4.88 -219.69,-4.24 -219.30,-3.60 -219.06,-2.89 -218.83,-2.17 -218.77,-1.42 -218.71,-0.67 -218.84,0.06 -218.96,0.81 -219.26,1.50 -219.56,2.19 -220.01,2.79 -220.47,3.39 -221.05,3.86 -221.64,4.34 -222.32,4.66 -223.00,4.98 -223.74,5.12 -224.48,5.27 -224.48,5.27 L -224.48,5.27 Z"></path></g><g stroke-linecap="round" transform="translate(122.31910781567012 245.1793834105365) rotate(0 22.09309267314984 23.652605097136984)"><path d="M7.06 -3.94 L32.75 -3.51 L42.66 2.49 L41.22 9.75 L45.04 38.71 L39.04 45.27 L29.86 43.95 L12.43 50.62 L0.8 40.97 L-2.32 35.19 L1.97 7.81 L3.91 2.48 L13.32 1.65" stroke="none" stroke-width="0" fill="#228be6"></path><path d="M11.05 0 M11.05 0 C21.31 -1.23, 27.88 1.28, 33.14 0 M11.05 0 C15.65 1.88, 21.64 1.53, 33.14 0 M33.14 0 C44.29 3.51, 47.01 0.18, 44.19 11.05 M33.14 0 C43.44 3.87, 42.49 5.86, 44.19 11.05 M44.19 11.05 C44.72 19.83, 46.13 24.07, 44.19 36.26 M44.19 11.05 C45.31 20.78, 44.9 29.9, 44.19 36.26 M44.19 36.26 C44.49 44.41, 42.78 50.08, 33.14 47.31 M44.19 36.26 C40.83 42.15, 37.21 51.24, 33.14 47.31 M33.14 47.31 C23.39 49.51, 19.05 50.23, 11.05 47.31 M33.14 47.31 C27.5 49.24, 17.26 47.32, 11.05 47.31 M11.05 47.31 C3.64 43.78, 3.45 43.17, 0 36.26 M11.05 47.31 C5.63 45.18, -1.85 47.94, 0 36.26 M0 36.26 C-1.97 27.23, 0.23 27.15, 0 11.05 M0 36.26 C1.5 29.3, -1.75 19.2, 0 11.05 M0 11.05 C2.01 4.32, -0.28 0.86, 11.05 0 M0 11.05 C-1.54 7.8, 2.81 -3.96, 11.05 0" stroke="#000000" stroke-width="4" fill="none"></path></g><g stroke-linecap="round" transform="translate(116.7855282211874 221.78669705073025) rotate(0 27.551386157104616 14.295530553214576)"><path d="M3.21 -0.39 L47.57 1.69 L54.39 1.06 L53.36 25.42 L50.4 26.21 L4.74 24.87 L-2.91 25.96 L3.31 5.18 L-1.79 -0.53 L6.07 1.28" stroke="none" stroke-width="0" fill="#228be6"></path><path d="M7.15 0 M7.15 0 C23.3 1.71, 34.66 1.57, 47.96 0 M7.15 0 C21.45 0.89, 30.31 0.66, 47.96 0 M47.96 0 C50.62 -0.51, 58.4 4.14, 55.1 7.15 M47.96 0 C55.7 4.36, 59.14 5.63, 55.1 7.15 M55.1 7.15 C54.23 11.54, 54.91 12.13, 55.1 21.44 M55.1 7.15 C55.92 9.75, 56.1 13.05, 55.1 21.44 M55.1 21.44 C56.44 28.7, 53.72 30.26, 47.96 28.59 M55.1 21.44 C55.98 26.55, 53.62 31.21, 47.96 28.59 M47.96 28.59 C30.02 31.75, 17.03 31.53, 7.15 28.59 M47.96 28.59 C37.1 30.67, 28.58 30.98, 7.15 28.59 M7.15 28.59 C6.2 31.97, 3.02 23.78, 0 21.44 M7.15 28.59 C1.44 28.54, -4.05 30.18, 0 21.44 M0 21.44 C-1.27 20, -2.46 14.76, 0 7.15 M0 21.44 C0.3 17.59, 0.63 12.27, 0 7.15 M0 7.15 C2.61 5.31, 5.4 -3.59, 7.15 0 M0 7.15 C-0.28 4.69, 3.12 -4.56, 7.15 0" stroke="#000000" stroke-width="4" fill="none"></path></g><g transform="translate(133.4203274103827 235.30247139195217) rotate(0 0.000023392686330225843 0.000023392686216539005)" stroke="none"><path fill="#000000" d="M 6.28,-6.28 Q 6.28,-6.28 7.11,-5.11 7.95,-3.94 8.37,-2.57 8.80,-1.19 8.76,0.23 8.72,1.67 8.22,3.02 7.73,4.37 6.83,5.49 5.93,6.61 4.72,7.38 3.50,8.15 2.11,8.50 0.72,8.85 -0.71,8.73 -2.14,8.61 -3.46,8.05 -4.78,7.48 -5.85,6.52 -6.92,5.56 -7.63,4.31 -8.33,3.06 -8.60,1.65 -8.87,0.23 -8.68,-1.18 -8.49,-2.60 -7.85,-3.89 -7.21,-5.18 -6.19,-6.19 -5.18,-7.21 -3.89,-7.85 -2.60,-8.49 -1.18,-8.68 0.24,-8.87 1.65,-8.60 3.06,-8.33 4.31,-7.62 5.56,-6.92 6.52,-5.85 7.48,-4.78 8.05,-3.46 8.62,-2.14 8.73,-0.70 8.85,0.72 8.50,2.11 8.15,3.51 7.38,4.72 6.61,5.93 5.48,6.83 4.36,7.73 3.02,8.22 1.67,8.72 0.23,8.76 -1.20,8.80 -2.57,8.37 -3.94,7.95 -5.11,7.11 -6.28,6.27 -6.28,6.27 -6.28,6.28 -6.94,5.43 -7.60,4.59 -8.04,3.61 -8.48,2.64 -8.67,1.58 -8.86,0.53 -8.80,-0.53 -8.73,-1.60 -8.41,-2.62 -8.09,-3.64 -7.54,-4.56 -6.99,-5.47 -6.23,-6.23 -5.47,-6.99 -4.56,-7.54 -3.64,-8.10 -2.62,-8.41 -1.60,-8.73 -0.53,-8.80 0.53,-8.86 1.59,-8.67 2.64,-8.48 3.61,-8.04 4.59,-7.60 5.43,-6.94 6.28,-6.28 6.28,-6.28 L 6.28,-6.28 Z"></path></g><g transform="translate(157.33285124485064 234.7826339172907) rotate(0 0.000023392686330225843 0.000023392686216539005)" stroke="none"><path fill="#000000" d="M 6.28,-6.28 Q 6.28,-6.28 7.11,-5.11 7.95,-3.94 8.37,-2.57 8.80,-1.19 8.76,0.23 8.72,1.67 8.22,3.02 7.73,4.37 6.83,5.49 5.93,6.61 4.72,7.38 3.50,8.15 2.11,8.50 0.72,8.85 -0.71,8.73 -2.14,8.61 -3.46,8.05 -4.78,7.48 -5.85,6.52 -6.92,5.56 -7.63,4.31 -8.33,3.06 -8.60,1.65 -8.87,0.23 -8.68,-1.18 -8.49,-2.60 -7.85,-3.89 -7.21,-5.18 -6.19,-6.19 -5.18,-7.21 -3.89,-7.85 -2.60,-8.49 -1.18,-8.68 0.24,-8.87 1.65,-8.60 3.06,-8.33 4.31,-7.62 5.56,-6.92 6.52,-5.85 7.48,-4.78 8.05,-3.46 8.62,-2.14 8.73,-0.70 8.85,0.72 8.50,2.11 8.15,3.51 7.38,4.72 6.61,5.93 5.48,6.83 4.36,7.73 3.02,8.22 1.67,8.72 0.23,8.76 -1.20,8.80 -2.57,8.37 -3.94,7.95 -5.11,7.11 -6.28,6.27 -6.28,6.27 -6.28,6.28 -6.94,5.43 -7.60,4.59 -8.04,3.61 -8.48,2.64 -8.67,1.58 -8.86,0.53 -8.80,-0.53 -8.73,-1.60 -8.41,-2.62 -8.09,-3.64 -7.54,-4.56 -6.99,-5.47 -6.23,-6.23 -5.47,-6.99 -4.56,-7.54 -3.64,-8.10 -2.62,-8.41 -1.60,-8.73 -0.53,-8.80 0.53,-8.86 1.59,-8.67 2.64,-8.48 3.61,-8.04 4.59,-7.60 5.43,-6.94 6.28,-6.28 6.28,-6.28 L 6.28,-6.28 Z"></path></g><g transform="translate(145.37658932761678 221.26685957606878) rotate(0 0.25991873733119064 -8.057480857266455)" stroke="none"><path fill="#000000" d="M -5.16,0.46 Q -5.16,0.46 -5.39,-1.16 -5.62,-2.80 -5.71,-5.79 -5.79,-8.77 -5.33,-12.80 -4.86,-16.83 -4.53,-17.73 -4.19,-18.63 -3.59,-19.38 -2.99,-20.12 -2.17,-20.64 -1.36,-21.15 -0.43,-21.38 0.49,-21.61 1.45,-21.53 2.41,-21.44 3.29,-21.06 4.17,-20.68 4.88,-20.04 5.59,-19.39 6.06,-18.55 6.53,-17.72 6.71,-16.77 6.89,-15.83 6.75,-14.88 6.62,-13.93 6.19,-13.07 5.76,-12.21 5.08,-11.53 4.40,-10.85 3.53,-10.43 2.67,-10.01 1.72,-9.88 0.77,-9.76 -0.16,-9.94 -1.11,-10.13 -1.94,-10.60 -2.77,-11.08 -3.41,-11.79 -4.05,-12.51 -4.43,-13.40 -4.80,-14.28 -4.88,-15.24 -4.95,-16.19 -4.72,-17.13 -4.48,-18.06 -3.96,-18.86 -3.44,-19.67 -2.69,-20.27 -1.94,-20.87 -1.04,-21.20 -0.13,-21.52 0.82,-21.55 1.78,-21.57 2.69,-21.28 3.61,-21.00 4.39,-20.43 5.17,-19.87 5.72,-19.09 6.28,-18.31 6.56,-17.39 6.84,-16.47 6.81,-15.51 6.78,-14.55 6.78,-14.55 6.78,-14.55 6.23,-12.14 5.68,-9.73 5.35,-6.75 5.02,-3.77 5.09,-2.12 5.16,-0.46 5.14,0.15 5.12,0.77 4.95,1.38 4.78,1.98 4.48,2.52 4.17,3.07 3.74,3.52 3.31,3.98 2.79,4.31 2.26,4.65 1.67,4.86 1.08,5.06 0.46,5.12 -0.15,5.17 -0.77,5.08 -1.39,4.99 -1.96,4.75 -2.54,4.51 -3.04,4.14 -3.55,3.77 -3.95,3.29 -4.35,2.81 -4.62,2.25 -4.89,1.69 -5.02,1.07 -5.16,0.46 -5.16,0.46 L -5.16,0.46 Z"></path></g><g stroke-linecap="round" transform="translate(143.29723942896726 196.3146607922772) rotate(0 5.198374746623472 3.119024847973833)"><path d="M7.09 2.43 C8.13 3.18, 9.67 4.09, 9.93 4.17 C10.18 4.24, 8.9 2.72, 8.61 2.89 C8.33 3.06, 8.82 4.57, 8.22 5.2 C7.62 5.83, 5.96 6.46, 5.02 6.69 C4.08 6.92, 3.14 7.03, 2.6 6.6 C2.06 6.17, 2.09 5.14, 1.76 4.1 C1.44 3.05, 0.06 1.3, 0.63 0.33 C1.19 -0.65, 3.24 -2.17, 5.16 -1.76 C7.07 -1.35, 11.39 1.77, 12.12 2.8 C12.85 3.83, 10.04 4.07, 9.54 4.42 M0.13 -1.66 C0.6 -2, 3.45 1.12, 4.95 1.44 C6.45 1.76, 7.91 -0.23, 9.11 0.27 C10.31 0.76, 11.61 4.17, 12.13 4.41 C12.65 4.64, 13.04 1.15, 12.24 1.65 C11.45 2.15, 8.66 7.15, 7.37 7.41 C6.08 7.66, 5.45 3.76, 4.5 3.19 C3.56 2.62, 1.99 4.12, 1.69 3.99 C1.39 3.85, 3.17 3.17, 2.69 2.38 C2.21 1.6, -0.58 -0.75, -1.18 -0.72 C-1.79 -0.7, -1.82 2.55, -0.93 2.54" stroke="none" stroke-width="0" fill="#228be6"></path><path d="M6.55 -1.11 C7.76 -0.56, 10.52 3.34, 10.91 3.97 C11.31 4.6, 9.7 2.41, 8.92 2.65 C8.14 2.89, 6.97 4.7, 6.23 5.41 C5.49 6.12, 5.27 7.04, 4.49 6.93 C3.7 6.82, 2.06 5.31, 1.51 4.76 C0.96 4.22, 1.18 4.19, 1.16 3.67 C1.14 3.15, 0.8 1.96, 1.41 1.67 C2.02 1.37, 3.5 1.54, 4.82 1.89 C6.14 2.24, 8.32 3.77, 9.34 3.77 C10.35 3.76, 10.81 2.35, 10.9 1.87 M6.48 2.87 C7.55 2.88, 10.47 2.4, 10.64 2.61 C10.82 2.82, 7.23 4.01, 7.54 4.11 C7.85 4.21, 12.28 2.99, 12.52 3.22 C12.76 3.45, 10.6 5.42, 9 5.5 C7.4 5.58, 4.14 3.59, 2.91 3.7 C1.68 3.82, 1.83 6.47, 1.61 6.17 C1.39 5.87, 1.31 2.87, 1.61 1.89 C1.9 0.91, 2.71 0.31, 3.37 0.31 C4.02 0.31, 5.22 1.72, 5.54 1.89 C5.87 2.06, 5.36 1.56, 5.3 1.34" stroke="#000000" stroke-width="2" fill="none"></path></g><g stroke-linecap="round" transform="translate(121.22798226873783 502.74205426915523) rotate(0 29.340809991248875 26.798033454755114)"><path d="M1.97 26.89 C1.97 26.89, 1.97 26.89, 1.97 26.89 M1.97 26.89 C1.97 26.89, 1.97 26.89, 1.97 26.89 M14.05 37.39 C22.03 29.74, 32.46 17.45, 39.63 7.95 M14.05 37.39 C22.07 28.88, 31.96 15.41, 39.63 7.95 M26.12 47.88 C37.49 40.76, 44.57 33.83, 50.4 19.96 M26.12 47.88 C36.42 39.16, 43.82 27.59, 50.4 19.96" stroke="#e64980" stroke-width="2" fill="none"></path><path d="M37.5 6.75 M37.5 6.75 C42.02 12.33, 47.3 13.33, 51.18 20.25 M37.5 6.75 C43.64 12.08, 48.26 16.92, 51.18 20.25 M51.18 20.25 C58.98 27.78, 60.96 29.78, 51.18 33.75 M51.18 20.25 C55.32 25.53, 55.39 30.94, 51.18 33.75 M51.18 33.75 C44.19 39.6, 42.11 43.94, 37.5 46.85 M51.18 33.75 C48.49 39.79, 41.2 42.32, 37.5 46.85 M37.5 46.85 C29.95 50.07, 33.45 53.15, 22.5 46.85 M37.5 46.85 C31.95 51.47, 28.15 57.91, 22.5 46.85 M22.5 46.85 C17.4 40.53, 16.32 43.07, 7.5 33.75 M22.5 46.85 C18.94 44.15, 10.66 38.12, 7.5 33.75 M7.5 33.75 C2.01 27.64, -3.96 27.86, 7.5 20.25 M7.5 33.75 C-1.54 31.12, -0.88 23.04, 7.5 20.25 M7.5 20.25 C14.49 14.16, 15.92 13.19, 22.5 6.75 M7.5 20.25 C12.3 16.89, 17.08 10.16, 22.5 6.75 M22.5 6.75 C27.37 0.48, 26.75 0.55, 37.5 6.75 M22.5 6.75 C26.11 3.85, 32.73 -3.97, 37.5 6.75" stroke="#000000" stroke-width="4" fill="none"></path></g><g stroke-linecap="round" transform="translate(408.7661536447956 501.7113193782434) rotate(0 26.57518245978872 26.809945438573777)"><path d="M12.62 5.67 C12.62 5.67, 12.62 5.67, 12.62 5.67 M12.62 5.67 C12.62 5.67, 12.62 5.67, 12.62 5.67 M2.75 43.31 C9.5 32.02, 22.17 18.1, 31 5.35 M5.66 41.02 C16.09 25.76, 24.94 16.51, 34.85 2.86 M14.35 48.12 C24.29 34.87, 39.76 28.35, 47.23 12.48 M13.26 50.96 C26.02 38.45, 34.33 26.78, 50.13 9.94 M36.12 51.06 C38.07 46.27, 46.76 36.52, 58.09 26.25 M32.55 55.85 C36 47.68, 42.95 44.54, 56.02 28.83" stroke="#82c91e" stroke-width="2" fill="none"></path><path d="M32.04 2.09 C37.53 2.72, 42.73 3.86, 46.05 7.92 C49.38 11.97, 51.75 20.26, 51.99 26.44 C52.23 32.61, 50.87 40.52, 47.47 44.97 C44.07 49.41, 37.14 52.13, 31.6 53.1 C26.07 54.07, 19.32 53.53, 14.29 50.77 C9.26 48.02, 3.52 41.82, 1.43 36.58 C-0.67 31.35, -0.17 24.56, 1.73 19.37 C3.63 14.18, 6.5 8.41, 12.82 5.43 C19.14 2.45, 34.18 1.19, 39.63 1.5 C45.07 1.81, 45.86 6.34, 45.5 7.28 M40.53 4.67 C44.8 6.53, 45.71 12.81, 48.08 17.48 C50.45 22.16, 55.57 27.58, 54.75 32.74 C53.93 37.9, 48.45 45.38, 43.16 48.43 C37.87 51.49, 28.84 51.31, 23.02 51.05 C17.2 50.79, 11.82 50.71, 8.26 46.86 C4.71 43.01, 1.93 34, 1.69 27.97 C1.46 21.93, 3.67 14.86, 6.85 10.66 C10.03 6.45, 15.5 3.9, 20.79 2.76 C26.09 1.61, 35.73 3.72, 38.64 3.8 C41.55 3.89, 38.46 2.78, 38.24 3.26" stroke="#000000" stroke-width="4" fill="none"></path></g><g transform="translate(814.0780619699842 157.11346129713365) rotate(0 23 22.5)"><text x="0" y="32" font-family="Virgil, Segoe UI Emoji" font-size="36px" fill="#000000" text-anchor="start" style="white-space: pre;" direction="ltr">0.1</text></g><g transform="translate(1050.9067967252593 158.58366788471812) rotate(0 29.5 22.5)"><text x="0" y="32" font-family="Virgil, Segoe UI Emoji" font-size="36px" fill="#5c940d" text-anchor="start" style="white-space: pre;" direction="ltr">0.5</text></g><g transform="translate(1080.2829619953266 413.75411341737436) rotate(0 23 22.5)"><text x="0" y="32" font-family="Virgil, Segoe UI Emoji" font-size="36px" fill="#5c940d" text-anchor="start" style="white-space: pre;" direction="ltr">1.0</text></g><g transform="translate(799.0482685575698 418.41240263999407) rotate(0 30.500000000000114 22.5)"><text x="0" y="32" font-family="Virgil, Segoe UI Emoji" font-size="36px" fill="#c92a2a" text-anchor="start" style="white-space: pre;" direction="ltr">-1.0</text></g><g stroke-linecap="round"><g transform="translate(173.34274176201757 255.87516236517877) rotate(0 21.46728094360003 0.11455207902235998)"><path d="M0 0 C7.16 0.04, 35.78 0.19, 42.93 0.23 M0 0 C7.16 0.04, 35.78 0.19, 42.93 0.23" stroke="#5c940d" stroke-width="4" fill="none"></path></g><g transform="translate(173.34274176201757 255.87516236517877) rotate(0 21.46728094360003 0.11455207902235998)"><path d="M22.72 7.46 C30.46 4.69, 38.21 1.92, 42.93 0.23 M22.72 7.46 C27.36 5.8, 32 4.14, 42.93 0.23" stroke="#5c940d" stroke-width="4" fill="none"></path></g><g transform="translate(173.34274176201757 255.87516236517877) rotate(0 21.46728094360003 0.11455207902235998)"><path d="M22.8 -7.22 C30.51 -4.37, 38.23 -1.51, 42.93 0.23 M22.8 -7.22 C27.42 -5.51, 32.05 -3.8, 42.93 0.23" stroke="#5c940d" stroke-width="4" fill="none"></path></g></g><mask></mask><g stroke-linecap="round"><g transform="translate(429.844157141677 260.715786453864) rotate(0 1.5940413175170534 28.69274371530628)"><path d="M0 0 C0.53 9.56, 2.66 47.82, 3.19 57.39 M0 0 C0.53 9.56, 2.66 47.82, 3.19 57.39" stroke="#5c940d" stroke-width="4" fill="none"></path></g><g transform="translate(429.844157141677 260.715786453864) rotate(0 1.5940413175170534 28.69274371530628)"><path d="M-8.12 30.97 C-3.65 41.41, 0.82 51.85, 3.19 57.39 M-8.12 30.97 C-5.57 36.93, -3.02 42.9, 3.19 57.39" stroke="#5c940d" stroke-width="4" fill="none"></path></g><g transform="translate(429.844157141677 260.715786453864) rotate(0 1.5940413175170534 28.69274371530628)"><path d="M11.5 29.88 C8.22 40.75, 4.93 51.62, 3.19 57.39 M11.5 29.88 C9.63 36.09, 7.75 42.3, 3.19 57.39" stroke="#5c940d" stroke-width="4" fill="none"></path></g></g><mask></mask><g stroke-linecap="round"><g transform="translate(141.59657483665774 297.9001800057922) rotate(0 -0.8100197305400343 19.01891505003732)"><path d="M0 0 C-0.27 6.34, -1.35 31.7, -1.62 38.04 M0 0 C-0.27 6.34, -1.35 31.7, -1.62 38.04" stroke="#000000" stroke-width="4" fill="none"></path></g><g transform="translate(141.59657483665774 297.9001800057922) rotate(0 -0.8100197305400343 19.01891505003732)"><path d="M-7.36 19.89 C-5.89 24.55, -4.41 29.22, -1.62 38.04 M-7.36 19.89 C-5.5 25.77, -3.64 31.65, -1.62 38.04" stroke="#000000" stroke-width="4" fill="none"></path></g><g transform="translate(141.59657483665774 297.9001800057922) rotate(0 -0.8100197305400343 19.01891505003732)"><path d="M5.65 20.44 C3.78 24.97, 1.91 29.49, -1.62 38.04 M5.65 20.44 C3.29 26.14, 0.94 31.84, -1.62 38.04" stroke="#000000" stroke-width="4" fill="none"></path></g></g><mask></mask><g stroke-linecap="round"><g transform="translate(425.91218855846614 247.96345591372756) rotate(0 -21.147614812391225 -0.2731428089355177)"><path d="M0 0 C-7.05 -0.09, -35.25 -0.46, -42.3 -0.55 M0 0 C-7.05 -0.09, -35.25 -0.46, -42.3 -0.55" stroke="#000000" stroke-width="4" fill="none"></path></g><g transform="translate(425.91218855846614 247.96345591372756) rotate(0 -21.147614812391225 -0.2731428089355177)"><path d="M-22.33 -7.52 C-28.7 -5.3, -35.07 -3.07, -42.3 -0.55 M-22.33 -7.52 C-27.72 -5.64, -33.12 -3.75, -42.3 -0.55" stroke="#000000" stroke-width="4" fill="none"></path></g><g transform="translate(425.91218855846614 247.96345591372756) rotate(0 -21.147614812391225 -0.2731428089355177)"><path d="M-22.52 6.94 C-28.83 4.55, -35.14 2.16, -42.3 -0.55 M-22.52 6.94 C-27.86 4.92, -33.21 2.9, -42.3 -0.55" stroke="#000000" stroke-width="4" fill="none"></path></g></g><mask></mask><g stroke-linecap="round"><g transform="translate(431.4381984591939 249.55749723124427) rotate(0 24.707640421513815 -0.9615033789746121)"><path d="M0 0 C8.24 -0.32, 41.18 -1.6, 49.42 -1.92 M0 0 C8.24 -0.32, 41.18 -1.6, 49.42 -1.92" stroke="#000000" stroke-width="4" fill="none"></path></g><g transform="translate(431.4381984591939 249.55749723124427) rotate(0 24.707640421513815 -0.9615033789746121)"><path d="M26.53 7.43 C35.34 3.83, 44.16 0.23, 49.42 -1.92 M26.53 7.43 C31.36 5.45, 36.2 3.48, 49.42 -1.92" stroke="#000000" stroke-width="4" fill="none"></path></g><g transform="translate(431.4381984591939 249.55749723124427) rotate(0 24.707640421513815 -0.9615033789746121)"><path d="M25.87 -9.47 C34.94 -6.56, 44 -3.66, 49.42 -1.92 M25.87 -9.47 C30.85 -7.87, 35.82 -6.28, 49.42 -1.92" stroke="#000000" stroke-width="4" fill="none"></path></g></g><mask></mask><g stroke-linecap="round"><g transform="translate(428.2501158241598 238.39920800862546) rotate(0 0 -27.895723056547922)"><path d="M0 0 C0 -9.3, 0 -46.49, 0 -55.79 M0 0 C0 -9.3, 0 -46.49, 0 -55.79" stroke="#000000" stroke-width="4" fill="none"></path></g><g transform="translate(428.2501158241598 238.39920800862546) rotate(0 0 -27.895723056547922)"><path d="M9.54 -29.58 C6.58 -37.7, 3.63 -45.83, 0 -55.79 M9.54 -29.58 C6.67 -37.46, 3.8 -45.34, 0 -55.79" stroke="#000000" stroke-width="4" fill="none"></path></g><g transform="translate(428.2501158241598 238.39920800862546) rotate(0 0 -27.895723056547922)"><path d="M-9.54 -29.58 C-6.58 -37.7, -3.63 -45.83, 0 -55.79 M-9.54 -29.58 C-6.67 -37.46, -3.8 -45.34, 0 -55.79" stroke="#000000" stroke-width="4" fill="none"></path></g></g><mask></mask><g transform="translate(404.3394960614046 137.91501818022243) rotate(0 23 22.5)"><text x="0" y="32" font-family="Virgil, Segoe UI Emoji" font-size="36px" fill="#000000" text-anchor="start" style="white-space: pre;" direction="ltr">0.1</text></g><g transform="translate(325.54804994830874 223.86941459621175) rotate(0 23 22.5)"><text x="0" y="32" font-family="Virgil, Segoe UI Emoji" font-size="36px" fill="#000000" text-anchor="start" style="white-space: pre;" direction="ltr">0.1</text></g><g transform="translate(113.78845274054379 334.16054723358957) rotate(0 30.5 22.5)"><text x="0" y="32" font-family="Virgil, Segoe UI Emoji" font-size="36px" fill="#c92a2a" text-anchor="start" style="white-space: pre;" direction="ltr">-1.0</text></g><g transform="translate(413.2203224117452 325.88805891730044) rotate(0 23 22.5)"><text x="0" y="32" font-family="Virgil, Segoe UI Emoji" font-size="36px" fill="#5c940d" text-anchor="start" style="white-space: pre;" direction="ltr">1.0</text></g><g transform="translate(217.27730364921763 235.3299855475334) rotate(0 29.5 22.5)"><text x="0" y="32" font-family="Virgil, Segoe UI Emoji" font-size="36px" fill="#5c940d" text-anchor="start" style="white-space: pre;" direction="ltr">0.5</text></g><g stroke-linecap="round"><g transform="translate(149.71218155971587 253.2051057503486) rotate(0 -36.78195989342453 2.6769850663781654)"><path d="M0 0 C-12.26 0.89, -61.3 4.46, -73.56 5.35 M0 0 C-12.26 0.89, -61.3 4.46, -73.56 5.35" stroke="#000000" stroke-width="4" fill="none"></path></g><g transform="translate(149.71218155971587 253.2051057503486) rotate(0 -36.78195989342453 2.6769850663781654)"><path d="M-46.19 -6.93 C-53.76 -3.53, -61.34 -0.13, -73.56 5.35 M-46.19 -6.93 C-55.96 -2.54, -65.73 1.84, -73.56 5.35" stroke="#000000" stroke-width="4" fill="none"></path></g><g transform="translate(149.71218155971587 253.2051057503486) rotate(0 -36.78195989342453 2.6769850663781654)"><path d="M-44.7 13.54 C-52.69 11.28, -60.67 9.01, -73.56 5.35 M-44.7 13.54 C-55 10.62, -65.3 7.7, -73.56 5.35" stroke="#000000" stroke-width="4" fill="none"></path></g></g><mask></mask><g transform="translate(118.11526681171699 142.93750649651065) rotate(0 23 22.5)"><text x="0" y="32" font-family="Virgil, Segoe UI Emoji" font-size="36px" fill="#000000" text-anchor="start" style="white-space: pre;" direction="ltr">0.1</text></g><g transform="translate(26.04955937507725 232.6845490049409) rotate(0 23 22.5)"><text x="0" y="32" font-family="Virgil, Segoe UI Emoji" font-size="36px" fill="#000000" text-anchor="start" style="white-space: pre;" direction="ltr">0.1</text></g><g transform="translate(485.8709728916872 228.4211777372675) rotate(0 23 22.5)"><text x="0" y="32" font-family="Virgil, Segoe UI Emoji" font-size="36px" fill="#000000" text-anchor="start" style="white-space: pre;" direction="ltr">0.1</text></g><g stroke-linecap="round"><g transform="translate(124.27983202198016 530.0993505283786) rotate(0 -17.084814305351074 0.2820471804916451)"><path d="M0 0 C-5.69 0.09, -28.47 0.47, -34.17 0.56 M0 0 C-5.69 0.09, -28.47 0.47, -34.17 0.56" stroke="#000000" stroke-width="4" fill="none"></path></g><g transform="translate(124.27983202198016 530.0993505283786) rotate(0 -17.084814305351074 0.2820471804916451)"><path d="M-18.21 -5.54 C-22.02 -4.09, -25.82 -2.63, -34.17 0.56 M-18.21 -5.54 C-23.33 -3.58, -28.45 -1.63, -34.17 0.56" stroke="#000000" stroke-width="4" fill="none"></path></g><g transform="translate(124.27983202198016 530.0993505283786) rotate(0 -17.084814305351074 0.2820471804916451)"><path d="M-18.02 6.14 C-21.87 4.81, -25.72 3.48, -34.17 0.56 M-18.02 6.14 C-23.2 4.35, -28.38 2.56, -34.17 0.56" stroke="#000000" stroke-width="4" fill="none"></path></g></g><mask></mask><g stroke-linecap="round"><g transform="translate(180.90526152600455 529.4470145883315) rotate(0 25.968086664952466 -0.5870354925164065)"><path d="M0 0 C8.66 -0.2, 43.28 -0.98, 51.94 -1.17 M0 0 C8.66 -0.2, 43.28 -0.98, 51.94 -1.17" stroke="#000000" stroke-width="4" fill="none"></path></g><g transform="translate(180.90526152600455 529.4470145883315) rotate(0 25.968086664952466 -0.5870354925164065)"><path d="M27.73 8.26 C36.3 4.92, 44.86 1.58, 51.94 -1.17 M27.73 8.26 C36.13 4.99, 44.52 1.72, 51.94 -1.17" stroke="#000000" stroke-width="4" fill="none"></path></g><g transform="translate(180.90526152600455 529.4470145883315) rotate(0 25.968086664952466 -0.5870354925164065)"><path d="M27.33 -9.5 C36.04 -6.56, 44.74 -3.61, 51.94 -1.17 M27.33 -9.5 C35.86 -6.62, 44.39 -3.73, 51.94 -1.17" stroke="#000000" stroke-width="4" fill="none"></path></g></g><mask></mask><g stroke-linecap="round"><g transform="translate(152.74047543416896 506.7863046514367) rotate(0 1.4789812931348933 -21.021324070627998)"><path d="M0 0 C0.49 -7.01, 2.46 -35.04, 2.96 -42.04 M0 0 C0.49 -7.01, 2.46 -35.04, 2.96 -42.04" stroke="#000000" stroke-width="4" fill="none"></path></g><g transform="translate(152.74047543416896 506.7863046514367) rotate(0 1.4789812931348933 -21.021324070627998)"><path d="M8.76 -21.78 C6.92 -28.22, 5.07 -34.66, 2.96 -42.04 M8.76 -21.78 C7.32 -26.82, 5.88 -31.85, 2.96 -42.04" stroke="#000000" stroke-width="4" fill="none"></path></g><g transform="translate(152.74047543416896 506.7863046514367) rotate(0 1.4789812931348933 -21.021324070627998)"><path d="M-5.62 -22.79 C-2.9 -28.91, -0.17 -35.02, 2.96 -42.04 M-5.62 -22.79 C-3.49 -27.58, -1.36 -32.36, 2.96 -42.04" stroke="#000000" stroke-width="4" fill="none"></path></g></g><mask></mask><g transform="translate(127.4549758742296 411.80163401176924) rotate(0 30.5 22.5)"><text x="0" y="32" font-family="Virgil, Segoe UI Emoji" font-size="36px" fill="#000000" text-anchor="start" style="white-space: pre;" direction="ltr">0.0</text></g><g transform="translate(239.2176001259777 501.56618150857685) rotate(0 30.5 22.5)"><text x="0" y="32" font-family="Virgil, Segoe UI Emoji" font-size="36px" fill="#000000" text-anchor="start" style="white-space: pre;" direction="ltr">0.0</text></g><g transform="translate(32.16497219492658 508.7550688052306) rotate(0 30.5 22.5)"><text x="0" y="32" font-family="Virgil, Segoe UI Emoji" font-size="36px" fill="#000000" text-anchor="start" style="white-space: pre;" direction="ltr">0.0</text></g><g stroke-linecap="round"><g transform="translate(152.56300293672462 558.3010402552154) rotate(0 -0.810416817099167 19.031150250752034)"><path d="M0 0 C-0.27 6.34, -1.35 31.72, -1.62 38.06 M0 0 C-0.27 6.34, -1.35 31.72, -1.62 38.06" stroke="#000000" stroke-width="4" fill="none"></path></g><g transform="translate(152.56300293672462 558.3010402552154) rotate(0 -0.810416817099167 19.031150250752034)"><path d="M-7.37 19.9 C-5.19 26.78, -3.01 33.67, -1.62 38.06 M-7.37 19.9 C-5.11 27.05, -2.85 34.19, -1.62 38.06" stroke="#000000" stroke-width="4" fill="none"></path></g><g transform="translate(152.56300293672462 558.3010402552154) rotate(0 -0.810416817099167 19.031150250752034)"><path d="M5.65 20.46 C2.89 27.13, 0.14 33.8, -1.62 38.06 M5.65 20.46 C2.79 27.38, -0.07 34.31, -1.62 38.06" stroke="#000000" stroke-width="4" fill="none"></path></g></g><mask></mask><g transform="translate(124.75408666749217 594.5858778844413) rotate(0 30.5 22.5)"><text x="0" y="32" font-family="Virgil, Segoe UI Emoji" font-size="36px" fill="#000000" text-anchor="start" style="white-space: pre;" direction="ltr">0.0</text></g><g stroke-linecap="round"><g transform="translate(402.0673899376511 531.1800994986588) rotate(0 -14.201817183104822 0.511176962360878)"><path d="M0 0 C-4.73 0.17, -23.67 0.85, -28.4 1.02 M0 0 C-4.73 0.17, -23.67 0.85, -28.4 1.02" stroke="#000000" stroke-width="4" fill="none"></path></g><g transform="translate(402.0673899376511 531.1800994986588) rotate(0 -14.201817183104822 0.511176962360878)"><path d="M-15.23 -4.32 C-18.97 -2.8, -22.72 -1.28, -28.4 1.02 M-15.23 -4.32 C-20.3 -2.26, -25.37 -0.21, -28.4 1.02" stroke="#000000" stroke-width="4" fill="none"></path></g><g transform="translate(402.0673899376511 531.1800994986588) rotate(0 -14.201817183104822 0.511176962360878)"><path d="M-14.88 5.4 C-18.72 4.16, -22.56 2.91, -28.4 1.02 M-14.88 5.4 C-20.09 3.72, -25.29 2.03, -28.4 1.02" stroke="#000000" stroke-width="4" fill="none"></path></g></g><mask></mask><g stroke-linecap="round"><g transform="translate(462.9775588361556 530.2704033648488) rotate(0 25.192209271542993 -0.5240469857112657)"><path d="M0 0 C8.4 -0.17, 41.99 -0.87, 50.38 -1.05 M0 0 C8.4 -0.17, 41.99 -0.87, 50.38 -1.05" stroke="#000000" stroke-width="4" fill="none"></path></g><g transform="translate(462.9775588361556 530.2704033648488) rotate(0 25.192209271542993 -0.5240469857112657)"><path d="M26.89 8.06 C35.08 4.89, 43.27 1.71, 50.38 -1.05 M26.89 8.06 C32.49 5.89, 38.09 3.72, 50.38 -1.05" stroke="#000000" stroke-width="4" fill="none"></path></g><g transform="translate(462.9775588361556 530.2704033648488) rotate(0 25.192209271542993 -0.5240469857112657)"><path d="M26.53 -9.17 C34.84 -6.34, 43.16 -3.51, 50.38 -1.05 M26.53 -9.17 C32.22 -7.24, 37.9 -5.3, 50.38 -1.05" stroke="#000000" stroke-width="4" fill="none"></path></g></g><mask></mask><g stroke-linecap="round"><g transform="translate(430.5280333498399 507.86705362171597) rotate(0 1.4789812931348933 -21.021324070627998)"><path d="M0 0 C0.49 -7.01, 2.46 -35.04, 2.96 -42.04 M0 0 C0.49 -7.01, 2.46 -35.04, 2.96 -42.04" stroke="#000000" stroke-width="4" fill="none"></path></g><g transform="translate(430.5280333498399 507.86705362171597) rotate(0 1.4789812931348933 -21.021324070627998)"><path d="M8.76 -21.78 C7.39 -26.55, 6.03 -31.31, 2.96 -42.04 M8.76 -21.78 C6.62 -29.27, 4.47 -36.75, 2.96 -42.04" stroke="#000000" stroke-width="4" fill="none"></path></g><g transform="translate(430.5280333498399 507.86705362171597) rotate(0 1.4789812931348933 -21.021324070627998)"><path d="M-5.62 -22.79 C-3.6 -27.32, -1.59 -31.84, 2.96 -42.04 M-5.62 -22.79 C-2.45 -29.9, 0.72 -37.01, 2.96 -42.04" stroke="#000000" stroke-width="4" fill="none"></path></g></g><mask></mask><g transform="translate(405.24253378990034 412.8823829820485) rotate(0 30.5 22.5)"><text x="0" y="32" font-family="Virgil, Segoe UI Emoji" font-size="36px" fill="#000000" text-anchor="start" style="white-space: pre;" direction="ltr">0.0</text></g><g transform="translate(517.0051580416484 502.64693047885703) rotate(0 30.5 22.5)"><text x="0" y="32" font-family="Virgil, Segoe UI Emoji" font-size="36px" fill="#000000" text-anchor="start" style="white-space: pre;" direction="ltr">0.0</text></g><g transform="translate(309.9525301105973 509.8358177755108) rotate(0 30.5 22.5)"><text x="0" y="32" font-family="Virgil, Segoe UI Emoji" font-size="36px" fill="#000000" text-anchor="start" style="white-space: pre;" direction="ltr">0.0</text></g><g stroke-linecap="round"><g transform="translate(441.5166171866488 555.7433549222151) rotate(0 -2.8666877265960693 24.016914214014378)"><path d="M0 0 C-0.96 8.01, -4.78 40.03, -5.73 48.03 M0 0 C-0.96 8.01, -4.78 40.03, -5.73 48.03" stroke="#000000" stroke-width="4" fill="none"></path></g><g transform="translate(441.5166171866488 555.7433549222151) rotate(0 -2.8666877265960693 24.016914214014378)"><path d="M-11.25 24.48 C-9.38 32.49, -7.5 40.5, -5.73 48.03 M-11.25 24.48 C-9.72 31.04, -8.18 37.6, -5.73 48.03" stroke="#000000" stroke-width="4" fill="none"></path></g><g transform="translate(441.5166171866488 555.7433549222151) rotate(0 -2.8666877265960693 24.016914214014378)"><path d="M5.17 26.45 C1.47 33.79, -2.24 41.13, -5.73 48.03 M5.17 26.45 C2.14 32.46, -0.9 38.47, -5.73 48.03" stroke="#000000" stroke-width="4" fill="none"></path></g></g><mask></mask><g transform="translate(420.4150819465542 605.2907854350096) rotate(0 30.5 22.5)"><text x="0" y="32" font-family="Virgil, Segoe UI Emoji" font-size="36px" fill="#000000" text-anchor="start" style="white-space: pre;" direction="ltr">0.0</text></g><g transform="translate(838.6576884285139 44.944845693311436) rotate(0 109.5 22.5)"><text x="0" y="32" font-family="Virgil, Segoe UI Emoji" font-size="36px" fill="#000000" text-anchor="start" style="white-space: pre;" direction="ltr">State value</text></g><g transform="translate(165.94974370100977 10) rotate(0 109.5 22.5)"><text x="0" y="32" font-family="Virgil, Segoe UI Emoji" font-size="36px" fill="#000000" text-anchor="start" style="white-space: pre;" direction="ltr">Action value</text></g></svg>