<svg version="1.1" xmlns="http://www.w3.org/2000/svg" viewBox="0 0 951.666666666667 513.333333333333" width="951.666666666667" height="513.333333333333">
  <!-- svg-source:excalidraw -->
  
  <defs>
    <style class="style-fonts">
      @font-face {
        font-family: "Virgil";
        src: url("https://excalidraw.com/Virgil.woff2");
      }
      @font-face {
        font-family: "Cascadia";
        src: url("https://excalidraw.com/Cascadia.woff2");
      }
    </style>
  </defs>
  <rect x="0" y="0" width="951.666666666667" height="513.333333333333" fill="#ffffff"></rect><g stroke-linecap="round" transform="translate(10 10) rotate(0 465.8333333333335 246.66666666666663)"><path d="M931.67 246.67 C931.67 250.83, 931.47 255, 931.07 259.16 C930.67 263.32, 930.07 267.48, 929.28 271.62 C928.48 275.76, 927.49 279.9, 926.29 284.02 C925.1 288.14, 923.71 292.24, 922.13 296.32 C920.55 300.4, 918.77 304.46, 916.8 308.49 C914.82 312.53, 912.66 316.54, 910.3 320.51 C907.95 324.48, 905.4 328.43, 902.67 332.34 C899.94 336.24, 897.02 340.11, 893.91 343.94 C890.81 347.77, 887.52 351.56, 884.06 355.3 C880.6 359.04, 876.95 362.73, 873.13 366.37 C869.32 370.02, 865.32 373.61, 861.16 377.14 C857 380.68, 852.67 384.16, 848.17 387.58 C843.68 391, 839.02 394.36, 834.2 397.65 C829.39 400.95, 824.41 404.18, 819.29 407.34 C814.17 410.5, 808.88 413.59, 803.47 416.61 C798.05 419.63, 792.48 422.58, 786.78 425.45 C781.08 428.32, 775.23 431.11, 769.26 433.83 C763.3 436.54, 757.19 439.18, 750.97 441.72 C744.75 444.27, 738.4 446.74, 731.95 449.12 C725.49 451.5, 718.92 453.8, 712.24 456 C705.57 458.2, 698.78 460.32, 691.9 462.34 C685.03 464.36, 678.04 466.29, 670.98 468.13 C663.92 469.96, 656.76 471.7, 649.54 473.34 C642.31 474.99, 634.99 476.53, 627.62 477.98 C620.24 479.43, 612.79 480.77, 605.29 482.02 C597.78 483.27, 590.21 484.42, 582.6 485.46 C574.98 486.5, 567.31 487.45, 559.6 488.28 C551.9 489.12, 544.15 489.86, 536.37 490.49 C528.6 491.12, 520.79 491.65, 512.96 492.07 C505.14 492.49, 497.28 492.81, 489.43 493.02 C481.57 493.23, 473.7 493.33, 465.83 493.33 C457.97 493.33, 450.09 493.23, 442.24 493.02 C434.38 492.81, 426.53 492.49, 418.71 492.07 C410.88 491.65, 403.07 491.12, 395.29 490.49 C387.52 489.86, 379.77 489.12, 372.06 488.28 C364.36 487.45, 356.68 486.5, 349.07 485.46 C341.46 484.42, 333.88 483.27, 326.38 482.02 C318.88 480.77, 311.42 479.43, 304.05 477.98 C296.67 476.53, 289.36 474.99, 282.13 473.34 C274.9 471.7, 267.74 469.96, 260.68 468.13 C253.62 466.29, 246.64 464.36, 239.76 462.34 C232.89 460.32, 226.1 458.2, 219.42 456 C212.75 453.8, 206.17 451.5, 199.72 449.12 C193.26 446.74, 186.91 444.27, 180.69 441.72 C174.47 439.18, 168.37 436.54, 162.4 433.83 C156.43 431.11, 150.59 428.32, 144.89 425.45 C139.19 422.58, 133.62 419.63, 128.2 416.61 C122.78 413.59, 117.5 410.5, 112.38 407.34 C107.26 404.18, 102.28 400.95, 97.46 397.65 C92.65 394.36, 87.99 391, 83.49 387.58 C79 384.16, 74.67 380.68, 70.51 377.14 C66.35 373.61, 62.35 370.02, 58.53 366.37 C54.72 362.73, 51.07 359.04, 47.61 355.3 C44.14 351.56, 40.85 347.77, 37.75 343.94 C34.65 340.11, 31.73 336.24, 29 332.34 C26.27 328.43, 23.72 324.48, 21.36 320.51 C19.01 316.54, 16.84 312.53, 14.87 308.49 C12.9 304.46, 11.12 300.4, 9.54 296.32 C7.95 292.24, 6.56 288.14, 5.37 284.02 C4.18 279.9, 3.19 275.76, 2.39 271.62 C1.59 267.48, 1 263.32, 0.6 259.16 C0.2 255, 0 250.83, 0 246.67 C0 242.5, 0.2 238.33, 0.6 234.17 C1 230.01, 1.59 225.85, 2.39 221.71 C3.19 217.57, 4.18 213.43, 5.37 209.31 C6.56 205.2, 7.95 201.09, 9.54 197.01 C11.12 192.93, 12.9 188.87, 14.87 184.84 C16.84 180.81, 19.01 176.8, 21.36 172.82 C23.72 168.85, 26.27 164.9, 29 161 C31.73 157.09, 34.65 153.22, 37.75 149.39 C40.85 145.57, 44.14 141.78, 47.61 138.04 C51.07 134.3, 54.72 130.6, 58.53 126.96 C62.35 123.32, 66.35 119.72, 70.51 116.19 C74.67 112.65, 79 109.17, 83.49 105.75 C87.99 102.34, 92.65 98.97, 97.46 95.68 C102.28 92.39, 107.26 89.15, 112.38 85.99 C117.5 82.83, 122.78 79.74, 128.2 76.72 C133.62 73.7, 139.19 70.75, 144.89 67.88 C150.59 65.02, 156.43 62.22, 162.4 59.51 C168.37 56.79, 174.47 54.16, 180.69 51.61 C186.91 49.06, 193.26 46.59, 199.72 44.21 C206.17 41.83, 212.75 39.54, 219.42 37.33 C226.1 35.13, 232.89 33.02, 239.76 30.99 C246.64 28.97, 253.62 27.04, 260.68 25.21 C267.74 23.37, 274.9 21.63, 282.13 19.99 C289.36 18.35, 296.67 16.8, 304.05 15.35 C311.42 13.91, 318.88 12.56, 326.38 11.31 C333.88 10.07, 341.46 8.92, 349.07 7.87 C356.68 6.83, 364.36 5.89, 372.06 5.05 C379.77 4.21, 387.52 3.48, 395.29 2.84 C403.07 2.21, 410.88 1.69, 418.71 1.27 C426.53 0.84, 434.38 0.53, 442.24 0.32 C450.09 0.11, 457.97 0, 465.83 0 C473.7 0, 481.57 0.11, 489.43 0.32 C497.28 0.53, 505.14 0.84, 512.96 1.27 C520.79 1.69, 528.6 2.21, 536.37 2.84 C544.15 3.48, 551.9 4.21, 559.6 5.05 C567.31 5.89, 574.98 6.83, 582.6 7.87 C590.21 8.92, 597.78 10.07, 605.29 11.31 C612.79 12.56, 620.24 13.91, 627.62 15.35 C634.99 16.8, 642.31 18.35, 649.54 19.99 C656.76 21.63, 663.92 23.37, 670.98 25.21 C678.04 27.04, 685.03 28.97, 691.9 30.99 C698.78 33.02, 705.57 35.13, 712.24 37.33 C718.92 39.54, 725.49 41.83, 731.95 44.21 C738.4 46.59, 744.75 49.06, 750.97 51.61 C757.19 54.16, 763.3 56.79, 769.26 59.51 C775.23 62.22, 781.08 65.02, 786.78 67.88 C792.48 70.75, 798.05 73.7, 803.47 76.72 C808.88 79.74, 814.17 82.83, 819.29 85.99 C824.41 89.15, 829.39 92.39, 834.2 95.68 C839.02 98.97, 843.68 102.34, 848.17 105.75 C852.67 109.17, 857 112.65, 861.16 116.19 C865.32 119.72, 869.32 123.32, 873.13 126.96 C876.95 130.6, 880.6 134.3, 884.06 138.04 C887.52 141.78, 890.81 145.57, 893.91 149.39 C897.02 153.22, 899.94 157.09, 902.67 161 C905.4 164.9, 907.95 168.85, 910.3 172.82 C912.66 176.8, 914.82 180.81, 916.8 184.84 C918.77 188.87, 920.55 192.93, 922.13 197.01 C923.71 201.09, 925.1 205.2, 926.29 209.31 C927.49 213.43, 928.48 217.57, 929.28 221.71 C930.07 225.85, 930.67 230.01, 931.07 234.17 C931.47 238.33, 931.57 244.58, 931.67 246.67 C931.77 248.75, 931.77 244.58, 931.67 246.67" stroke="none" stroke-width="0" fill="#15aabf"></path><path d="M931.67 246.67 C931.67 250.83, 931.47 255, 931.07 259.16 C930.67 263.32, 930.07 267.48, 929.28 271.62 C928.48 275.76, 927.49 279.9, 926.29 284.02 C925.1 288.14, 923.71 292.24, 922.13 296.32 C920.55 300.4, 918.77 304.46, 916.8 308.49 C914.82 312.53, 912.66 316.54, 910.3 320.51 C907.95 324.48, 905.4 328.43, 902.67 332.34 C899.94 336.24, 897.02 340.11, 893.91 343.94 C890.81 347.77, 887.52 351.56, 884.06 355.3 C880.6 359.04, 876.95 362.73, 873.13 366.37 C869.32 370.02, 865.32 373.61, 861.16 377.14 C857 380.68, 852.67 384.16, 848.17 387.58 C843.68 391, 839.02 394.36, 834.2 397.65 C829.39 400.95, 824.41 404.18, 819.29 407.34 C814.17 410.5, 808.88 413.59, 803.47 416.61 C798.05 419.63, 792.48 422.58, 786.78 425.45 C781.08 428.32, 775.23 431.11, 769.26 433.83 C763.3 436.54, 757.19 439.18, 750.97 441.72 C744.75 444.27, 738.4 446.74, 731.95 449.12 C725.49 451.5, 718.92 453.8, 712.24 456 C705.57 458.2, 698.78 460.32, 691.9 462.34 C685.03 464.36, 678.04 466.29, 670.98 468.13 C663.92 469.96, 656.76 471.7, 649.54 473.34 C642.31 474.99, 634.99 476.53, 627.62 477.98 C620.24 479.43, 612.79 480.77, 605.29 482.02 C597.78 483.27, 590.21 484.42, 582.6 485.46 C574.98 486.5, 567.31 487.45, 559.6 488.28 C551.9 489.12, 544.15 489.86, 536.37 490.49 C528.6 491.12, 520.79 491.65, 512.96 492.07 C505.14 492.49, 497.28 492.81, 489.43 493.02 C481.57 493.23, 473.7 493.33, 465.83 493.33 C457.97 493.33, 450.09 493.23, 442.24 493.02 C434.38 492.81, 426.53 492.49, 418.71 492.07 C410.88 491.65, 403.07 491.12, 395.29 490.49 C387.52 489.86, 379.77 489.12, 372.06 488.28 C364.36 487.45, 356.68 486.5, 349.07 485.46 C341.46 484.42, 333.88 483.27, 326.38 482.02 C318.88 480.77, 311.42 479.43, 304.05 477.98 C296.67 476.53, 289.36 474.99, 282.13 473.34 C274.9 471.7, 267.74 469.96, 260.68 468.13 C253.62 466.29, 246.64 464.36, 239.76 462.34 C232.89 460.32, 226.1 458.2, 219.42 456 C212.75 453.8, 206.17 451.5, 199.72 449.12 C193.26 446.74, 186.91 444.27, 180.69 441.72 C174.47 439.18, 168.37 436.54, 162.4 433.83 C156.43 431.11, 150.59 428.32, 144.89 425.45 C139.19 422.58, 133.62 419.63, 128.2 416.61 C122.78 413.59, 117.5 410.5, 112.38 407.34 C107.26 404.18, 102.28 400.95, 97.46 397.65 C92.65 394.36, 87.99 391, 83.49 387.58 C79 384.16, 74.67 380.68, 70.51 377.14 C66.35 373.61, 62.35 370.02, 58.53 366.37 C54.72 362.73, 51.07 359.04, 47.61 355.3 C44.14 351.56, 40.85 347.77, 37.75 343.94 C34.65 340.11, 31.73 336.24, 29 332.34 C26.27 328.43, 23.72 324.48, 21.36 320.51 C19.01 316.54, 16.84 312.53, 14.87 308.49 C12.9 304.46, 11.12 300.4, 9.54 296.32 C7.95 292.24, 6.56 288.14, 5.37 284.02 C4.18 279.9, 3.19 275.76, 2.39 271.62 C1.59 267.48, 1 263.32, 0.6 259.16 C0.2 255, 0 250.83, 0 246.67 C0 242.5, 0.2 238.33, 0.6 234.17 C1 230.01, 1.59 225.85, 2.39 221.71 C3.19 217.57, 4.18 213.43, 5.37 209.31 C6.56 205.2, 7.95 201.09, 9.54 197.01 C11.12 192.93, 12.9 188.87, 14.87 184.84 C16.84 180.81, 19.01 176.8, 21.36 172.82 C23.72 168.85, 26.27 164.9, 29 161 C31.73 157.09, 34.65 153.22, 37.75 149.39 C40.85 145.57, 44.14 141.78, 47.61 138.04 C51.07 134.3, 54.72 130.6, 58.53 126.96 C62.35 123.32, 66.35 119.72, 70.51 116.19 C74.67 112.65, 79 109.17, 83.49 105.75 C87.99 102.34, 92.65 98.97, 97.46 95.68 C102.28 92.39, 107.26 89.15, 112.38 85.99 C117.5 82.83, 122.78 79.74, 128.2 76.72 C133.62 73.7, 139.19 70.75, 144.89 67.88 C150.59 65.02, 156.43 62.22, 162.4 59.51 C168.37 56.79, 174.47 54.16, 180.69 51.61 C186.91 49.06, 193.26 46.59, 199.72 44.21 C206.17 41.83, 212.75 39.54, 219.42 37.33 C226.1 35.13, 232.89 33.02, 239.76 30.99 C246.64 28.97, 253.62 27.04, 260.68 25.21 C267.74 23.37, 274.9 21.63, 282.13 19.99 C289.36 18.35, 296.67 16.8, 304.05 15.35 C311.42 13.91, 318.88 12.56, 326.38 11.31 C333.88 10.07, 341.46 8.92, 349.07 7.87 C356.68 6.83, 364.36 5.89, 372.06 5.05 C379.77 4.21, 387.52 3.48, 395.29 2.84 C403.07 2.21, 410.88 1.69, 418.71 1.27 C426.53 0.84, 434.38 0.53, 442.24 0.32 C450.09 0.11, 457.97 0, 465.83 0 C473.7 0, 481.57 0.11, 489.43 0.32 C497.28 0.53, 505.14 0.84, 512.96 1.27 C520.79 1.69, 528.6 2.21, 536.37 2.84 C544.15 3.48, 551.9 4.21, 559.6 5.05 C567.31 5.89, 574.98 6.83, 582.6 7.87 C590.21 8.92, 597.78 10.07, 605.29 11.31 C612.79 12.56, 620.24 13.91, 627.62 15.35 C634.99 16.8, 642.31 18.35, 649.54 19.99 C656.76 21.63, 663.92 23.37, 670.98 25.21 C678.04 27.04, 685.03 28.97, 691.9 30.99 C698.78 33.02, 705.57 35.13, 712.24 37.33 C718.92 39.54, 725.49 41.83, 731.95 44.21 C738.4 46.59, 744.75 49.06, 750.97 51.61 C757.19 54.16, 763.3 56.79, 769.26 59.51 C775.23 62.22, 781.08 65.02, 786.78 67.88 C792.48 70.75, 798.05 73.7, 803.47 76.72 C808.88 79.74, 814.17 82.83, 819.29 85.99 C824.41 89.15, 829.39 92.39, 834.2 95.68 C839.02 98.97, 843.68 102.34, 848.17 105.75 C852.67 109.17, 857 112.65, 861.16 116.19 C865.32 119.72, 869.32 123.32, 873.13 126.96 C876.95 130.6, 880.6 134.3, 884.06 138.04 C887.52 141.78, 890.81 145.57, 893.91 149.39 C897.02 153.22, 899.94 157.09, 902.67 161 C905.4 164.9, 907.95 168.85, 910.3 172.82 C912.66 176.8, 914.82 180.81, 916.8 184.84 C918.77 188.87, 920.55 192.93, 922.13 197.01 C923.71 201.09, 925.1 205.2, 926.29 209.31 C927.49 213.43, 928.48 217.57, 929.28 221.71 C930.07 225.85, 930.67 230.01, 931.07 234.17 C931.47 238.33, 931.57 244.58, 931.67 246.67 C931.77 248.75, 931.77 244.58, 931.67 246.67" stroke="#000000" stroke-width="4" fill="none"></path></g><g transform="translate(328.33333333333303 60.66666666666629) rotate(0 144 21)"><text x="0" y="33" font-family="Helvetica, Segoe UI Emoji" font-size="36px" fill="#000000" text-anchor="start" style="white-space: pre;" direction="ltr">Machine Learning</text></g><g stroke-linecap="round" transform="translate(111.6666666666656 180.00000000000045) rotate(0 153.33333333333326 40.83333333333326)"><path d="M20.42 0 L286.25 0 L295.18 1.28 L298.69 2.87 L303.8 7.98 L306.35 15.63 L306.67 61.25 L305.39 70.18 L303.8 73.69 L298.69 78.8 L295.18 80.39 L286.25 81.67 L20.42 81.67 L11.48 80.39 L7.98 78.8 L2.87 73.69 L0.32 66.04 L0.32 15.63 L1.28 11.48 L5.1 5.1 L11.48 1.28 L20.42 0" stroke="none" stroke-width="0" fill="#228be6"></path><path d="M20.42 0 M20.42 0 C84.11 0, 147.79 0, 286.25 0 M20.42 0 C104.71 0, 189 0, 286.25 0 M286.25 0 C299.86 0, 306.67 6.81, 306.67 20.42 M286.25 0 C299.86 0, 306.67 6.81, 306.67 20.42 M306.67 20.42 C306.67 32.06, 306.67 43.7, 306.67 61.25 M306.67 20.42 C306.67 35.81, 306.67 51.2, 306.67 61.25 M306.67 61.25 C306.67 74.86, 299.86 81.67, 286.25 81.67 M306.67 61.25 C306.67 74.86, 299.86 81.67, 286.25 81.67 M286.25 81.67 C230.28 81.67, 174.31 81.67, 20.42 81.67 M286.25 81.67 C210.88 81.67, 135.51 81.67, 20.42 81.67 M20.42 81.67 C6.81 81.67, 0 74.86, 0 61.25 M20.42 81.67 C6.81 81.67, 0 74.86, 0 61.25 M0 61.25 C0 51.27, 0 41.29, 0 20.42 M0 61.25 C0 46.32, 0 31.39, 0 20.42 M0 20.42 C0 6.81, 6.81 0, 20.42 0 M0 20.42 C0 6.81, 6.81 0, 20.42 0" stroke="#000000" stroke-width="4" fill="none"></path></g><g transform="translate(138.33333333333348 202.33333333333235) rotate(0 129.5 16)"><text x="0" y="25" font-family="Helvetica, Segoe UI Emoji" font-size="28px" fill="#000000" text-anchor="start" style="white-space: pre;" direction="ltr">Supervised Learning</text></g><g stroke-linecap="round" transform="translate(289.99999999999955 331.66666666666697) rotate(0 181.66666666666674 41.666666666666515)"><path d="M20.83 0 L347.38 0.33 L355.2 2.93 L358.13 5.21 L362.03 11.72 L363.33 20.83 L363.01 67.38 L362.03 71.61 L358.13 78.12 L351.61 82.03 L342.5 83.33 L15.95 83.01 L8.14 80.4 L2.93 75.2 L1.3 71.61 L0 62.5 L0 20.83 L1.3 11.72 L5.21 5.21 L11.72 1.3 L20.83 0" stroke="none" stroke-width="0" fill="#fa5252"></path><path d="M20.83 0 M20.83 0 C95.41 0, 169.99 0, 342.5 0 M20.83 0 C139.69 0, 258.54 0, 342.5 0 M342.5 0 C356.39 0, 363.33 6.94, 363.33 20.83 M342.5 0 C356.39 0, 363.33 6.94, 363.33 20.83 M363.33 20.83 C363.33 36.63, 363.33 52.44, 363.33 62.5 M363.33 20.83 C363.33 34.79, 363.33 48.75, 363.33 62.5 M363.33 62.5 C363.33 76.39, 356.39 83.33, 342.5 83.33 M363.33 62.5 C363.33 76.39, 356.39 83.33, 342.5 83.33 M342.5 83.33 C236.74 83.33, 130.99 83.33, 20.83 83.33 M342.5 83.33 C265.57 83.33, 188.64 83.33, 20.83 83.33 M20.83 83.33 C6.94 83.33, 0 76.39, 0 62.5 M20.83 83.33 C6.94 83.33, 0 76.39, 0 62.5 M0 62.5 C0 50.45, 0 38.4, 0 20.83 M0 62.5 C0 49.49, 0 36.48, 0 20.83 M0 20.83 C0 6.94, 6.94 0, 20.83 0 M0 20.83 C0 6.94, 6.94 0, 20.83 0" stroke="#000000" stroke-width="4" fill="none"></path></g><g stroke-linecap="round" transform="translate(483.3333333333321 183.33333333333348) rotate(0 180 39.16666666666674)"><path d="M19.58 0 L345.01 0.31 L352.35 2.75 L355.1 4.9 L358.78 11.02 L360 19.58 L359.69 63.34 L358.78 67.32 L355.1 73.44 L348.98 77.11 L340.42 78.33 L14.99 78.03 L7.65 75.58 L2.75 70.68 L1.22 67.32 L0 58.75 L0 19.58 L1.22 11.02 L4.9 4.9 L11.02 1.22 L19.58 0" stroke="none" stroke-width="0" fill="#fab005"></path><path d="M19.58 0 M19.58 0 C119.89 0, 220.19 0, 340.42 0 M19.58 0 C107.15 0, 194.71 0, 340.42 0 M340.42 0 C353.47 0, 360 6.53, 360 19.58 M340.42 0 C353.47 0, 360 6.53, 360 19.58 M360 19.58 C360 29.89, 360 40.19, 360 58.75 M360 19.58 C360 31.42, 360 43.26, 360 58.75 M360 58.75 C360 71.81, 353.47 78.33, 340.42 78.33 M360 58.75 C360 71.81, 353.47 78.33, 340.42 78.33 M340.42 78.33 C255.9 78.33, 171.39 78.33, 19.58 78.33 M340.42 78.33 C234.02 78.33, 127.62 78.33, 19.58 78.33 M19.58 78.33 C6.53 78.33, 0 71.81, 0 58.75 M19.58 78.33 C6.53 78.33, 0 71.81, 0 58.75 M0 58.75 C0 47.55, 0 36.34, 0 19.58 M0 58.75 C0 48.33, 0 37.91, 0 19.58 M0 19.58 C0 6.53, 6.53 0, 19.58 0 M0 19.58 C0 6.53, 6.53 0, 19.58 0" stroke="#000000" stroke-width="4" fill="none"></path></g><g transform="translate(533.3333333333335 208.9999999999991) rotate(0 145 16)"><text x="0" y="25" font-family="Helvetica, Segoe UI Emoji" font-size="28px" fill="#000000" text-anchor="start" style="white-space: pre;" direction="ltr">Unsupervised Learning</text></g><g transform="translate(323.33333333333303 358.99999999999955) rotate(0 150.5 16)"><text x="0" y="25" font-family="Helvetica, Segoe UI Emoji" font-size="28px" fill="#000000" text-anchor="start" style="white-space: pre;" direction="ltr">Reinforcement Learning</text></g></svg>