<svg version="1.1" xmlns="http://www.w3.org/2000/svg" viewBox="0 0 444.3216590222976 316.6666666666665" width="444.3216590222976" height="316.6666666666665">
  <!-- svg-source:excalidraw -->
  
  <defs>
    <style class="style-fonts">
      @font-face {
        font-family: "Virgil";
        src: url("https://excalidraw.com/Virgil.woff2");
      }
      @font-face {
        font-family: "Cascadia";
        src: url("https://excalidraw.com/Cascadia.woff2");
      }
    </style>
  </defs>
  <rect x="0" y="0" width="444.3216590222976" height="316.6666666666665" fill="#ffffff"></rect><g transform="translate(202.52820966706918 24.166666666666515) rotate(0 37.5 16)"><text x="0" y="25" font-family="Helvetica, Segoe UI Emoji" font-size="28px" fill="#000000" text-anchor="start" style="white-space: pre;" direction="ltr">Agent</text></g><g transform="translate(160.86154300040266 264.1666666666665) rotate(0 79.5 16)"><text x="0" y="25" font-family="Helvetica, Segoe UI Emoji" font-size="28px" fill="#000000" text-anchor="start" style="white-space: pre;" direction="ltr">Environment</text></g><g stroke-linecap="round"><g transform="translate(300.86154300040266 58.333333333333485) rotate(0 46.73626590111098 103.8692640789908)"><path d="M-1.07 -0.66 C14.45 17.8, 86.82 76.2, 92.15 110.8 C97.48 145.4, 41.16 190.95, 30.92 206.94 M0.57 1.6 C16.52 20.19, 89.23 77.42, 94.24 111.89 C99.25 146.35, 41.13 192.4, 30.64 208.4" stroke="#000000" stroke-width="4" fill="none"></path></g><g transform="translate(300.86154300040266 58.333333333333485) rotate(0 46.73626590111098 103.8692640789908)"><path d="M40.81 178.63 C38 188.16, 37.42 193.93, 30.81 207.21 M42.19 181.15 C38.42 190.39, 34.23 201.38, 30.06 209.24" stroke="#000000" stroke-width="4" fill="none"></path></g><g transform="translate(300.86154300040266 58.333333333333485) rotate(0 46.73626590111098 103.8692640789908)"><path d="M56.04 192.38 C49.88 198.75, 45.94 201.49, 30.81 207.21 M57.42 194.9 C47.73 198.67, 37.65 204.33, 30.06 209.24" stroke="#000000" stroke-width="4" fill="none"></path></g></g><mask></mask><g stroke-linecap="round"><g transform="translate(142.52820966706918 264.99999999999955) rotate(0 -6.801540803250418 -101.35831623916181)"><path d="M0.56 -0.87 C-8.91 -16.26, -62.63 -59.44, -55.96 -93.29 C-49.29 -127.15, 24.52 -185.51, 40.59 -204 M-0.6 1.28 C-9.79 -13.81, -61 -57.68, -53.75 -91.74 C-46.49 -125.79, 27.28 -184.39, 42.93 -203.03" stroke="#000000" stroke-width="4" fill="none"></path></g><g transform="translate(142.52820966706918 264.99999999999955) rotate(0 -6.801540803250418 -101.35831623916181)"><path d="M28.48 -177.58 C35.11 -187.99, 38.81 -198.33, 41.49 -201.49 M29.35 -175.11 C34.15 -185.7, 38.44 -192.91, 43.75 -203.89" stroke="#000000" stroke-width="4" fill="none"></path></g><g transform="translate(142.52820966706918 264.99999999999955) rotate(0 -6.801540803250418 -101.35831623916181)"><path d="M14.14 -192.25 C26.03 -197.22, 35.12 -202.05, 41.49 -201.49 M15 -189.79 C24.52 -195.64, 33.45 -198.12, 43.75 -203.89" stroke="#000000" stroke-width="4" fill="none"></path></g></g><mask></mask><g transform="translate(349.1948763337366 80.83333333333303) rotate(44.34145682243592 42.5 17.5)"><text x="0" y="25" font-family="Virgil, Segoe UI Emoji" font-size="28px" fill="#000000" text-anchor="start" style="white-space: pre;" direction="ltr">action</text></g><g transform="translate(20.055419046187808 70.36468386260208) rotate(311.6636632977865 48 35)"><text x="0" y="25" font-family="Virgil, Segoe UI Emoji" font-size="28px" fill="#000000" text-anchor="start" style="white-space: pre;" direction="ltr">state </text><text x="0" y="60" font-family="Virgil, Segoe UI Emoji" font-size="28px" fill="#000000" text-anchor="start" style="white-space: pre;" direction="ltr">reward</text></g><g stroke-linecap="round" transform="translate(185.86154300040266 10) rotate(0 54.166666666666515 29.16666666666663)"><path d="M14.58 0 M14.58 0 C35.5 1.03, 54.51 0.73, 93.75 0 M14.58 0 C32.63 0.14, 53.17 0.68, 93.75 0 M93.75 0 C101.74 1.99, 107.06 3.69, 108.33 14.58 M93.75 0 C105.4 1.1, 106.81 4.13, 108.33 14.58 M108.33 14.58 C106.67 25.96, 108.57 38.75, 108.33 43.75 M108.33 14.58 C108.62 23.14, 108.43 32.68, 108.33 43.75 M108.33 43.75 C109.29 55.06, 103.48 60.2, 93.75 58.33 M108.33 43.75 C107.91 53.84, 103.53 60.44, 93.75 58.33 M93.75 58.33 C62.45 60.49, 34.73 57.18, 14.58 58.33 M93.75 58.33 C71.98 57.96, 50.23 57.38, 14.58 58.33 M14.58 58.33 C4.5 57.52, -1.18 53.86, 0 43.75 M14.58 58.33 C3.5 57.59, 0.32 53.55, 0 43.75 M0 43.75 C1.71 32.23, -0.67 21.16, 0 14.58 M0 43.75 C0.26 35.08, 0.37 27.94, 0 14.58 M0 14.58 C1.65 5.09, 6.53 0.98, 14.58 0 M0 14.58 C0.89 5.87, 7.06 -2.11, 14.58 0" stroke="#000000" stroke-width="4" fill="none"></path></g><g stroke-linecap="round" transform="translate(137.52820966706918 249.99999999999955) rotate(0 98.33333333333326 28.333333333333485)"><path d="M14.17 0 M14.17 0 C81.08 -2.79, 147.79 -0.49, 182.5 0 M14.17 0 C50.98 1.32, 89.26 1.78, 182.5 0 M182.5 0 C191.09 -0.37, 195.85 3.54, 196.67 14.17 M182.5 0 C192.39 -1.37, 195.92 5.04, 196.67 14.17 M196.67 14.17 C197.22 24.26, 196.18 30.47, 196.67 42.5 M196.67 14.17 C195.69 21.47, 196.18 28.76, 196.67 42.5 M196.67 42.5 C197.97 53.6, 192.17 58.33, 182.5 56.67 M196.67 42.5 C197.79 52.83, 192.96 58.86, 182.5 56.67 M182.5 56.67 C146.72 56.09, 113.96 56.41, 14.17 56.67 M182.5 56.67 C125.56 56.21, 70.68 56.24, 14.17 56.67 M14.17 56.67 C4.39 56.01, 1.29 53.24, 0 42.5 M14.17 56.67 C5.96 57.41, 0.25 50.11, 0 42.5 M0 42.5 C-0.07 32.64, 0.84 24.12, 0 14.17 M0 42.5 C0.07 32.9, -0.26 21.66, 0 14.17 M0 14.17 C-0.96 3.13, 5.38 -0.83, 14.17 0 M0 14.17 C1.7 4.24, 4.46 0.61, 14.17 0" stroke="#000000" stroke-width="4" fill="none"></path></g></svg>