<svg version="1.1" xmlns="http://www.w3.org/2000/svg" viewBox="0 0 1017.3373015873015 774.353174603174" width="1017.3373015873015" height="774.353174603174">
  <!-- svg-source:excalidraw -->
  
  <defs>
    <style class="style-fonts">
      @font-face {
        font-family: "Virgil";
        src: url("https://excalidraw.com/Virgil.woff2");
      }
      @font-face {
        font-family: "Cascadia";
        src: url("https://excalidraw.com/Cascadia.woff2");
      }
    </style>
  </defs>
  <rect x="0" y="0" width="1017.3373015873015" height="774.353174603174" fill="#ffffff"></rect><g transform="translate(215.3373015873015 156.353174603174) rotate(0 -9 300)" stroke="none"><path fill="#000000" d="M 6.95,0 Q 6.95,0 6.97,7.47 6.98,14.95 7.04,22.15 7.10,29.35 7.41,34.71 7.72,40.07 7.25,46.74 6.79,53.40 6.20,62.14 5.60,70.88 4.06,82.46 2.52,94.03 1.22,106.22 -0.07,118.41 -1.25,133.90 -2.44,149.39 -4.15,164.73 -5.85,180.07 -6.60,193.86 -7.34,207.64 -8.26,218.83 -9.19,230.01 -9.59,241.50 -9.99,252.99 -10.75,266.04 -11.51,279.10 -11.84,293.72 -12.17,308.35 -12.32,322.05 -12.46,335.75 -12.53,347.32 -12.60,358.89 -12.63,367.84 -12.66,376.78 -12.66,385.18 -12.65,393.58 -12.46,401.17 -12.28,408.77 -11.78,417.57 -11.27,426.37 -10.49,434.69 -9.72,443.02 -8.12,450.33 -6.53,457.64 -5.50,463.97 -4.47,470.29 -3.79,475.32 -3.11,480.35 -2.14,484.97 -1.16,489.58 -0.57,494.86 0.00,500.13 0.72,506.09 1.43,512.04 1.69,519.91 1.96,527.78 1.85,534.17 1.74,540.55 1.59,547.29 1.44,554.03 1.84,560.90 2.25,567.77 2.59,572.29 2.92,576.81 3.19,581.14 3.45,585.46 4.43,590.49 5.41,595.52 5.68,597.06 5.96,598.61 5.87,600.55 5.78,602.50 5.07,604.31 4.36,606.13 3.11,607.62 1.86,609.12 0.20,610.13 -1.46,611.15 -3.36,611.58 -5.26,612.02 -7.19,611.82 -9.13,611.62 -10.91,610.82 -12.68,610.01 -14.11,608.68 -15.53,607.35 -16.46,605.64 -17.38,603.92 -17.71,602.00 -18.04,600.08 -17.74,598.16 -17.44,596.23 -16.54,594.50 -15.64,592.78 -14.23,591.43 -12.83,590.07 -11.06,589.24 -9.30,588.41 -7.36,588.19 -5.43,587.96 -3.52,588.37 -1.62,588.77 0.05,589.77 1.73,590.76 3.00,592.24 4.27,593.71 5.00,595.52 5.74,597.32 5.86,599.27 5.98,601.21 5.47,603.09 4.96,604.97 3.88,606.60 2.80,608.22 1.25,609.41 -0.28,610.60 -2.12,611.23 -3.96,611.87 -5.91,611.88 -7.86,611.89 -9.71,611.29 -11.56,610.68 -13.12,609.51 -14.68,608.34 -15.79,606.73 -16.89,605.13 -17.42,603.26 -17.96,601.38 -17.96,601.38 -17.96,601.38 -18.14,597.95 -18.33,594.51 -18.89,590.01 -19.45,585.51 -19.19,581.16 -18.92,576.81 -18.59,572.29 -18.25,567.77 -17.85,560.91 -17.44,554.04 -17.60,547.30 -17.75,540.57 -17.87,534.19 -17.99,527.81 -17.79,520.13 -17.59,512.44 -17.23,506.78 -16.87,501.13 -16.87,496.44 -16.87,491.76 -17.27,486.46 -17.68,481.16 -17.54,476.40 -17.41,471.64 -17.65,465.76 -17.89,459.87 -19.29,451.98 -20.69,444.09 -21.55,435.58 -22.41,427.08 -23.06,417.92 -23.70,408.76 -23.50,401.16 -23.31,393.57 -23.28,385.16 -23.26,376.75 -23.24,367.80 -23.22,358.84 -23.18,347.24 -23.13,335.65 -23.02,321.88 -22.90,308.12 -22.61,293.31 -22.32,278.49 -21.62,265.57 -20.92,252.65 -20.58,240.90 -20.25,229.15 -19.45,218.12 -18.65,207.09 -18.03,192.98 -17.42,178.86 -15.94,163.72 -14.46,148.58 -13.55,132.93 -12.65,117.28 -11.73,104.91 -10.81,92.55 -9.85,81.52 -8.88,70.49 -8.99,61.22 -9.09,51.95 -8.40,46.01 -7.72,40.07 -7.41,34.71 -7.10,29.35 -7.04,22.15 -6.98,14.95 -6.97,7.47 -6.95,0 -6.85,-0.83 -6.75,-1.66 -6.45,-2.44 -6.16,-3.23 -5.68,-3.92 -5.20,-4.61 -4.58,-5.17 -3.95,-5.72 -3.21,-6.11 -2.46,-6.50 -1.65,-6.70 -0.83,-6.90 0.00,-6.90 0.83,-6.90 1.65,-6.70 2.46,-6.50 3.21,-6.11 3.95,-5.72 4.58,-5.17 5.20,-4.61 5.68,-3.92 6.16,-3.23 6.45,-2.44 6.75,-1.66 6.85,-0.83 6.95,0.00 6.95,0.00 L 6.95,0 Z"></path></g><g transform="translate(421.3373015873014 144.353174603174) rotate(0 -15 310)" stroke="none"><path fill="#000000" d="M 6.79,1.85 Q 6.79,1.85 5.23,8.22 3.66,14.59 1.93,20.43 0.20,26.27 -1.05,32.74 -2.31,39.21 -2.73,45.23 -3.16,51.25 -3.75,59.46 -4.35,67.68 -4.65,75.82 -4.95,83.96 -5.21,94.31 -5.48,104.67 -5.66,118.28 -5.84,131.88 -7.71,152.29 -9.57,172.70 -10.96,192.70 -12.36,212.70 -14.13,229.95 -15.91,247.19 -16.67,260.11 -17.44,273.02 -18.35,285.50 -19.27,297.99 -19.67,308.35 -20.06,318.72 -20.82,329.01 -21.58,339.31 -21.90,348.71 -22.22,358.11 -22.36,367.28 -22.50,376.45 -22.56,387.24 -22.62,398.03 -22.65,408.37 -22.68,418.71 -22.69,428.86 -22.71,439.00 -22.55,446.76 -22.39,454.53 -22.52,459.92 -22.65,465.31 -22.47,469.58 -22.29,473.84 -21.80,482.52 -21.32,491.20 -21.08,495.45 -20.85,499.71 -20.67,504.39 -20.50,509.07 -20.32,513.36 -20.14,517.65 -19.53,522.38 -18.93,527.11 -17.02,533.65 -15.10,540.19 -13.67,545.58 -12.23,550.96 -10.63,559.10 -9.03,567.24 -7.50,572.76 -5.97,578.28 -4.98,584.08 -3.99,589.88 -2.95,594.51 -1.90,599.13 -1.50,605.43 -1.09,611.73 -0.96,615.84 -0.83,619.95 -1.17,622.05 -1.51,624.15 -2.50,626.04 -3.49,627.92 -5.03,629.39 -6.57,630.86 -8.50,631.76 -10.43,632.66 -12.54,632.90 -14.66,633.14 -16.74,632.69 -18.82,632.24 -20.65,631.15 -22.48,630.06 -23.86,628.44 -25.25,626.82 -26.04,624.85 -26.84,622.87 -26.96,620.75 -27.08,618.62 -26.52,616.57 -25.96,614.51 -24.77,612.75 -23.58,610.98 -21.89,609.68 -20.20,608.39 -18.19,607.70 -16.17,607.01 -14.04,607.01 -11.91,607.00 -9.89,607.67 -7.87,608.34 -6.17,609.63 -4.47,610.91 -3.27,612.67 -2.07,614.43 -1.49,616.48 -0.92,618.52 -1.02,620.65 -1.13,622.78 -1.91,624.76 -2.69,626.74 -4.07,628.37 -5.44,630.00 -7.26,631.10 -9.08,632.20 -11.16,632.67 -13.24,633.14 -15.35,632.91 -17.47,632.69 -19.41,631.80 -21.34,630.91 -22.89,629.46 -24.45,628.00 -25.45,626.12 -26.45,624.24 -26.81,622.14 -27.16,620.04 -27.16,620.04 -27.16,620.04 -27.06,615.98 -26.96,611.92 -26.99,605.47 -27.02,599.03 -27.76,593.74 -28.49,588.44 -29.53,583.42 -30.56,578.39 -31.48,571.00 -32.39,563.61 -33.89,556.70 -35.40,549.79 -36.34,544.00 -37.29,538.21 -38.02,533.75 -38.75,529.28 -39.30,523.46 -39.84,517.65 -39.66,513.34 -39.47,509.04 -39.28,504.34 -39.09,499.63 -38.81,495.33 -38.54,491.03 -38.22,486.32 -37.90,481.61 -37.44,477.32 -36.98,473.03 -36.31,468.43 -35.63,463.82 -34.61,459.17 -33.59,454.51 -33.42,446.75 -33.25,438.99 -33.25,428.84 -33.24,418.69 -33.22,408.33 -33.20,397.98 -33.15,387.14 -33.10,376.29 -32.98,367.03 -32.85,357.76 -32.55,348.15 -32.24,338.54 -31.53,328.44 -30.82,318.33 -30.46,307.78 -30.10,297.22 -29.26,284.82 -28.41,272.41 -27.72,259.25 -27.03,246.08 -25.39,229.02 -23.76,211.96 -22.53,191.82 -21.30,171.69 -19.69,151.77 -18.09,131.86 -18.23,118.24 -18.38,104.61 -18.55,94.20 -18.73,83.78 -18.82,75.52 -18.91,67.25 -19.01,58.52 -19.10,49.79 -18.36,42.99 -17.61,36.19 -16.12,28.73 -14.63,21.27 -12.60,15.99 -10.56,10.70 -8.68,4.42 -6.79,-1.85 -6.47,-2.63 -6.15,-3.42 -5.65,-4.11 -5.15,-4.79 -4.50,-5.34 -3.85,-5.89 -3.09,-6.27 -2.33,-6.64 -1.50,-6.82 -0.67,-7.01 0.17,-6.99 1.02,-6.97 1.84,-6.74 2.65,-6.52 3.40,-6.11 4.14,-5.69 4.76,-5.11 5.38,-4.53 5.85,-3.82 6.31,-3.11 6.59,-2.31 6.87,-1.51 6.96,-0.67 7.04,0.17 6.91,1.01 6.79,1.85 6.79,1.85 L 6.79,1.85 Z"></path></g><g transform="translate(633.3373015873015 150.353174603174) rotate(0 -18 305)" stroke="none"><path fill="#000000" d="M 6.11,1.28 Q 6.11,1.28 3.68,12.18 1.24,23.08 -0.97,32.89 -3.20,42.71 -5.31,53.68 -7.42,64.65 -8.88,80.03 -10.35,95.40 -12.15,111.85 -13.96,128.31 -15.31,145.55 -16.65,162.79 -18.39,178.86 -20.13,194.93 -20.86,210.76 -21.59,226.59 -22.49,240.91 -23.39,255.22 -24.35,267.09 -25.31,278.95 -25.72,289.04 -26.12,299.13 -26.29,308.01 -26.47,316.89 -26.98,324.89 -27.49,332.89 -28.16,340.35 -28.82,347.81 -28.97,354.78 -29.13,361.75 -28.95,367.59 -28.77,373.44 -28.66,379.92 -28.55,386.40 -28.29,394.68 -28.04,402.95 -27.44,411.68 -26.85,420.40 -26.06,428.70 -25.27,437.00 -24.23,444.50 -23.19,452.01 -22.52,458.87 -21.86,465.72 -21.33,470.94 -20.79,476.15 -20.42,481.27 -20.04,486.40 -19.22,490.97 -18.40,495.54 -17.87,500.22 -17.35,504.90 -15.92,511.59 -14.49,518.28 -13.14,524.36 -11.78,530.44 -10.50,536.42 -9.21,542.40 -7.97,547.53 -6.74,552.66 -5.91,559.55 -5.09,566.44 -4.47,572.62 -3.86,578.79 -3.68,585.34 -3.51,591.89 -3.30,597.25 -3.08,602.61 -2.96,606.30 -2.84,609.99 -3.19,612.09 -3.53,614.19 -4.53,616.07 -5.52,617.95 -7.07,619.42 -8.61,620.88 -10.54,621.77 -12.47,622.67 -14.59,622.90 -16.70,623.13 -18.78,622.67 -20.86,622.21 -22.68,621.12 -24.51,620.02 -25.89,618.40 -27.26,616.78 -28.05,614.80 -28.84,612.83 -28.95,610.70 -29.07,608.58 -28.50,606.53 -27.93,604.47 -26.74,602.71 -25.55,600.95 -23.85,599.66 -22.16,598.38 -20.14,597.70 -18.13,597.02 -16.00,597.02 -13.87,597.02 -11.85,597.69 -9.84,598.37 -8.14,599.66 -6.45,600.95 -5.25,602.71 -4.06,604.47 -3.49,606.52 -2.92,608.57 -3.03,610.70 -3.15,612.82 -3.94,614.80 -4.72,616.77 -6.10,618.40 -7.48,620.02 -9.30,621.12 -11.13,622.21 -13.20,622.67 -15.28,623.13 -17.40,622.90 -19.51,622.67 -21.44,621.77 -23.38,620.88 -24.92,619.42 -26.47,617.95 -27.46,616.07 -28.46,614.19 -28.80,612.10 -29.15,610.00 -29.15,610.00 -29.15,610.00 -29.03,606.32 -28.92,602.63 -28.73,597.36 -28.54,592.08 -28.50,585.87 -28.47,579.66 -28.61,575.02 -28.76,570.38 -29.42,565.85 -30.09,561.31 -30.11,556.44 -30.13,551.58 -30.94,545.79 -31.76,540.01 -32.45,533.83 -33.14,527.66 -33.76,521.04 -34.38,514.43 -34.88,506.01 -35.38,497.59 -35.77,492.12 -36.17,486.64 -35.94,481.65 -35.71,476.66 -35.53,471.61 -35.34,466.55 -35.50,460.08 -35.66,453.60 -36.55,445.97 -37.44,438.34 -38.48,429.95 -39.53,421.57 -40.55,412.70 -41.57,403.82 -42.41,395.04 -43.25,386.26 -43.00,379.67 -42.76,373.07 -42.28,367.09 -41.80,361.11 -41.23,353.78 -40.66,346.45 -39.62,339.21 -38.58,331.97 -37.80,324.33 -37.01,316.69 -36.85,307.70 -36.68,298.71 -36.27,288.41 -35.87,278.10 -34.93,266.34 -33.99,254.57 -33.11,240.34 -32.24,226.11 -31.52,209.95 -30.79,193.79 -29.11,177.88 -27.42,161.97 -26.11,144.55 -24.81,127.14 -23.08,110.76 -21.36,94.38 -19.93,78.49 -18.50,62.60 -16.50,51.43 -14.50,40.26 -12.47,30.44 -10.44,20.61 -8.28,9.66 -6.11,-1.28 -5.87,-2.00 -5.62,-2.71 -5.22,-3.34 -4.81,-3.98 -4.26,-4.49 -3.72,-5.01 -3.06,-5.39 -2.41,-5.76 -1.68,-5.96 -0.96,-6.17 -0.21,-6.19 0.54,-6.22 1.27,-6.07 2.01,-5.91 2.69,-5.58 3.37,-5.26 3.95,-4.78 4.53,-4.30 4.98,-3.69 5.43,-3.09 5.72,-2.39 6.01,-1.70 6.12,-0.95 6.24,-0.21 6.17,0.53 6.11,1.28 6.11,1.28 L 6.11,1.28 Z"></path></g><g transform="translate(833.3373015873015 152.353174603174) rotate(0 -6 301)" stroke="none"><path fill="#000000" d="M 6.59,0 Q 6.59,0 6.65,7.47 6.70,14.95 6.54,23.30 6.38,31.65 5.86,39.47 5.33,47.29 5.20,54.40 5.08,61.51 4.77,71.98 4.47,82.46 4.28,96.12 4.09,109.78 3.97,123.07 3.84,136.36 3.76,148.33 3.67,160.30 3.03,172.42 2.40,184.54 2.11,194.74 1.83,204.94 1.69,214.45 1.56,223.95 0.91,233.90 0.27,243.85 -1.77,254.11 -3.82,264.38 -4.64,274.61 -5.45,284.84 -7.58,296.48 -9.70,308.12 -10.56,320.15 -11.41,332.17 -11.79,342.49 -12.17,352.80 -12.07,360.07 -11.98,367.33 -11.67,373.28 -11.36,379.23 -11.09,385.20 -10.82,391.17 -10.49,396.01 -10.16,400.85 -10.10,407.50 -10.04,414.16 -9.93,420.44 -9.82,426.71 -9.63,432.26 -9.45,437.80 -9.33,443.61 -9.21,449.41 -9.22,455.88 -9.24,462.35 -8.03,466.42 -6.82,470.50 -5.64,476.25 -4.47,481.99 -3.79,487.07 -3.11,492.15 -2.77,497.28 -2.43,502.41 -0.74,510.08 0.94,517.75 3.01,524.84 5.09,531.93 6.57,538.22 8.06,544.50 8.85,551.05 9.64,557.59 10.94,563.94 12.25,570.29 13.31,575.90 14.37,581.51 15.53,586.44 16.70,591.38 17.47,593.97 18.25,596.56 18.80,598.66 19.34,600.76 19.19,602.92 19.04,605.09 18.21,607.09 17.37,609.09 15.94,610.72 14.51,612.35 12.63,613.44 10.76,614.53 8.63,614.96 6.51,615.39 4.35,615.12 2.20,614.85 0.25,613.91 -1.70,612.97 -3.25,611.45 -4.80,609.94 -5.78,608.00 -6.77,606.07 -7.08,603.92 -7.40,601.78 -7.01,599.64 -6.63,597.51 -5.58,595.61 -4.54,593.71 -2.94,592.24 -1.34,590.78 0.63,589.90 2.62,589.02 4.78,588.82 6.94,588.62 9.05,589.12 11.16,589.62 13.00,590.77 14.84,591.92 16.22,593.59 17.59,595.27 18.36,597.30 19.13,599.33 19.22,601.49 19.30,603.66 18.68,605.74 18.07,607.82 16.82,609.60 15.58,611.37 13.83,612.66 12.08,613.94 10.02,614.60 7.95,615.26 5.78,615.22 3.61,615.19 1.57,614.46 -0.47,613.74 -2.17,612.40 -3.88,611.06 -5.07,609.24 -6.25,607.43 -6.25,607.43 -6.25,607.43 -7.76,600.62 -9.26,593.81 -10.19,589.39 -11.12,584.97 -11.87,580.79 -12.61,576.61 -12.58,571.32 -12.55,566.03 -13.31,560.25 -14.06,554.47 -14.88,548.17 -15.70,541.88 -16.74,536.13 -17.77,530.38 -18.62,526.17 -19.47,521.95 -20.23,517.50 -21.00,513.05 -21.57,508.12 -22.13,503.20 -22.18,498.60 -22.22,494.00 -22.44,489.72 -22.66,485.44 -23.62,479.99 -24.57,474.53 -25.66,468.49 -26.75,462.45 -26.76,455.93 -26.78,449.41 -26.66,443.60 -26.54,437.80 -26.35,432.25 -26.16,426.71 -26.05,420.43 -25.94,414.14 -25.86,407.48 -25.79,400.81 -25.44,395.96 -25.08,391.11 -24.76,385.10 -24.43,379.09 -23.98,373.08 -23.53,367.08 -23.12,359.75 -22.71,352.42 -22.33,341.92 -21.96,331.42 -21.04,318.82 -20.12,306.22 -18.08,295.10 -16.04,283.99 -15.17,273.14 -14.29,262.29 -12.36,252.72 -10.44,243.16 -9.84,233.49 -9.25,223.83 -9.18,214.26 -9.10,204.68 -8.89,194.34 -8.69,184.00 -8.17,172.15 -7.65,160.29 -7.72,148.31 -7.79,136.34 -7.87,123.04 -7.96,109.75 -8.06,96.04 -8.17,82.33 -8.26,71.70 -8.35,61.06 -7.99,53.68 -7.63,46.31 -7.01,38.98 -6.38,31.65 -6.54,23.30 -6.70,14.95 -6.65,7.47 -6.59,0 -6.50,-0.78 -6.40,-1.57 -6.12,-2.32 -5.84,-3.06 -5.38,-3.72 -4.93,-4.37 -4.34,-4.90 -3.74,-5.42 -3.04,-5.79 -2.33,-6.16 -1.56,-6.35 -0.79,-6.54 0.00,-6.54 0.79,-6.54 1.56,-6.35 2.33,-6.16 3.04,-5.79 3.74,-5.42 4.34,-4.90 4.93,-4.37 5.39,-3.71 5.84,-3.06 6.12,-2.32 6.40,-1.57 6.50,-0.78 6.59,0.00 6.59,0.00 L 6.59,0 Z"></path></g><g transform="translate(1007.3373015873015 290.353174603174) rotate(0 -450.99999999999994 14)" stroke="none"><path fill="#000000" d="M 0,6.40 Q 0,6.40 -6.32,6.67 -12.64,6.94 -21.66,6.71 -30.67,6.48 -46.00,6.32 -61.33,6.15 -77.62,6.03 -93.91,5.90 -110.41,6.96 -126.92,8.01 -142.06,9.01 -157.21,10.01 -169.83,11.55 -182.44,13.09 -195.78,15.44 -209.12,17.79 -222.48,19.38 -235.83,20.98 -248.16,23.34 -260.49,25.69 -271.23,26.74 -281.97,27.78 -290.99,28.78 -300.02,29.77 -307.44,30.46 -314.86,31.14 -320.91,31.71 -326.96,32.27 -333.58,32.57 -340.21,32.87 -347.62,32.93 -355.04,32.98 -362.79,32.94 -370.54,32.90 -377.86,32.95 -385.17,33.01 -392.02,33.64 -398.87,34.27 -406.09,34.60 -413.31,34.92 -420.41,35.09 -427.50,35.25 -434.54,35.35 -441.58,35.44 -449.75,35.25 -457.92,35.05 -468.30,34.81 -478.67,34.57 -487.10,34.41 -495.53,34.25 -503.71,34.20 -511.90,34.14 -518.83,34.35 -525.75,34.56 -533.55,34.02 -541.35,33.47 -547.88,33.43 -554.41,33.39 -561.19,33.41 -567.97,33.42 -573.17,33.68 -578.36,33.94 -583.39,33.61 -588.42,33.27 -595.50,33.47 -602.57,33.67 -611.27,33.86 -619.97,34.04 -624.58,34.15 -629.19,34.26 -634.59,34.27 -640.00,34.28 -645.75,34.24 -651.50,34.20 -656.82,34.22 -662.13,34.25 -667.27,34.29 -672.40,34.34 -676.89,34.44 -681.37,34.54 -686.72,34.54 -692.08,34.53 -698.38,34.38 -704.68,34.23 -710.23,34.22 -715.79,34.21 -724.66,33.85 -733.54,33.48 -738.80,33.47 -744.06,33.46 -748.39,32.86 -752.72,32.25 -757.76,32.16 -762.79,32.08 -769.75,31.44 -776.70,30.80 -781.02,30.88 -785.34,30.96 -793.01,30.27 -800.69,29.58 -806.93,28.46 -813.16,27.34 -818.33,26.79 -823.51,26.23 -828.40,26.01 -833.30,25.78 -837.57,25.02 -841.84,24.26 -846.23,24.05 -850.63,23.84 -855.58,23.96 -860.52,24.08 -865.34,24.18 -870.16,24.27 -875.48,25.29 -880.80,26.31 -886.10,27.22 -891.41,28.12 -896.57,28.43 -901.73,28.73 -904.09,28.39 -906.45,28.05 -908.58,26.97 -910.70,25.89 -912.37,24.19 -914.04,22.49 -915.08,20.34 -916.12,18.19 -916.43,15.83 -916.73,13.46 -916.26,11.12 -915.78,8.79 -914.59,6.72 -913.40,4.66 -911.61,3.08 -909.82,1.50 -907.62,0.58 -905.42,-0.33 -903.04,-0.50 -900.66,-0.68 -898.36,-0.08 -896.05,0.51 -894.05,1.81 -892.05,3.11 -890.57,4.99 -889.10,6.86 -888.30,9.10 -887.49,11.35 -887.45,13.73 -887.41,16.12 -888.13,18.39 -888.85,20.67 -890.26,22.59 -891.67,24.51 -893.62,25.89 -895.57,27.26 -897.85,27.94 -900.14,28.62 -902.52,28.53 -904.91,28.45 -907.14,27.60 -909.37,26.76 -911.21,25.25 -913.06,23.74 -914.32,21.72 -915.59,19.69 -916.14,17.37 -916.70,15.06 -916.48,12.68 -916.27,10.30 -915.30,8.12 -914.34,5.94 -912.73,4.18 -911.12,2.42 -909.04,1.27 -906.95,0.11 -904.60,-0.31 -902.26,-0.73 -902.26,-0.73 -902.26,-0.73 -899.84,-0.21 -897.41,0.30 -889.24,-0.90 -881.08,-2.12 -874.37,-3.17 -867.67,-4.23 -862.05,-4.10 -856.44,-3.96 -851.53,-3.74 -846.63,-3.51 -841.65,-2.96 -836.67,-2.42 -830.62,-1.84 -824.57,-1.26 -819.46,-0.37 -814.35,0.51 -809.19,1.66 -804.04,2.81 -798.71,3.46 -793.38,4.12 -789.07,4.64 -784.76,5.16 -780.13,5.50 -775.51,5.83 -770.36,6.89 -765.21,7.95 -760.74,8.33 -756.26,8.71 -749.75,9.77 -743.23,10.83 -736.87,11.52 -730.51,12.21 -723.15,12.99 -715.79,13.78 -710.23,13.77 -704.68,13.76 -698.38,13.61 -692.08,13.46 -686.72,13.45 -681.37,13.45 -676.89,13.55 -672.40,13.65 -667.27,13.70 -662.13,13.74 -656.81,13.77 -651.49,13.80 -645.74,13.76 -639.99,13.72 -634.57,13.74 -629.15,13.75 -624.52,13.88 -619.90,14.00 -614.39,14.05 -608.89,14.11 -601.44,14.73 -593.98,15.35 -586.10,16.76 -578.22,18.18 -572.98,18.53 -567.75,18.87 -560.83,19.10 -553.90,19.32 -547.12,19.77 -540.34,20.22 -533.05,20.82 -525.75,21.43 -518.83,21.64 -511.90,21.85 -503.72,21.79 -495.54,21.73 -487.11,21.56 -478.68,21.39 -468.32,21.14 -457.96,20.88 -449.82,20.65 -441.68,20.42 -434.70,20.42 -427.72,20.43 -420.77,20.39 -413.82,20.34 -406.92,20.18 -400.03,20.01 -392.61,19.49 -385.19,18.96 -377.88,19.01 -370.56,19.05 -362.83,18.98 -355.10,18.91 -347.74,18.90 -340.37,18.89 -333.87,19.04 -327.36,19.18 -321.45,19.38 -315.54,19.58 -308.37,19.41 -301.19,19.23 -292.10,18.21 -283.00,17.19 -272.75,16.19 -262.51,15.19 -249.82,12.74 -237.13,10.29 -224.08,8.69 -211.03,7.09 -197.42,4.63 -183.81,2.17 -170.91,0.50 -158.00,-1.15 -142.85,-2.28 -127.70,-3.41 -110.81,-4.66 -93.91,-5.90 -77.62,-6.03 -61.33,-6.15 -46.00,-6.32 -30.67,-6.48 -21.66,-6.71 -12.64,-6.94 -6.32,-6.67 0,-6.40 0.76,-6.31 1.53,-6.22 2.25,-5.94 2.97,-5.67 3.61,-5.23 4.24,-4.79 4.76,-4.21 5.27,-3.63 5.63,-2.95 5.99,-2.27 6.17,-1.52 6.36,-0.77 6.36,0.00 6.36,0.77 6.17,1.52 5.99,2.27 5.63,2.95 5.27,3.64 4.76,4.21 4.24,4.79 3.61,5.23 2.97,5.67 2.25,5.94 1.53,6.22 0.76,6.31 -0.00,6.40 -0.00,6.40 L 0,6.40 Z"></path></g><g transform="translate(99.33730158730151 436.353174603174) rotate(0 449.99999999999994 10)" stroke="none"><path fill="#000000" d="M 2.11,-6.33 Q 2.11,-6.33 7.39,-4.93 12.67,-3.52 18.66,-1.14 24.65,1.24 31.76,2.26 38.86,3.29 48.54,4.56 58.22,5.83 69.62,6.45 81.03,7.06 95.10,7.38 109.16,7.71 122.63,7.89 136.09,8.07 148.71,8.18 161.34,8.29 171.30,8.36 181.27,8.43 190.10,8.48 198.94,8.52 207.87,8.55 216.79,8.58 224.62,8.45 232.44,8.32 240.57,8.83 248.70,9.34 257.12,9.66 265.53,9.97 274.29,10.13 283.04,10.29 291.94,10.37 300.84,10.46 309.22,10.48 317.60,10.50 329.22,10.54 340.83,10.58 353.24,10.60 365.65,10.63 379.44,10.07 393.23,9.51 405.27,8.15 417.31,6.78 429.46,5.61 441.60,4.45 451.46,3.95 461.33,3.45 471.87,3.24 482.42,3.03 492.50,2.38 502.58,1.72 512.18,1.43 521.78,1.15 532.20,1.03 542.61,0.91 552.78,0.86 562.96,0.81 574.05,0.22 585.14,-0.36 595.15,-0.62 605.16,-0.87 615.18,-0.98 625.19,-1.09 635.20,-1.14 645.20,-1.18 654.63,-1.20 664.05,-1.22 673.51,-2.36 682.96,-3.50 691.86,-4.01 700.77,-4.51 709.17,-4.77 717.57,-5.02 724.00,-5.49 730.44,-5.96 735.48,-6.42 740.52,-6.88 745.54,-7.25 750.56,-7.61 756.15,-7.85 761.74,-8.09 769.30,-8.67 776.87,-9.24 782.33,-9.69 787.80,-10.13 793.94,-10.48 800.09,-10.82 804.54,-11.10 808.98,-11.37 815.62,-10.01 822.27,-8.65 828.43,-7.61 834.60,-6.56 841.53,-4.76 848.47,-2.97 855.48,-2.09 862.49,-1.21 868.10,-0.27 873.72,0.65 878.73,1.44 883.74,2.23 889.81,3.94 895.87,5.65 899.38,6.05 902.88,6.45 904.97,7.27 907.06,8.08 908.77,9.52 910.49,10.96 911.66,12.87 912.83,14.78 913.32,16.97 913.82,19.15 913.59,21.38 913.36,23.61 912.44,25.65 911.51,27.69 909.98,29.33 908.45,30.96 906.48,32.03 904.50,33.09 902.29,33.47 900.09,33.84 897.87,33.50 895.66,33.15 893.67,32.11 891.69,31.08 890.13,29.46 888.58,27.84 887.63,25.81 886.68,23.79 886.42,21.56 886.16,19.34 886.63,17.14 887.10,14.95 888.24,13.03 889.38,11.10 891.08,9.64 892.78,8.17 894.85,7.33 896.93,6.49 899.17,6.35 901.40,6.22 903.57,6.80 905.73,7.39 907.59,8.63 909.45,9.88 910.82,11.65 912.19,13.43 912.92,15.55 913.65,17.67 913.66,19.91 913.68,22.15 912.97,24.28 912.27,26.40 910.93,28.20 909.58,29.99 907.74,31.26 905.89,32.53 903.74,33.14 901.58,33.75 899.34,33.65 897.10,33.54 897.11,33.54 897.11,33.54 893.98,32.48 890.85,31.42 885.77,30.16 880.69,28.89 876.00,27.81 871.30,26.73 866.28,25.57 861.25,24.40 854.73,23.12 848.20,21.83 842.38,20.30 836.55,18.77 830.12,17.49 823.69,16.20 816.22,13.79 808.75,11.37 804.42,11.10 800.09,10.82 793.94,10.48 787.80,10.13 782.34,9.69 776.87,9.24 769.32,8.68 761.76,8.11 756.19,7.89 750.61,7.66 745.62,7.33 740.62,6.99 735.61,6.61 730.60,6.22 724.22,5.93 717.83,5.64 709.60,5.81 701.36,5.97 692.78,6.45 684.20,6.92 674.14,8.10 664.08,9.28 654.67,9.30 645.25,9.32 635.28,9.36 625.31,9.41 615.37,9.52 605.43,9.62 595.56,9.88 585.69,10.13 574.35,10.73 563.01,11.33 552.87,11.38 542.73,11.43 532.41,11.55 522.09,11.68 512.68,11.96 503.26,12.24 492.95,12.91 482.63,13.58 472.25,13.79 461.86,14.01 452.24,14.50 442.62,14.99 430.57,16.16 418.51,17.33 406.09,18.75 393.67,20.17 379.66,20.76 365.65,21.35 353.23,21.37 340.82,21.39 329.20,21.41 317.58,21.43 309.18,21.42 300.79,21.40 291.85,21.40 282.91,21.39 274.06,21.34 265.20,21.30 256.53,21.12 247.86,20.95 240.15,20.31 232.43,19.67 224.61,19.53 216.79,19.40 207.86,19.42 198.93,19.45 190.09,19.49 181.25,19.52 171.28,19.56 161.31,19.60 148.67,19.64 136.02,19.69 122.52,19.71 109.01,19.74 94.78,19.69 80.56,19.65 68.70,19.40 56.83,19.14 46.93,18.38 37.03,17.61 27.83,16.55 18.64,15.48 13.33,12.95 8.02,10.42 2.95,8.38 -2.11,6.33 -2.83,5.99 -3.56,5.64 -4.19,5.13 -4.81,4.62 -5.29,3.98 -5.78,3.34 -6.09,2.60 -6.41,1.86 -6.54,1.06 -6.67,0.27 -6.60,-0.53 -6.54,-1.33 -6.28,-2.09 -6.03,-2.86 -5.60,-3.54 -5.17,-4.22 -4.59,-4.77 -4.01,-5.33 -3.31,-5.74 -2.62,-6.14 -1.84,-6.36 -1.07,-6.59 -0.26,-6.62 0.53,-6.65 1.32,-6.49 2.11,-6.33 2.11,-6.33 L 2.11,-6.33 Z"></path></g><g transform="translate(1005.3373015873015 584.353174603174) rotate(0 -444.99999999999994 6)" stroke="none"><path fill="#000000" d="M 0.73,6.20 Q 0.73,6.20 -9.06,7.22 -18.85,8.23 -28.96,8.64 -39.07,9.04 -52.58,9.18 -66.09,9.32 -83.41,8.78 -100.73,8.24 -120.64,8.00 -140.55,7.75 -158.79,7.64 -177.03,7.52 -193.60,6.31 -210.16,5.10 -223.36,4.58 -236.55,4.07 -246.76,3.84 -256.96,3.62 -264.74,3.68 -272.52,3.74 -278.41,4.63 -284.29,5.53 -289.56,6.67 -294.84,7.80 -300.91,8.44 -306.99,9.08 -312.01,10.03 -317.03,10.97 -324.84,11.19 -332.66,11.41 -340.62,12.32 -348.58,13.23 -357.63,13.54 -366.69,13.86 -373.94,14.20 -381.19,14.54 -386.58,14.97 -391.96,15.40 -397.72,15.67 -403.48,15.94 -408.35,16.73 -413.21,17.52 -419.79,17.85 -426.37,18.19 -433.17,18.27 -439.96,18.36 -447.45,18.24 -454.94,18.12 -462.14,18.06 -469.35,18.01 -474.71,18.23 -480.07,18.46 -484.64,18.71 -489.22,18.96 -494.05,19.15 -498.87,19.33 -503.79,19.48 -508.71,19.62 -513.11,20.28 -517.52,20.93 -522.22,21.35 -526.91,21.77 -533.38,22.26 -539.86,22.76 -544.91,23.07 -549.97,23.38 -557.77,23.51 -565.58,23.63 -570.87,23.54 -576.17,23.45 -581.87,23.32 -587.58,23.18 -593.47,22.52 -599.36,21.85 -605.24,21.44 -611.13,21.02 -616.57,20.88 -622.00,20.73 -628.78,19.92 -635.55,19.10 -641.43,18.75 -647.31,18.41 -653.29,18.23 -659.26,18.06 -665.22,16.81 -671.18,15.56 -676.50,15.28 -681.81,15.01 -686.06,15.19 -690.31,15.38 -696.82,15.56 -703.33,15.74 -710.11,15.86 -716.90,15.97 -722.22,17.69 -727.55,19.41 -734.57,19.89 -741.59,20.36 -747.06,21.32 -752.53,22.28 -759.78,22.50 -767.03,22.73 -773.25,22.82 -779.46,22.92 -784.11,23.03 -788.75,23.14 -793.44,23.23 -798.14,23.31 -803.08,23.37 -808.03,23.44 -813.17,23.59 -818.32,23.74 -822.56,24.57 -826.81,25.39 -831.82,25.98 -836.82,26.57 -843.94,27.07 -851.06,27.57 -856.55,27.74 -862.04,27.90 -867.52,27.89 -872.99,27.88 -879.83,27.21 -886.66,26.54 -889.29,26.22 -891.92,25.91 -894.09,25.23 -896.26,24.56 -898.10,23.23 -899.94,21.90 -901.27,20.06 -902.59,18.21 -903.25,16.04 -903.91,13.86 -903.85,11.59 -903.78,9.32 -902.99,7.19 -902.20,5.06 -900.78,3.29 -899.35,1.52 -897.43,0.30 -895.52,-0.91 -893.31,-1.45 -891.11,-1.99 -888.84,-1.80 -886.58,-1.62 -884.49,-0.71 -882.41,0.18 -880.72,1.70 -879.03,3.22 -877.92,5.20 -876.80,7.18 -876.38,9.41 -875.96,11.65 -876.27,13.90 -876.58,16.15 -877.59,18.18 -878.61,20.21 -880.22,21.82 -881.83,23.42 -883.87,24.42 -885.90,25.43 -888.15,25.73 -890.41,26.03 -892.64,25.60 -894.87,25.17 -896.84,24.04 -898.82,22.92 -900.33,21.23 -901.84,19.53 -902.74,17.44 -903.63,15.35 -903.81,13.09 -903.99,10.82 -903.44,8.62 -902.88,6.42 -901.65,4.51 -900.43,2.59 -898.65,1.17 -896.88,-0.24 -894.74,-1.01 -892.61,-1.79 -890.34,-1.85 -888.07,-1.90 -888.07,-1.90 -888.07,-1.91 -880.54,-0.89 -873.01,0.11 -867.62,0.09 -862.23,0.06 -857.16,0.08 -852.09,0.09 -847.29,-0.15 -842.49,-0.40 -834.38,-1.30 -826.28,-2.20 -818.87,-2.86 -811.46,-3.53 -807.06,-3.46 -802.66,-3.39 -797.79,-3.32 -792.92,-3.25 -788.66,-3.14 -784.40,-3.04 -778.95,-2.97 -773.50,-2.89 -767.32,-2.89 -761.14,-2.90 -755.77,-3.07 -750.39,-3.24 -743.89,-3.94 -737.39,-4.64 -732.47,-4.87 -727.55,-5.11 -719.07,-6.48 -710.59,-7.86 -703.75,-7.68 -696.90,-7.50 -690.67,-7.20 -684.43,-6.89 -679.71,-6.23 -675.00,-5.56 -666.89,-3.64 -658.79,-1.73 -652.62,-1.68 -646.46,-1.63 -640.02,-1.45 -633.58,-1.27 -627.59,-0.85 -621.60,-0.43 -615.95,-0.36 -610.30,-0.30 -603.64,-0.23 -596.97,-0.15 -592.27,0.32 -587.56,0.81 -581.87,0.67 -576.17,0.54 -570.88,0.45 -565.58,0.36 -561.25,0.38 -556.91,0.40 -550.81,0.62 -544.70,0.84 -539.84,1.10 -534.98,1.36 -527.38,1.36 -519.78,1.35 -514.25,0.86 -508.73,0.36 -503.80,0.51 -498.87,0.65 -494.06,0.84 -489.24,1.02 -484.66,1.26 -480.09,1.51 -474.74,1.72 -469.39,1.93 -462.21,1.83 -455.04,1.74 -447.64,1.53 -440.24,1.31 -433.65,1.19 -427.05,1.06 -421.07,0.89 -415.09,0.72 -409.35,0.32 -403.60,-0.06 -397.92,0.12 -392.24,0.30 -386.94,0.53 -381.64,0.76 -374.58,0.64 -367.52,0.52 -359.14,-0.24 -350.76,-1.01 -342.04,-2.66 -333.32,-4.31 -326.26,-4.71 -319.19,-5.10 -313.54,-5.60 -307.88,-6.09 -302.38,-6.13 -296.87,-6.18 -291.13,-6.65 -285.39,-7.11 -278.89,-7.29 -272.39,-7.47 -264.56,-7.23 -256.74,-6.99 -246.44,-6.78 -236.15,-6.58 -222.77,-6.08 -209.39,-5.58 -193.18,-4.42 -176.98,-3.26 -158.71,-3.20 -140.43,-3.14 -120.42,-2.97 -100.41,-2.80 -83.34,-2.37 -66.26,-1.94 -52.95,-2.21 -39.64,-2.49 -29.94,-3.06 -20.24,-3.63 -10.48,-4.92 -0.73,-6.20 0.02,-6.20 0.77,-6.20 1.50,-6.01 2.23,-5.83 2.90,-5.48 3.56,-5.12 4.13,-4.62 4.69,-4.12 5.11,-3.50 5.54,-2.88 5.80,-2.17 6.07,-1.47 6.16,-0.72 6.24,0.02 6.15,0.77 6.06,1.51 5.79,2.22 5.52,2.92 5.09,3.54 4.66,4.16 4.09,4.65 3.53,5.15 2.86,5.50 2.19,5.85 1.46,6.02 0.72,6.20 0.72,6.20 L 0.73,6.20 Z"></path></g><g stroke-linecap="round" transform="translate(18.888888888888914 161.65873015872967) rotate(0 47.22222222222223 50.55555555555566)"><path d="M22.86 1.51 L73.47 3.03 L85.71 7.3 L90.11 6.39 L96.91 21 L92.98 81.44 L94.85 84.65 L88.85 99.19 L67.59 98.15 L15.52 98.41 L7.67 98.29 L1.8 94.44 L3.59 74.86 L0.91 17.61 L4.06 7.34 L14.03 -0.74 L25.04 -1.73" stroke="none" stroke-width="0" fill="#228be6"></path><path d="M23.61 0 M23.61 0 C39 1.12, 63.55 -1.8, 70.83 0 M23.61 0 C40.88 1.58, 58.98 -1.22, 70.83 0 M70.83 0 C83.51 0.53, 95.49 7.38, 94.44 23.61 M70.83 0 C89.76 1.11, 98.06 3.99, 94.44 23.61 M94.44 23.61 C97.14 43.16, 97.71 60.55, 94.44 77.5 M94.44 23.61 C94 40.02, 94.42 57.24, 94.44 77.5 M94.44 77.5 C98.13 97.17, 90.28 103.82, 70.83 101.11 M94.44 77.5 C95.37 89.22, 89.18 99.64, 70.83 101.11 M70.83 101.11 C49.45 102.02, 35.18 103.82, 23.61 101.11 M70.83 101.11 C60.78 98.76, 51.4 101.06, 23.61 101.11 M23.61 101.11 C10.22 99.11, 1.14 89.54, 0 77.5 M23.61 101.11 C4.85 99.46, -1.14 97.22, 0 77.5 M0 77.5 C1.14 66.51, -0.58 52.69, 0 23.61 M0 77.5 C0.7 62.07, 0.93 43.93, 0 23.61 M0 23.61 C3.11 7.03, 4.19 -3.66, 23.61 0 M0 23.61 C2.77 10.96, 3.69 2.05, 23.61 0" stroke="#000000" stroke-width="4" fill="none"></path></g><g stroke-linecap="round" transform="translate(10 111.65873015872967) rotate(0 58.888888888888914 30.555555555555657)"><path d="M12.15 -2.6 L101.06 2.37 L114.55 -0.65 L115.07 11.83 L114.82 42.41 L117.6 51.69 L108.07 58.97 L106.18 59.38 L11.8 64.43 L6.11 60.21 L1.9 47.02 L-1.22 14.47 L9.18 -0.52 L19 -2.57" stroke="none" stroke-width="0" fill="#228be6"></path><path d="M15.28 0 M15.28 0 C39.36 -3.21, 72.52 3.14, 102.5 0 M15.28 0 C47.11 1.31, 79.38 1.93, 102.5 0 M102.5 0 C109.47 1.08, 116.1 3.35, 117.78 15.28 M102.5 0 C117.26 2.48, 116.3 4.05, 117.78 15.28 M117.78 15.28 C117.43 24.68, 115.08 28.88, 117.78 45.83 M117.78 15.28 C116.27 25.83, 118.62 31.07, 117.78 45.83 M117.78 45.83 C117.68 56.34, 110.77 59.28, 102.5 61.11 M117.78 45.83 C114.16 60.17, 110.03 65.14, 102.5 61.11 M102.5 61.11 C75.56 59.07, 52.46 60.12, 15.28 61.11 M102.5 61.11 C82.79 60.85, 61.12 62.5, 15.28 61.11 M15.28 61.11 C5.6 58.75, 0.21 58.49, 0 45.83 M15.28 61.11 C6.2 62.8, -4.11 56.44, 0 45.83 M0 45.83 C1.42 35.03, 0.71 33.38, 0 15.28 M0 45.83 C0.7 34.67, -1.66 25.3, 0 15.28 M0 15.28 C2.91 7.78, 1.6 -2.09, 15.28 0 M0 15.28 C4.04 2.38, 2.06 1.06, 15.28 0" stroke="#000000" stroke-width="4" fill="none"></path></g><g transform="translate(45.55555555555554 140.54761904761835) rotate(0 0.00004999999998744897 0.00005000000010113581)" stroke="none"><path fill="#000000" d="M 6.28,-6.28 Q 6.28,-6.28 7.11,-5.11 7.95,-3.94 8.37,-2.57 8.80,-1.19 8.76,0.23 8.72,1.67 8.22,3.02 7.73,4.37 6.83,5.49 5.93,6.61 4.72,7.38 3.50,8.15 2.11,8.50 0.72,8.85 -0.71,8.73 -2.14,8.61 -3.46,8.05 -4.78,7.48 -5.85,6.52 -6.92,5.56 -7.63,4.31 -8.33,3.06 -8.60,1.65 -8.87,0.23 -8.68,-1.18 -8.49,-2.60 -7.85,-3.89 -7.21,-5.18 -6.19,-6.19 -5.18,-7.21 -3.89,-7.85 -2.60,-8.49 -1.18,-8.68 0.24,-8.87 1.65,-8.60 3.06,-8.33 4.31,-7.62 5.56,-6.92 6.52,-5.85 7.48,-4.78 8.05,-3.46 8.62,-2.14 8.73,-0.70 8.85,0.72 8.50,2.11 8.15,3.51 7.38,4.72 6.61,5.93 5.49,6.83 4.36,7.73 3.02,8.22 1.67,8.72 0.23,8.76 -1.20,8.80 -2.57,8.37 -3.94,7.95 -5.11,7.11 -6.28,6.27 -6.28,6.28 -6.28,6.28 -6.94,5.43 -7.60,4.59 -8.04,3.61 -8.48,2.64 -8.67,1.58 -8.86,0.53 -8.80,-0.53 -8.73,-1.60 -8.41,-2.62 -8.09,-3.64 -7.54,-4.56 -6.99,-5.47 -6.23,-6.23 -5.47,-6.99 -4.56,-7.54 -3.64,-8.10 -2.62,-8.41 -1.60,-8.73 -0.53,-8.80 0.53,-8.86 1.59,-8.67 2.64,-8.48 3.61,-8.04 4.59,-7.60 5.43,-6.94 6.28,-6.28 6.28,-6.28 L 6.28,-6.28 Z"></path></g><g transform="translate(96.66666666666669 139.43650793650704) rotate(0 0.00004999999998744897 0.00005000000010113581)" stroke="none"><path fill="#000000" d="M 6.28,-6.28 Q 6.28,-6.28 7.11,-5.11 7.95,-3.94 8.37,-2.57 8.80,-1.19 8.76,0.23 8.72,1.67 8.22,3.02 7.73,4.37 6.83,5.49 5.93,6.61 4.72,7.38 3.50,8.15 2.11,8.50 0.72,8.85 -0.71,8.73 -2.14,8.61 -3.46,8.05 -4.78,7.48 -5.85,6.52 -6.92,5.56 -7.63,4.31 -8.33,3.06 -8.60,1.65 -8.87,0.23 -8.68,-1.18 -8.49,-2.60 -7.85,-3.89 -7.21,-5.18 -6.19,-6.19 -5.18,-7.21 -3.89,-7.85 -2.60,-8.49 -1.18,-8.68 0.24,-8.87 1.65,-8.60 3.06,-8.33 4.31,-7.62 5.56,-6.92 6.52,-5.85 7.48,-4.78 8.05,-3.46 8.62,-2.14 8.73,-0.70 8.85,0.72 8.50,2.11 8.15,3.51 7.38,4.72 6.61,5.93 5.49,6.83 4.36,7.73 3.02,8.22 1.67,8.72 0.23,8.76 -1.20,8.80 -2.57,8.37 -3.94,7.95 -5.11,7.11 -6.28,6.27 -6.28,6.28 -6.28,6.28 -6.94,5.43 -7.60,4.59 -8.04,3.61 -8.48,2.64 -8.67,1.58 -8.86,0.53 -8.80,-0.53 -8.73,-1.60 -8.41,-2.62 -8.09,-3.64 -7.54,-4.56 -6.99,-5.47 -6.23,-6.23 -5.47,-6.99 -4.56,-7.54 -3.64,-8.10 -2.62,-8.41 -1.60,-8.73 -0.53,-8.80 0.53,-8.86 1.59,-8.67 2.64,-8.48 3.61,-8.04 4.59,-7.60 5.43,-6.94 6.28,-6.28 6.28,-6.28 L 6.28,-6.28 Z"></path></g><g transform="translate(71.11111111111109 110.54761904761835) rotate(0 0.5555555555555713 -17.22222222222217)" stroke="none"><path fill="#000000" d="M -5.17,1.03 Q -5.17,1.03 -5.57,-0.54 -5.96,-2.12 -6.32,-5.60 -6.67,-9.07 -6.72,-11.26 -6.77,-13.45 -6.45,-16.06 -6.13,-18.68 -6.01,-22.37 -5.90,-26.06 -5.10,-28.77 -4.30,-31.48 -3.98,-33.54 -3.66,-35.60 -3.32,-36.51 -2.98,-37.42 -2.36,-38.18 -1.75,-38.93 -0.93,-39.45 -0.11,-39.96 0.82,-40.19 1.77,-40.42 2.73,-40.34 3.70,-40.25 4.59,-39.86 5.48,-39.47 6.20,-38.82 6.92,-38.17 7.39,-37.32 7.86,-36.47 8.04,-35.52 8.21,-34.57 8.08,-33.60 7.94,-32.64 7.50,-31.78 7.07,-30.91 6.38,-30.23 5.69,-29.55 4.82,-29.12 3.94,-28.69 2.98,-28.57 2.02,-28.44 1.07,-28.63 0.11,-28.82 -0.72,-29.30 -1.56,-29.79 -2.20,-30.51 -2.85,-31.24 -3.23,-32.13 -3.60,-33.03 -3.68,-34.00 -3.75,-34.96 -3.51,-35.90 -3.27,-36.84 -2.74,-37.66 -2.21,-38.47 -1.45,-39.08 -0.69,-39.68 0.21,-40.01 1.12,-40.34 2.09,-40.36 3.06,-40.38 3.99,-40.09 4.92,-39.80 5.70,-39.23 6.49,-38.65 7.05,-37.86 7.61,-37.07 7.89,-36.14 8.17,-35.21 8.13,-34.24 8.10,-33.27 8.10,-33.27 8.10,-33.27 6.92,-29.42 5.74,-25.56 5.47,-21.32 5.21,-17.07 4.92,-13.23 4.62,-9.39 4.65,-6.82 4.69,-4.25 4.93,-2.64 5.17,-1.03 5.22,-0.40 5.27,0.23 5.16,0.86 5.06,1.48 4.81,2.07 4.56,2.65 4.17,3.16 3.79,3.67 3.29,4.07 2.80,4.47 2.22,4.74 1.65,5.01 1.02,5.13 0.40,5.26 -0.23,5.23 -0.86,5.20 -1.47,5.02 -2.08,4.84 -2.63,4.52 -3.18,4.20 -3.64,3.76 -4.10,3.32 -4.44,2.78 -4.77,2.24 -4.97,1.63 -5.17,1.03 -5.17,1.03 L -5.17,1.03 Z"></path></g><g stroke-linecap="round" transform="translate(66.66666666666669 57.214285714285325) rotate(0 11.111111111111114 6.666666666666515)"><path d="M5.49 2.38 C7.53 1.69, 11.7 -1.35, 14.32 -1.06 C16.93 -0.76, 19.96 2.83, 21.18 4.13 C22.39 5.42, 21.62 5.81, 21.59 6.73 C21.57 7.65, 22.62 8.58, 21.02 9.64 C19.43 10.69, 14.81 12.71, 12.02 13.06 C9.22 13.42, 6.3 12.31, 4.24 11.78 C2.18 11.25, 0.09 11.03, -0.35 9.88 C-0.79 8.72, 0.19 6.38, 1.6 4.85 C3.01 3.31, 6.64 1.3, 8.12 0.68 C9.59 0.06, 10.44 0.97, 10.45 1.14 M14.9 0.79 C16.83 1.35, 17.01 2.98, 18.18 4.54 C19.35 6.1, 21.6 9.14, 21.92 10.16 C22.25 11.18, 22.01 10.57, 20.15 10.66 C18.28 10.75, 13.91 10.73, 10.74 10.69 C7.56 10.65, 3.22 10.55, 1.12 10.45 C-0.98 10.35, -1.83 11.09, -1.84 10.07 C-1.85 9.04, -0.91 6.36, 1.06 4.3 C3.03 2.23, 7.69 -1.37, 9.99 -2.32 C12.28 -3.27, 14.5 -2.09, 14.83 -1.39 C15.17 -0.69, 11.7 1.17, 12 1.91" stroke="none" stroke-width="0" fill="#228be6"></path><path d="M3.66 3.46 C4.55 2.64, 4.97 1.45, 6.99 1.09 C9.01 0.72, 13.49 0.99, 15.77 1.25 C18.04 1.52, 19.61 1.41, 20.65 2.7 C21.69 3.99, 22.81 7.52, 22.01 9 C21.21 10.48, 18.08 10.58, 15.86 11.6 C13.63 12.61, 10.46 14.96, 8.66 15.1 C6.86 15.24, 6.34 14.04, 5.07 12.42 C3.8 10.79, 0.53 7.41, 1.04 5.35 C1.55 3.28, 5.77 1.15, 8.13 0.02 C10.5 -1.11, 15.65 -1.47, 15.23 -1.42 M13.36 -1.94 C15.67 -2.44, 16.64 -2.45, 18.42 -1.56 C20.2 -0.67, 23.51 1.55, 24.04 3.42 C24.58 5.3, 22.76 7.9, 21.65 9.68 C20.53 11.45, 19.58 13.06, 17.35 14.05 C15.13 15.03, 10.71 16.55, 8.3 15.6 C5.89 14.64, 4 9.88, 2.89 8.32 C1.78 6.76, 1.24 6.82, 1.62 6.23 C2.01 5.65, 4.03 6.01, 5.2 4.81 C6.36 3.62, 7.79 0.28, 8.6 -0.93 C9.41 -2.15, 10.16 -2.67, 10.04 -2.49" stroke="#000000" stroke-width="2" fill="none"></path></g><g stroke-linecap="round" transform="translate(850.4206349206345 612.4999999999991) rotate(0 73.75 67.5)"><path d="M19.48 22.24 C19.48 22.24, 19.48 22.24, 19.48 22.24 M19.48 22.24 C19.48 22.24, 19.48 22.24, 19.48 22.24 M15.68 57.77 C21.96 42.35, 28.97 33.99, 53.61 9.91 M11.07 54.31 C23.05 39.58, 37.68 26.36, 52.51 7.57 M7.37 86.37 C38.41 52.67, 64.96 18.38, 83.12 -0.06 M9.95 82.72 C38.56 53.34, 63.14 20.71, 81.03 2.21 M16.29 102.91 C35.39 71, 65.87 51.51, 94 3.95 M15.73 98.44 C44.36 65.41, 73.68 35.55, 96.11 7.04 M28.84 116.03 C52.94 78.09, 86.44 38.32, 110.07 7.56 M24.82 112.1 C46.6 91.79, 63.9 70.81, 114.7 12.56 M38.87 123.4 C58.85 105.42, 80.08 80.39, 126.91 23.32 M38.13 125.55 C72.23 86.42, 106.97 45.39, 123.78 20.08 M44.81 139 C75.8 106.69, 103.21 72.37, 137.68 35.08 M47.96 136.35 C76.41 103.71, 107.37 66.07, 137.9 33.51 M69.56 136.38 C91.38 105.96, 121.03 71.39, 144.92 50.77 M69.53 136.38 C86.88 114.6, 108.18 88.63, 144.6 49.4 M93.88 133.93 C108.36 112.94, 123.58 92.55, 150.43 67.41 M96.08 130.46 C108.95 115.13, 124.76 99.07, 154.08 65.24" stroke="#82c91e" stroke-width="2" fill="none"></path><path d="M136.15 31.88 C142.35 38.99, 144.13 49.63, 145.37 58.76 C146.61 67.89, 146.29 77.63, 143.61 86.67 C140.94 95.7, 136.33 106, 129.32 113 C122.31 120, 111.82 124.87, 101.55 128.68 C91.27 132.49, 78.49 136.1, 67.65 135.87 C56.82 135.63, 45.53 132.75, 36.51 127.29 C27.5 121.83, 19.33 111.45, 13.56 103.11 C7.79 94.77, 3.88 86.89, 1.89 77.25 C-0.1 67.61, -1.36 54.48, 1.61 45.27 C4.58 36.06, 12.24 28.7, 19.72 21.97 C27.2 15.23, 36.7 8.54, 46.49 4.87 C56.29 1.2, 67.59 -0.85, 78.48 -0.07 C89.38 0.71, 101.92 3.29, 111.87 9.53 C121.83 15.77, 133.57 31.73, 138.19 37.36 C142.81 42.98, 140.26 43.13, 139.6 43.26 M101.32 4.51 C111.57 7.02, 123.99 15.12, 130.82 23.12 C137.65 31.12, 139.56 42.61, 142.3 52.51 C145.03 62.42, 148.51 72.78, 147.22 82.55 C145.93 92.33, 141.12 104.1, 134.54 111.18 C127.95 118.26, 117.43 120.73, 107.72 125.03 C98.01 129.33, 86.93 136.08, 76.25 136.97 C65.58 137.86, 53.66 135.23, 43.69 130.37 C33.72 125.5, 23.13 115.8, 16.43 107.78 C9.72 99.76, 5.96 91.38, 3.47 82.26 C0.98 73.13, -0.14 62.41, 1.46 53.04 C3.06 43.66, 6.81 33.69, 13.1 26.01 C19.38 18.33, 29 11.63, 39.15 6.97 C49.31 2.31, 63.1 -1.35, 74.04 -1.95 C84.98 -2.54, 99.7 1.51, 104.82 3.41 C109.94 5.3, 104.86 7.75, 104.75 9.44" stroke="#000000" stroke-width="4" fill="none"></path></g><g stroke-linecap="round" transform="translate(631.6706349206347 450) rotate(0 71.24999999999989 58.75)"><path d="M12.2 49.03 C12.2 49.03, 12.2 49.03, 12.2 49.03 M12.2 49.03 C12.2 49.03, 12.2 49.03, 12.2 49.03 M14.43 70.85 C25.05 53.56, 39.99 45.98, 70.85 5.94 M14.43 70.85 C33.64 45.27, 53.68 25.56, 70.85 5.94 M26.51 81.34 C40.44 61.92, 60.65 38.89, 85.55 13.42 M26.51 81.34 C42.54 63.06, 60.46 43.75, 85.55 13.42 M39.24 91.09 C62.41 72.69, 80.36 46.28, 98.94 22.41 M39.24 91.09 C61.67 68.27, 80.53 44.46, 98.94 22.41 M51.31 101.58 C68.67 76.65, 92.14 51.91, 111.02 32.9 M51.31 101.58 C68.94 80.16, 91.28 58.75, 111.02 32.9 M64.05 111.32 C81.21 96.92, 93.31 75.75, 123.09 43.4 M64.05 111.32 C76.67 95.51, 89.68 82.04, 123.09 43.4 M91.21 104.46 C99.53 97.02, 109.98 83.28, 135.17 53.9 M91.21 104.46 C99.48 93.74, 110.43 83.75, 135.17 53.9" stroke="#fa5252" stroke-width="2" fill="none"></path><path d="M90 14.75 M90 14.75 C104.45 23.94, 116.98 33.61, 124.5 44.25 M90 14.75 C101.54 24.35, 108.29 31.38, 124.5 44.25 M124.5 44.25 C143.81 61.49, 141.86 58.84, 124.5 73.75 M124.5 44.25 C138.01 58.94, 146.99 54.46, 124.5 73.75 M124.5 73.75 C114.42 78.51, 111.78 85.23, 90 102.75 M124.5 73.75 C112.82 81.24, 103.5 92.55, 90 102.75 M90 102.75 C70.14 119.22, 74.27 121.14, 54 102.75 M90 102.75 C75.84 121.75, 75.16 115.26, 54 102.75 M54 102.75 C37.19 88.17, 24.29 79.36, 18 73.75 M54 102.75 C47.21 94.96, 37.2 89.4, 18 73.75 M18 73.75 C1.98 61.33, -3.01 59.48, 18 44.25 M18 73.75 C-1.91 61.66, -1.31 61.86, 18 44.25 M18 44.25 C32.28 34.23, 48.2 17.73, 54 14.75 M18 44.25 C28.41 36.13, 40.33 25.13, 54 14.75 M54 14.75 C68 -3.63, 72.23 1.33, 90 14.75 M54 14.75 C69.14 -2.89, 74.83 1.94, 90 14.75" stroke="#000000" stroke-width="4" fill="none"></path></g><g stroke-linecap="round" transform="translate(240.42063492063477 171.25) rotate(0 71.24999999999989 58.75)"><path d="M12.2 49.03 C12.2 49.03, 12.2 49.03, 12.2 49.03 M12.2 49.03 C12.2 49.03, 12.2 49.03, 12.2 49.03 M14.43 70.85 C23.68 54.37, 40.45 44.98, 70.85 5.94 M14.43 70.85 C31.97 51.89, 50.32 30.08, 70.85 5.94 M26.51 81.34 C35.75 67.92, 49.84 47.64, 85.55 13.42 M26.51 81.34 C46.29 59, 66.27 35.21, 85.55 13.42 M39.24 91.09 C48.31 77.79, 65.21 60.54, 98.94 22.41 M39.24 91.09 C63.51 62.37, 88.7 35.55, 98.94 22.41 M51.31 101.58 C65.9 84.38, 85.77 64.42, 111.02 32.9 M51.31 101.58 C72.6 75.56, 95.38 51.65, 111.02 32.9 M64.05 111.32 C82.67 94.36, 92.69 77.88, 123.09 43.4 M64.05 111.32 C86.78 85.17, 108.93 59.36, 123.09 43.4 M91.21 104.46 C111.84 85.29, 121.74 66.18, 135.17 53.9 M91.21 104.46 C106.37 85.96, 127.21 65.39, 135.17 53.9" stroke="#fa5252" stroke-width="2" fill="none"></path><path d="M90 14.75 M90 14.75 C102.6 25.24, 109.3 31.98, 124.5 44.25 M90 14.75 C98.94 20.69, 107.77 30.21, 124.5 44.25 M124.5 44.25 C144.07 58.24, 145.98 56.38, 124.5 73.75 M124.5 44.25 C141.12 62.57, 141.69 58.1, 124.5 73.75 M124.5 73.75 C117.03 81.02, 108.46 90.18, 90 102.75 M124.5 73.75 C112.67 83.64, 100.37 96.81, 90 102.75 M90 102.75 C73.86 114.11, 72.59 116.55, 54 102.75 M90 102.75 C70.41 120.89, 74.74 116.96, 54 102.75 M54 102.75 C39.63 90, 23.69 78.73, 18 73.75 M54 102.75 C43.72 96.42, 37.37 89.14, 18 73.75 M18 73.75 C-1.05 61.59, 0.01 58.83, 18 44.25 M18 73.75 C-2.71 55.21, -3.93 58.12, 18 44.25 M18 44.25 C25.42 31.61, 42.87 27.35, 54 14.75 M18 44.25 C31.68 33.42, 46.46 20.04, 54 14.75 M54 14.75 C73.86 1.09, 71.38 1.55, 90 14.75 M54 14.75 C74.34 -1.99, 67.89 -1.84, 90 14.75" stroke="#000000" stroke-width="4" fill="none"></path></g><g stroke-linecap="round"><g transform="translate(146.67063492063477 167.5) rotate(0 1.3291464514471585 37.98835780581476)"><path d="M0.43 0.96 C0.98 13.68, 2.97 63.36, 3.46 75.57 M-0.8 0.41 C-0.35 12.85, 2.37 61.29, 3.02 73.74" stroke="#5c940d" stroke-width="4" fill="none"></path></g><g transform="translate(146.67063492063477 167.5) rotate(0 1.3291464514471585 37.98835780581476)"><path d="M-7.15 47.74 C-4.27 56.25, -2.81 61.79, 4.18 74.09 M-9.48 45.21 C-6.52 53.03, -3.24 60.18, 3.52 74.61" stroke="#5c940d" stroke-width="4" fill="none"></path></g><g transform="translate(146.67063492063477 167.5) rotate(0 1.3291464514471585 37.98835780581476)"><path d="M13.34 46.64 C9.74 55.57, 4.74 61.46, 4.18 74.09 M11.01 44.1 C8.48 52.15, 6.27 59.59, 3.52 74.61" stroke="#5c940d" stroke-width="4" fill="none"></path></g></g><mask></mask><g stroke-linecap="round"><g transform="translate(116.67063492063477 380) rotate(0 24.541891551390293 -0.4108977424702971)"><path d="M-0.73 -0.01 C7.43 0.15, 41.37 0.7, 49.81 0.51 M1.09 -1.07 C9 -1.23, 40.76 -1.44, 48.76 -1.35" stroke="#5c940d" stroke-width="4" fill="none"></path></g><g transform="translate(116.67063492063477 380) rotate(0 24.541891551390293 -0.4108977424702971)"><path d="M25.24 6.87 C34.88 4.01, 40.79 -0.5, 49.57 -2.65 M24.55 7.5 C31.64 3.95, 40.74 1.73, 49.62 -1.5" stroke="#5c940d" stroke-width="4" fill="none"></path></g><g transform="translate(116.67063492063477 380) rotate(0 24.541891551390293 -0.4108977424702971)"><path d="M25.26 -10.24 C34.82 -6.74, 40.73 -4.89, 49.57 -2.65 M24.57 -9.6 C31.78 -7.79, 40.88 -4.66, 49.62 -1.5" stroke="#5c940d" stroke-width="4" fill="none"></path></g></g><mask></mask><g stroke-linecap="round"><g transform="translate(249.17063492063465 370) rotate(0 38.19736514128744 0.6664702199645944)"><path d="M-0.71 -0.65 C11.97 -0.59, 64.07 -0.13, 77.1 0.18 M1.12 1.62 C13.52 1.92, 63.35 2.16, 75.94 1.8" stroke="#5c940d" stroke-width="4" fill="none"></path></g><g transform="translate(249.17063492063465 370) rotate(0 38.19736514128744 0.6664702199645944)"><path d="M46.76 11.65 C59 8.37, 71.54 6.35, 76.09 1.47 M47.58 12.76 C59.31 8.52, 70.03 4.5, 76.73 2.35" stroke="#5c940d" stroke-width="4" fill="none"></path></g><g transform="translate(249.17063492063465 370) rotate(0 38.19736514128744 0.6664702199645944)"><path d="M46.58 -8.87 C58.86 -4.22, 71.47 1.67, 76.09 1.47 M47.39 -7.76 C59.04 -4.24, 69.83 -0.5, 76.73 2.35" stroke="#5c940d" stroke-width="4" fill="none"></path></g></g><mask></mask><g stroke-linecap="round"><g transform="translate(486.67063492063465 480) rotate(0 -0.5320432573157632 38.21862437271511)"><path d="M-1.02 -0.82 C-0.91 12.01, -0.72 63.23, -0.5 76.33 M0.64 1.37 C0.65 14.35, -1.55 64.27, -1.7 77.26" stroke="#5c940d" stroke-width="4" fill="none"></path></g><g transform="translate(486.67063492063465 480) rotate(0 -0.5320432573157632 38.21862437271511)"><path d="M-12.5 47.95 C-11.32 55.15, -6.94 59.12, -3.33 78.23 M-10.67 49.76 C-8.08 57.81, -4.76 64.33, -2.25 77.91" stroke="#5c940d" stroke-width="4" fill="none"></path></g><g transform="translate(486.67063492063465 480) rotate(0 -0.5320432573157632 38.21862437271511)"><path d="M8.02 48.55 C5.04 55.46, 5.25 59.3, -3.33 78.23 M9.84 50.36 C6.56 58.35, 4.02 64.7, -2.25 77.91" stroke="#5c940d" stroke-width="4" fill="none"></path></g></g><mask></mask><g stroke-linecap="round"><g transform="translate(459.17063492063465 702.4999999999991) rotate(0 42.564362400397656 -0.9470092141255009)"><path d="M-0.86 -0.58 C13.38 -0.69, 71.59 -1.59, 85.99 -1.84 M0.89 1.72 C15.01 1.37, 71.53 -2.63, 85.56 -3.62" stroke="#5c940d" stroke-width="4" fill="none"></path></g><g transform="translate(459.17063492063465 702.4999999999991) rotate(0 42.564362400397656 -0.9470092141255009)"><path d="M57.18 10.23 C68.82 5.47, 77.88 2.35, 86.92 -3.42 M57.75 9.47 C68.19 3.08, 79.7 -1.37, 86.31 -2.78" stroke="#5c940d" stroke-width="4" fill="none"></path></g><g transform="translate(459.17063492063465 702.4999999999991) rotate(0 42.564362400397656 -0.9470092141255009)"><path d="M55.75 -10.24 C67.68 -7.93, 77.24 -3.99, 86.92 -3.42 M56.32 -11.01 C67.43 -9.36, 79.5 -5.81, 86.31 -2.78" stroke="#5c940d" stroke-width="4" fill="none"></path></g></g><mask></mask><g stroke-linecap="round"><g transform="translate(666.6706349206347 682.4999999999991) rotate(0 49.351114216213944 1.1643308682087081)"><path d="M-0.02 0.26 C16.51 0.79, 83.6 2.47, 100.2 2.98 M-1.49 -0.65 C14.81 -0.46, 82.68 0.77, 99.35 1.11" stroke="#5c940d" stroke-width="4" fill="none"></path></g><g transform="translate(666.6706349206347 682.4999999999991) rotate(0 49.351114216213944 1.1643308682087081)"><path d="M71.4 11.16 C82.67 6.34, 94.11 4.63, 100.6 0.48 M71.97 11.67 C78.36 9.1, 85.15 5.9, 99.44 0.48" stroke="#5c940d" stroke-width="4" fill="none"></path></g><g transform="translate(666.6706349206347 682.4999999999991) rotate(0 49.351114216213944 1.1643308682087081)"><path d="M71.79 -9.36 C82.87 -6.31, 94.16 -0.16, 100.6 0.48 M72.36 -8.85 C78.8 -6.55, 85.5 -4.88, 99.44 0.48" stroke="#5c940d" stroke-width="4" fill="none"></path></g></g><mask></mask><g stroke-linecap="round"><g transform="translate(484.7026781779504 344.28137562728443) rotate(0 -0.26411739382892563 39.14928248379374)"><path d="M0.02 0.07 C-0.22 12.88, -1.21 64.86, -1.19 77.63 M-1.43 -0.93 C-1.34 12.02, 0.75 66.16, 0.9 79.23" stroke="#5c940d" stroke-width="4" fill="none"></path></g><g transform="translate(484.7026781779504 344.28137562728443) rotate(0 -0.26411739382892563 39.14928248379374)"><path d="M-9.99 49.35 C-6.18 60.58, -4.28 68.11, -0.06 79.77 M-9.88 51.11 C-7.19 58.33, -5.74 64.56, 0.6 78.49" stroke="#5c940d" stroke-width="4" fill="none"></path></g><g transform="translate(484.7026781779504 344.28137562728443) rotate(0 -0.26411739382892563 39.14928248379374)"><path d="M10.52 48.8 C7.75 60.21, 3.07 67.91, -0.06 79.77 M10.63 50.55 C8.72 57.83, 5.56 64.19, 0.6 78.49" stroke="#5c940d" stroke-width="4" fill="none"></path></g></g><mask></mask><g stroke-linecap="round"><g transform="translate(244.17063492063465 517.5) rotate(0 42.02072597465478 -2.046477439170758)"><path d="M0.63 -1 C14.66 -2.05, 70.46 -4.53, 84.54 -5.19 M-0.49 1.1 C13.31 0.74, 69.2 -2.97, 83.34 -3.75" stroke="#000000" stroke-width="4" fill="none"></path></g><g transform="translate(244.17063492063465 517.5) rotate(0 42.02072597465478 -2.046477439170758)"><path d="M54.17 7.43 C64.46 4.27, 73.94 -1.52, 83.24 -3.86 M56.23 9.1 C64.54 5.34, 73.77 0.34, 82.37 -4.73" stroke="#000000" stroke-width="4" fill="none"></path></g><g transform="translate(244.17063492063465 517.5) rotate(0 42.02072597465478 -2.046477439170758)"><path d="M52.92 -13.05 C63.82 -9.47, 73.71 -8.51, 83.24 -3.86 M54.99 -11.39 C63.6 -8.72, 73.22 -7.3, 82.37 -4.73" stroke="#000000" stroke-width="4" fill="none"></path></g></g><mask></mask><g stroke-linecap="round"><g transform="translate(499.17063492063465 177.5) rotate(0 0.8659482005983534 39.587481146837035)"><path d="M-0.6 -1.1 C-0.17 12, 1.85 65.85, 2.33 79.17 M1.29 0.93 C1.57 14.12, 1.27 67.18, 1.3 80.28" stroke="#000000" stroke-width="4" fill="none"></path></g><g transform="translate(499.17063492063465 177.5) rotate(0 0.8659482005983534 39.587481146837035)"><path d="M-10.75 51.79 C-7.32 59.65, -5.03 69.49, -0.69 81.93 M-8.22 51.29 C-5.91 58.38, -4.49 63.54, 1.79 80.54" stroke="#000000" stroke-width="4" fill="none"></path></g><g transform="translate(499.17063492063465 177.5) rotate(0 0.8659482005983534 39.587481146837035)"><path d="M9.77 51.83 C7.49 59.57, 4.05 69.4, -0.69 81.93 M12.3 51.33 C10.1 58.44, 7.01 63.59, 1.79 80.54" stroke="#000000" stroke-width="4" fill="none"></path></g></g><mask></mask><g stroke-linecap="round"><g transform="translate(921.6706349206345 325) rotate(0 0.014539904899493195 35.21137691297554)"><path d="M-0.92 0.42 C-0.95 12.24, 0.6 59.41, 0.95 70.82 M0.8 -0.4 C0.59 11.08, 0.46 57.46, 0.5 69.13" stroke="#000000" stroke-width="4" fill="none"></path></g><g transform="translate(921.6706349206345 325) rotate(0 0.014539904899493195 35.21137691297554)"><path d="M-9.04 42.51 C-4.32 54.14, -3.47 63.08, -1.08 69.92 M-8.84 41.23 C-5.35 51.41, -3.03 62.05, -0.02 69.66" stroke="#000000" stroke-width="4" fill="none"></path></g><g transform="translate(921.6706349206345 325) rotate(0 0.014539904899493195 35.21137691297554)"><path d="M11.48 42.53 C8.05 53.99, 0.76 62.93, -1.08 69.92 M11.69 41.24 C7.68 51.47, 2.51 62.1, -0.02 69.66" stroke="#000000" stroke-width="4" fill="none"></path></g></g><mask></mask><g stroke-linecap="round"><g transform="translate(919.1706349206345 180) rotate(0 0.41802022235134473 35.29094438948687)"><path d="M-0.8 0.65 C-1.05 12.39, -0.93 59.01, -0.62 70.63 M0.98 -0.05 C1.04 11.31, 1.79 57.46, 1.77 68.84" stroke="#000000" stroke-width="4" fill="none"></path></g><g transform="translate(919.1706349206345 180) rotate(0 0.41802022235134473 35.29094438948687)"><path d="M-7.64 39.71 C-3.68 53.11, -0.19 60.27, 2.47 69.28 M-8.3 40.23 C-6.68 48.9, -3.17 55.69, 1.9 69.81" stroke="#000000" stroke-width="4" fill="none"></path></g><g transform="translate(919.1706349206345 180) rotate(0 0.41802022235134473 35.29094438948687)"><path d="M12.89 39.53 C9.14 52.87, 4.94 60.09, 2.47 69.28 M12.22 40.05 C8.15 48.71, 5.96 55.55, 1.9 69.81" stroke="#000000" stroke-width="4" fill="none"></path></g></g><mask></mask><g stroke-linecap="round"><g transform="translate(924.1706349206345 470) rotate(0 0.5632841149284218 34.500946743693476)"><path d="M1.17 -0.22 C1.2 11.49, -0.46 58.62, -0.63 70.38 M0.32 -1.38 C0.82 9.94, 1.9 56.26, 1.75 68.46" stroke="#000000" stroke-width="4" fill="none"></path></g><g transform="translate(924.1706349206345 470) rotate(0 0.5632841149284218 34.500946743693476)"><path d="M-9.1 39.29 C-5.63 46.95, -3.28 52.23, 3.54 70.39 M-7.97 39.86 C-6.11 49.65, -3.01 56.96, 2.25 68.5" stroke="#000000" stroke-width="4" fill="none"></path></g><g transform="translate(924.1706349206345 470) rotate(0 0.5632841149284218 34.500946743693476)"><path d="M11.42 39.13 C10.12 47.02, 7.69 52.34, 3.54 70.39 M12.55 39.7 C8.03 49.48, 4.74 56.84, 2.25 68.5" stroke="#000000" stroke-width="4" fill="none"></path></g></g><mask></mask><g stroke-linecap="round"><g transform="translate(669.6499089459799 217.0464774391712) rotate(0 43.08820628172717 -2.4481903735550077)"><path d="M1.04 0.71 C15.38 -0.39, 72.19 -4.46, 86.04 -5.61 M0.13 0.04 C14.39 -1, 71.23 -3.48, 85.64 -4.39" stroke="#000000" stroke-width="4" fill="none"></path></g><g transform="translate(669.6499089459799 217.0464774391712) rotate(0 43.08820628172717 -2.4481903735550077)"><path d="M59.21 9.08 C65.32 2.13, 72.82 1.05, 85.49 -3.87 M58.06 6.67 C66.41 4.58, 76.8 -0.21, 86.5 -3.7" stroke="#000000" stroke-width="4" fill="none"></path></g><g transform="translate(669.6499089459799 217.0464774391712) rotate(0 43.08820628172717 -2.4481903735550077)"><path d="M58.14 -11.42 C64.74 -12.13, 72.57 -6.98, 85.49 -3.87 M56.98 -13.83 C65.8 -9.05, 76.55 -6.98, 86.5 -3.7" stroke="#000000" stroke-width="4" fill="none"></path></g></g><mask></mask><g stroke-linecap="round"><g transform="translate(669.6499089459799 382.0464774391712) rotate(0 42.1537719901651 -1.8104941786264135)"><path d="M-0.78 -0.93 C13.39 -1.56, 70.64 -3.97, 85.09 -4.81 M1 1.19 C15.03 0.88, 70.09 -2.11, 84.19 -3.17" stroke="#000000" stroke-width="4" fill="none"></path></g><g transform="translate(669.6499089459799 382.0464774391712) rotate(0 42.1537719901651 -1.8104941786264135)"><path d="M55.14 8.99 C65.45 6.91, 71.8 1.83, 85.02 -3.26 M56.84 8.98 C61.99 5.79, 68.19 3.14, 84.52 -4.03" stroke="#000000" stroke-width="4" fill="none"></path></g><g transform="translate(669.6499089459799 382.0464774391712) rotate(0 42.1537719901651 -1.8104941786264135)"><path d="M53.86 -11.49 C64.36 -7.36, 71.11 -6.25, 85.02 -3.26 M55.55 -11.5 C61.03 -10.53, 67.49 -9.03, 84.52 -4.03" stroke="#000000" stroke-width="4" fill="none"></path></g></g><mask></mask><g stroke-linecap="round"><g transform="translate(259.51686293046953 686.8104941786241) rotate(0 42.48183093017899 -2.219169330214754)"><path d="M0.62 -0.69 C14.72 -1.63, 71.6 -5.17, 85.48 -6 M-0.52 1.56 C13.39 0.77, 70.34 -3.94, 84.79 -4.98" stroke="#000000" stroke-width="4" fill="none"></path></g><g transform="translate(259.51686293046953 686.8104941786241) rotate(0 42.48183093017899 -2.219169330214754)"><path d="M56.32 8.24 C65.99 0.82, 76.69 -1.01, 84.43 -5.16 M56.78 6.65 C64.06 4.51, 70.82 2.96, 85.54 -5.89" stroke="#000000" stroke-width="4" fill="none"></path></g><g transform="translate(259.51686293046953 686.8104941786241) rotate(0 42.48183093017899 -2.219169330214754)"><path d="M54.73 -12.22 C64.93 -12.04, 76.22 -6.28, 84.43 -5.16 M55.19 -13.81 C62.69 -11.32, 69.81 -8.25, 85.54 -5.89" stroke="#000000" stroke-width="4" fill="none"></path></g></g><mask></mask><g stroke-linecap="round" transform="translate(44.17063492063488 636.25) rotate(0 71.24999999999989 58.75)"><path d="M12.2 49.03 C12.2 49.03, 12.2 49.03, 12.2 49.03 M12.2 49.03 C12.2 49.03, 12.2 49.03, 12.2 49.03 M14.43 70.85 C30.3 53.06, 45.64 38.35, 70.85 5.94 M14.43 70.85 C34.92 49.17, 55.72 28.76, 70.85 5.94 M26.51 81.34 C43.6 56.11, 66.29 39.52, 85.55 13.42 M26.51 81.34 C40.85 65.41, 53.56 52.69, 85.55 13.42 M39.24 91.09 C58.64 68.57, 80.8 46.85, 98.94 22.41 M39.24 91.09 C59.63 66.34, 78.84 44.92, 98.94 22.41 M51.31 101.58 C69.9 78.96, 85.6 59.53, 111.02 32.9 M51.31 101.58 C67.49 80.34, 87.68 60.39, 111.02 32.9 M64.05 111.32 C87.15 86.15, 108.3 64.65, 123.09 43.4 M64.05 111.32 C81.27 94.63, 95.59 75.9, 123.09 43.4 M91.21 104.46 C98.23 97.05, 106.85 80.03, 135.17 53.9 M91.21 104.46 C106.68 86.23, 122.47 71.21, 135.17 53.9" stroke="#fa5252" stroke-width="2" fill="none"></path><path d="M90 14.75 M90 14.75 C100.51 18.18, 108.45 30.96, 124.5 44.25 M90 14.75 C100.69 21.25, 108.23 32.33, 124.5 44.25 M124.5 44.25 C142.03 62.2, 141.46 60.38, 124.5 73.75 M124.5 44.25 C144.69 57.13, 140.98 55.71, 124.5 73.75 M124.5 73.75 C115.98 79.01, 105.35 90.09, 90 102.75 M124.5 73.75 C112.48 83.42, 96.67 95.11, 90 102.75 M90 102.75 C68.59 118.96, 70.27 114.67, 54 102.75 M90 102.75 C69.72 120.55, 69.02 114.64, 54 102.75 M54 102.75 C43.52 93.73, 26.69 83.58, 18 73.75 M54 102.75 C42.13 96.21, 33.25 89.69, 18 73.75 M18 73.75 C2.46 59.83, -1.72 60.27, 18 44.25 M18 73.75 C3.03 58.81, -1.43 54.86, 18 44.25 M18 44.25 C27.11 35.92, 39.7 26.59, 54 14.75 M18 44.25 C27.37 38.14, 32.93 32.53, 54 14.75 M54 14.75 C75.67 2.9, 71.32 1.9, 90 14.75 M54 14.75 C67.44 0.72, 68.62 3.3, 90 14.75" stroke="#000000" stroke-width="4" fill="none"></path></g><g stroke-linecap="round" transform="translate(46.67063492063488 471.2499999999982) rotate(0 71.24999999999989 58.75)"><path d="M12.2 49.03 C12.2 49.03, 12.2 49.03, 12.2 49.03 M12.2 49.03 C12.2 49.03, 12.2 49.03, 12.2 49.03 M14.43 70.85 C26.94 56.86, 42.63 38.07, 70.85 5.94 M14.43 70.85 C27.71 57.83, 42.24 41.7, 70.85 5.94 M26.51 81.34 C38.94 64.76, 60.1 43.96, 85.55 13.42 M26.51 81.34 C43.12 61.36, 62.99 39.34, 85.55 13.42 M39.24 91.09 C60.03 70.22, 81.63 43.84, 98.94 22.41 M39.24 91.09 C59.99 64.85, 84.2 38.38, 98.94 22.41 M51.31 101.58 C64.04 82.65, 79.89 66.56, 111.02 32.9 M51.31 101.58 C71.59 79.32, 93.23 55.2, 111.02 32.9 M64.05 111.32 C82.28 90.51, 104.06 69.35, 123.09 43.4 M64.05 111.32 C86.19 86.85, 106.28 62.66, 123.09 43.4 M91.21 104.46 C106.59 88.04, 112.36 78.26, 135.17 53.9 M91.21 104.46 C102.3 91.44, 116.67 75.68, 135.17 53.9" stroke="#fa5252" stroke-width="2" fill="none"></path><path d="M90 14.75 M90 14.75 C98.29 24.8, 115.07 32.98, 124.5 44.25 M90 14.75 C98.23 22.65, 111.3 30.64, 124.5 44.25 M124.5 44.25 C145.7 57.96, 143.88 60.91, 124.5 73.75 M124.5 44.25 C140.63 57.48, 139.21 58.91, 124.5 73.75 M124.5 73.75 C110.64 84.21, 102.66 95.22, 90 102.75 M124.5 73.75 C109.9 83.73, 97.29 94.17, 90 102.75 M90 102.75 C73.46 115.77, 69.17 115.52, 54 102.75 M90 102.75 C75.05 114.52, 69.14 119.22, 54 102.75 M54 102.75 C41.87 89.27, 27.35 78.79, 18 73.75 M54 102.75 C40.09 89.27, 27.05 80.58, 18 73.75 M18 73.75 C0.83 57.28, 1.27 61.63, 18 44.25 M18 73.75 C-0.19 57.57, -4.14 59.55, 18 44.25 M18 44.25 C29.8 34.96, 40.57 23.53, 54 14.75 M18 44.25 C28.42 34.63, 39.27 29.19, 54 14.75 M54 14.75 C74.9 -0.68, 73.9 -3.97, 90 14.75 M54 14.75 C72.72 -3.38, 75.3 3.9, 90 14.75" stroke="#000000" stroke-width="4" fill="none"></path></g><g transform="translate(189.17063492063465 10) rotate(0 364 42.5)"><text x="0" y="60" font-family="Virgil, Segoe UI Emoji" font-size="67.99999999999947px" fill="#000000" text-anchor="start" style="white-space: pre;" direction="ltr">Policy-Based Methods</text></g></svg>