<svg version="1.1" xmlns="http://www.w3.org/2000/svg" viewBox="0 0 1013.0555555555552 784.3531746031749" width="1013.0555555555552" height="784.3531746031749">
  <!-- svg-source:excalidraw -->
  
  <defs>
    <style class="style-fonts">
      @font-face {
        font-family: "Virgil";
        src: url("https://excalidraw.com/Virgil.woff2");
      }
      @font-face {
        font-family: "Cascadia";
        src: url("https://excalidraw.com/Cascadia.woff2");
      }
    </style>
  </defs>
  <rect x="0" y="0" width="1013.0555555555552" height="784.3531746031749" fill="#ffffff"></rect><g transform="translate(211.05555555555543 166.35317460317492) rotate(0 -9 300)" stroke="none"><path fill="#000000" d="M 6.95,0 Q 6.95,0 6.97,7.47 6.98,14.95 7.04,22.15 7.10,29.35 7.41,34.71 7.72,40.07 7.25,46.74 6.79,53.40 6.20,62.14 5.60,70.88 4.06,82.46 2.52,94.03 1.22,106.22 -0.07,118.41 -1.25,133.90 -2.44,149.39 -4.15,164.73 -5.85,180.07 -6.60,193.86 -7.34,207.64 -8.26,218.83 -9.19,230.01 -9.59,241.50 -9.99,252.99 -10.75,266.04 -11.51,279.10 -11.84,293.72 -12.17,308.35 -12.32,322.05 -12.46,335.75 -12.53,347.32 -12.60,358.89 -12.63,367.84 -12.66,376.78 -12.66,385.18 -12.65,393.58 -12.46,401.17 -12.28,408.77 -11.78,417.57 -11.27,426.37 -10.49,434.69 -9.72,443.02 -8.12,450.33 -6.53,457.64 -5.50,463.97 -4.47,470.29 -3.79,475.32 -3.11,480.35 -2.14,484.97 -1.16,489.58 -0.57,494.86 0.00,500.13 0.72,506.09 1.43,512.04 1.69,519.91 1.96,527.78 1.85,534.17 1.74,540.55 1.59,547.29 1.44,554.03 1.84,560.90 2.25,567.77 2.59,572.29 2.92,576.81 3.19,581.14 3.45,585.46 4.49,591.39 5.54,597.31 5.45,599.22 5.36,601.12 4.66,602.89 3.97,604.67 2.75,606.13 1.53,607.59 -0.09,608.58 -1.71,609.58 -3.57,610.00 -5.43,610.42 -7.32,610.23 -9.22,610.04 -10.95,609.25 -12.68,608.47 -14.08,607.17 -15.47,605.87 -16.37,604.19 -17.28,602.51 -17.60,600.64 -17.92,598.76 -17.63,596.88 -17.33,595.00 -16.45,593.31 -15.57,591.62 -14.20,590.30 -12.83,588.98 -11.10,588.17 -9.38,587.35 -7.49,587.13 -5.60,586.91 -3.73,587.31 -1.87,587.71 -0.23,588.68 1.40,589.65 2.64,591.09 3.89,592.53 4.60,594.30 5.32,596.06 5.44,597.96 5.55,599.86 5.06,601.70 4.56,603.54 3.50,605.12 2.45,606.71 0.94,607.87 -0.56,609.04 -2.36,609.66 -4.16,610.28 -6.07,610.29 -7.97,610.30 -9.78,609.71 -11.59,609.11 -13.11,607.97 -14.64,606.83 -15.72,605.26 -16.80,603.69 -17.32,601.86 -17.84,600.03 -17.84,600.03 -17.84,600.03 -18.08,597.27 -18.33,594.51 -18.89,590.01 -19.45,585.51 -19.19,581.16 -18.92,576.81 -18.59,572.29 -18.25,567.77 -17.85,560.91 -17.44,554.04 -17.60,547.30 -17.75,540.57 -17.87,534.19 -17.99,527.81 -17.79,520.13 -17.59,512.44 -17.23,506.78 -16.87,501.13 -16.87,496.44 -16.87,491.76 -17.27,486.46 -17.68,481.16 -17.54,476.40 -17.41,471.64 -17.65,465.76 -17.89,459.87 -19.29,451.98 -20.69,444.09 -21.55,435.58 -22.41,427.08 -23.06,417.92 -23.70,408.76 -23.50,401.16 -23.31,393.57 -23.28,385.16 -23.26,376.75 -23.24,367.80 -23.22,358.84 -23.18,347.24 -23.13,335.65 -23.02,321.88 -22.90,308.12 -22.61,293.31 -22.32,278.49 -21.62,265.57 -20.92,252.65 -20.58,240.90 -20.25,229.15 -19.45,218.12 -18.65,207.09 -18.03,192.98 -17.42,178.86 -15.94,163.72 -14.46,148.58 -13.55,132.93 -12.65,117.28 -11.73,104.91 -10.81,92.55 -9.85,81.52 -8.88,70.49 -8.99,61.22 -9.09,51.95 -8.40,46.01 -7.72,40.07 -7.41,34.71 -7.10,29.35 -7.04,22.15 -6.98,14.95 -6.97,7.47 -6.95,0 -6.85,-0.83 -6.75,-1.66 -6.45,-2.44 -6.16,-3.23 -5.68,-3.92 -5.20,-4.61 -4.58,-5.17 -3.95,-5.72 -3.21,-6.11 -2.46,-6.50 -1.65,-6.70 -0.83,-6.90 0.00,-6.90 0.83,-6.90 1.65,-6.70 2.46,-6.50 3.21,-6.11 3.95,-5.72 4.58,-5.17 5.20,-4.61 5.68,-3.92 6.16,-3.23 6.45,-2.44 6.75,-1.66 6.85,-0.83 6.95,0.00 6.95,0.00 L 6.95,0 Z"></path></g><g transform="translate(417.0555555555553 154.35317460317492) rotate(0 -15 310)" stroke="none"><path fill="#000000" d="M 6.79,1.85 Q 6.79,1.85 5.23,8.22 3.66,14.59 1.93,20.43 0.20,26.27 -1.05,32.74 -2.31,39.21 -2.73,45.23 -3.16,51.25 -3.75,59.46 -4.35,67.68 -4.65,75.82 -4.95,83.96 -5.21,94.31 -5.48,104.67 -5.66,118.28 -5.84,131.88 -7.71,152.29 -9.57,172.70 -10.96,192.70 -12.36,212.70 -14.13,229.95 -15.91,247.19 -16.67,260.11 -17.44,273.02 -18.35,285.50 -19.27,297.99 -19.67,308.35 -20.06,318.72 -20.82,329.01 -21.58,339.31 -21.90,348.71 -22.22,358.11 -22.36,367.28 -22.50,376.45 -22.56,387.24 -22.62,398.03 -22.65,408.37 -22.68,418.71 -22.69,428.86 -22.71,439.00 -22.55,446.76 -22.39,454.53 -22.52,459.92 -22.65,465.31 -22.47,469.58 -22.29,473.84 -21.80,482.52 -21.32,491.20 -21.08,495.45 -20.85,499.71 -20.67,504.39 -20.50,509.07 -20.32,513.36 -20.14,517.65 -19.53,522.38 -18.93,527.11 -17.02,533.65 -15.10,540.19 -13.67,545.58 -12.23,550.96 -10.63,559.10 -9.03,567.24 -7.50,572.76 -5.97,578.28 -4.98,584.08 -3.99,589.88 -2.95,594.51 -1.90,599.13 -1.50,605.43 -1.09,611.73 -1.03,615.10 -0.96,618.47 -1.30,620.55 -1.63,622.63 -2.61,624.50 -3.59,626.37 -5.12,627.83 -6.64,629.28 -8.55,630.17 -10.47,631.07 -12.56,631.30 -14.66,631.54 -16.72,631.09 -18.78,630.65 -20.59,629.57 -22.40,628.49 -23.78,626.88 -25.15,625.28 -25.93,623.33 -26.72,621.37 -26.84,619.26 -26.97,617.16 -26.41,615.12 -25.85,613.09 -24.68,611.34 -23.50,609.59 -21.82,608.31 -20.15,607.02 -18.15,606.34 -16.16,605.66 -14.05,605.65 -11.94,605.65 -9.94,606.31 -7.94,606.98 -6.25,608.25 -4.57,609.52 -3.38,611.26 -2.19,613.00 -1.62,615.03 -1.05,617.06 -1.15,619.17 -1.26,621.28 -2.03,623.24 -2.81,625.20 -4.17,626.81 -5.53,628.43 -7.33,629.52 -9.13,630.61 -11.19,631.07 -13.25,631.53 -15.35,631.31 -17.44,631.09 -19.36,630.21 -21.28,629.34 -22.82,627.89 -24.35,626.44 -25.35,624.58 -26.34,622.72 -26.69,620.64 -27.04,618.56 -27.04,618.57 -27.04,618.57 -27.00,615.24 -26.96,611.92 -26.99,605.47 -27.02,599.03 -27.76,593.74 -28.49,588.44 -29.53,583.42 -30.56,578.39 -31.48,571.00 -32.39,563.61 -33.89,556.70 -35.40,549.79 -36.34,544.00 -37.29,538.21 -38.02,533.75 -38.75,529.28 -39.30,523.46 -39.84,517.65 -39.66,513.34 -39.47,509.04 -39.28,504.34 -39.09,499.63 -38.81,495.33 -38.54,491.03 -38.22,486.32 -37.90,481.61 -37.44,477.32 -36.98,473.03 -36.31,468.43 -35.63,463.82 -34.61,459.17 -33.59,454.51 -33.42,446.75 -33.25,438.99 -33.25,428.84 -33.24,418.69 -33.22,408.33 -33.20,397.98 -33.15,387.14 -33.10,376.29 -32.98,367.03 -32.85,357.76 -32.55,348.15 -32.24,338.54 -31.53,328.44 -30.82,318.33 -30.46,307.78 -30.10,297.22 -29.26,284.82 -28.41,272.41 -27.72,259.25 -27.03,246.08 -25.39,229.02 -23.76,211.96 -22.53,191.82 -21.30,171.69 -19.69,151.77 -18.09,131.86 -18.23,118.24 -18.38,104.61 -18.55,94.20 -18.73,83.78 -18.82,75.52 -18.91,67.25 -19.01,58.52 -19.10,49.79 -18.36,42.99 -17.61,36.19 -16.12,28.73 -14.63,21.27 -12.60,15.99 -10.56,10.70 -8.68,4.42 -6.79,-1.85 -6.47,-2.63 -6.15,-3.42 -5.65,-4.11 -5.15,-4.79 -4.50,-5.34 -3.85,-5.89 -3.09,-6.27 -2.33,-6.64 -1.50,-6.82 -0.67,-7.01 0.17,-6.99 1.02,-6.97 1.84,-6.74 2.65,-6.52 3.40,-6.11 4.14,-5.69 4.76,-5.11 5.38,-4.53 5.85,-3.82 6.31,-3.11 6.59,-2.31 6.87,-1.51 6.96,-0.67 7.04,0.17 6.91,1.01 6.79,1.85 6.79,1.85 L 6.79,1.85 Z"></path></g><g transform="translate(629.0555555555554 160.35317460317492) rotate(0 -18 305)" stroke="none"><path fill="#000000" d="M 6.11,1.28 Q 6.11,1.28 3.68,12.18 1.24,23.08 -0.97,32.89 -3.20,42.71 -5.31,53.68 -7.42,64.65 -8.88,80.03 -10.35,95.40 -12.15,111.85 -13.96,128.31 -15.31,145.55 -16.65,162.79 -18.39,178.86 -20.13,194.93 -20.86,210.76 -21.59,226.59 -22.49,240.91 -23.39,255.22 -24.35,267.09 -25.31,278.95 -25.72,289.04 -26.12,299.13 -26.29,308.01 -26.47,316.89 -26.98,324.89 -27.49,332.89 -28.16,340.35 -28.82,347.81 -28.97,354.78 -29.13,361.75 -28.95,367.59 -28.77,373.44 -28.66,379.92 -28.55,386.40 -28.29,394.68 -28.04,402.95 -27.44,411.68 -26.85,420.40 -26.06,428.70 -25.27,437.00 -24.23,444.50 -23.19,452.01 -22.52,458.87 -21.86,465.72 -21.33,470.94 -20.79,476.15 -20.42,481.27 -20.04,486.40 -19.22,490.97 -18.40,495.54 -17.87,500.22 -17.35,504.90 -15.92,511.59 -14.49,518.28 -13.14,524.36 -11.78,530.44 -10.50,536.42 -9.21,542.40 -7.97,547.53 -6.74,552.66 -5.91,559.55 -5.09,566.44 -4.47,572.62 -3.86,578.79 -3.68,585.34 -3.51,591.89 -3.30,597.25 -3.08,602.61 -3.03,605.64 -2.98,608.66 -3.32,610.74 -3.66,612.81 -4.65,614.67 -5.63,616.53 -7.16,617.98 -8.69,619.43 -10.60,620.32 -12.51,621.20 -14.60,621.43 -16.70,621.66 -18.75,621.20 -20.81,620.75 -22.61,619.67 -24.42,618.58 -25.78,616.98 -27.14,615.37 -27.92,613.42 -28.70,611.46 -28.82,609.36 -28.93,607.26 -28.37,605.23 -27.81,603.20 -26.63,601.46 -25.44,599.72 -23.77,598.44 -22.09,597.17 -20.10,596.50 -18.10,595.82 -16.00,595.82 -13.89,595.82 -11.90,596.49 -9.90,597.17 -8.23,598.44 -6.55,599.71 -5.37,601.46 -4.19,603.20 -3.62,605.23 -3.06,607.25 -3.17,609.36 -3.29,611.46 -4.07,613.41 -4.85,615.37 -6.21,616.98 -7.57,618.58 -9.37,619.67 -11.18,620.75 -13.23,621.20 -15.29,621.66 -17.38,621.43 -19.48,621.20 -21.39,620.32 -23.30,619.43 -24.83,617.99 -26.35,616.54 -27.34,614.68 -28.33,612.82 -28.67,610.74 -29.01,608.66 -29.01,608.67 -29.01,608.67 -28.96,605.65 -28.92,602.63 -28.73,597.36 -28.54,592.08 -28.50,585.87 -28.47,579.66 -28.61,575.02 -28.76,570.38 -29.42,565.85 -30.09,561.31 -30.11,556.44 -30.13,551.58 -30.94,545.79 -31.76,540.01 -32.45,533.83 -33.14,527.66 -33.76,521.04 -34.38,514.43 -34.88,506.01 -35.38,497.59 -35.77,492.12 -36.17,486.64 -35.94,481.65 -35.71,476.66 -35.53,471.61 -35.34,466.55 -35.50,460.08 -35.66,453.60 -36.55,445.97 -37.44,438.34 -38.48,429.95 -39.53,421.57 -40.55,412.70 -41.57,403.82 -42.41,395.04 -43.25,386.26 -43.00,379.67 -42.76,373.07 -42.28,367.09 -41.80,361.11 -41.23,353.78 -40.66,346.45 -39.62,339.21 -38.58,331.97 -37.80,324.33 -37.01,316.69 -36.85,307.70 -36.68,298.71 -36.27,288.41 -35.87,278.10 -34.93,266.34 -33.99,254.57 -33.11,240.34 -32.24,226.11 -31.52,209.95 -30.79,193.79 -29.11,177.88 -27.42,161.97 -26.11,144.55 -24.81,127.14 -23.08,110.76 -21.36,94.38 -19.93,78.49 -18.50,62.60 -16.50,51.43 -14.50,40.26 -12.47,30.44 -10.44,20.61 -8.28,9.66 -6.11,-1.28 -5.87,-2.00 -5.62,-2.71 -5.22,-3.34 -4.81,-3.98 -4.26,-4.49 -3.72,-5.01 -3.06,-5.39 -2.41,-5.76 -1.68,-5.96 -0.96,-6.17 -0.21,-6.19 0.54,-6.22 1.27,-6.07 2.01,-5.91 2.69,-5.58 3.37,-5.26 3.95,-4.78 4.53,-4.30 4.98,-3.69 5.43,-3.09 5.72,-2.39 6.01,-1.70 6.12,-0.95 6.24,-0.21 6.17,0.53 6.11,1.28 6.11,1.28 L 6.11,1.28 Z"></path></g><g transform="translate(829.0555555555552 162.35317460317492) rotate(0 -6 301)" stroke="none"><path fill="#000000" d="M 6.59,0 Q 6.59,0 6.65,7.47 6.70,14.95 6.54,23.30 6.38,31.65 5.86,39.47 5.33,47.29 5.20,54.40 5.08,61.51 4.77,71.98 4.47,82.46 4.28,96.12 4.09,109.78 3.97,123.07 3.84,136.36 3.76,148.33 3.67,160.30 3.03,172.42 2.40,184.54 2.11,194.74 1.83,204.94 1.69,214.45 1.56,223.95 0.91,233.90 0.27,243.85 -1.77,254.11 -3.82,264.38 -4.64,274.61 -5.45,284.84 -7.58,296.48 -9.70,308.12 -10.56,320.15 -11.41,332.17 -11.79,342.49 -12.17,352.80 -12.07,360.07 -11.98,367.33 -11.67,373.28 -11.36,379.23 -11.09,385.20 -10.82,391.17 -10.49,396.01 -10.16,400.85 -10.10,407.50 -10.04,414.16 -9.93,420.44 -9.82,426.71 -9.63,432.26 -9.45,437.80 -9.33,443.61 -9.21,449.41 -9.22,455.88 -9.24,462.35 -8.03,466.42 -6.82,470.50 -5.64,476.25 -4.47,481.99 -3.79,487.07 -3.11,492.15 -2.77,497.28 -2.43,502.41 -0.74,510.08 0.94,517.75 3.01,524.84 5.09,531.93 6.57,538.22 8.06,544.50 8.85,551.05 9.64,557.59 10.94,563.94 12.25,570.29 13.31,575.90 14.37,581.51 15.53,586.44 16.70,591.38 17.27,593.53 17.84,595.69 18.38,597.78 18.93,599.88 18.78,602.04 18.62,604.20 17.79,606.20 16.96,608.19 15.53,609.82 14.10,611.45 12.23,612.54 10.36,613.62 8.24,614.05 6.11,614.48 3.97,614.22 1.82,613.95 -0.12,613.01 -2.07,612.07 -3.62,610.55 -5.17,609.04 -6.15,607.11 -7.13,605.18 -7.45,603.04 -7.77,600.90 -7.38,598.77 -7.00,596.64 -5.95,594.74 -4.91,592.84 -3.31,591.38 -1.72,589.92 0.25,589.04 2.23,588.16 4.39,587.96 6.54,587.76 8.65,588.26 10.76,588.76 12.59,589.91 14.43,591.06 15.81,592.73 17.18,594.40 17.95,596.42 18.72,598.45 18.80,600.61 18.88,602.77 18.27,604.85 17.66,606.93 16.41,608.70 15.17,610.47 13.42,611.75 11.68,613.04 9.62,613.69 7.55,614.35 5.39,614.32 3.22,614.28 1.18,613.56 -0.85,612.83 -2.55,611.49 -4.25,610.16 -5.43,608.34 -6.62,606.53 -6.62,606.53 -6.62,606.54 -7.94,600.17 -9.26,593.81 -10.19,589.39 -11.12,584.97 -11.87,580.79 -12.61,576.61 -12.58,571.32 -12.55,566.03 -13.31,560.25 -14.06,554.47 -14.88,548.17 -15.70,541.88 -16.74,536.13 -17.77,530.38 -18.62,526.17 -19.47,521.95 -20.23,517.50 -21.00,513.05 -21.57,508.12 -22.13,503.20 -22.18,498.60 -22.22,494.00 -22.44,489.72 -22.66,485.44 -23.62,479.99 -24.57,474.53 -25.66,468.49 -26.75,462.45 -26.76,455.93 -26.78,449.41 -26.66,443.60 -26.54,437.80 -26.35,432.25 -26.16,426.71 -26.05,420.43 -25.94,414.14 -25.86,407.48 -25.79,400.81 -25.44,395.96 -25.08,391.11 -24.76,385.10 -24.43,379.09 -23.98,373.08 -23.53,367.08 -23.12,359.75 -22.71,352.42 -22.33,341.92 -21.96,331.42 -21.04,318.82 -20.12,306.22 -18.08,295.10 -16.04,283.99 -15.17,273.14 -14.29,262.29 -12.36,252.72 -10.44,243.16 -9.84,233.49 -9.25,223.83 -9.18,214.26 -9.10,204.68 -8.89,194.34 -8.69,184.00 -8.17,172.15 -7.65,160.29 -7.72,148.31 -7.79,136.34 -7.87,123.04 -7.96,109.75 -8.06,96.04 -8.17,82.33 -8.26,71.70 -8.35,61.06 -7.99,53.68 -7.63,46.31 -7.01,38.98 -6.38,31.65 -6.54,23.30 -6.70,14.95 -6.65,7.47 -6.59,0 -6.50,-0.78 -6.40,-1.57 -6.12,-2.32 -5.84,-3.06 -5.38,-3.72 -4.93,-4.37 -4.34,-4.90 -3.74,-5.42 -3.04,-5.79 -2.33,-6.16 -1.56,-6.35 -0.79,-6.54 0.00,-6.54 0.79,-6.54 1.56,-6.35 2.33,-6.16 3.04,-5.79 3.74,-5.42 4.34,-4.90 4.93,-4.37 5.39,-3.71 5.84,-3.06 6.12,-2.32 6.40,-1.57 6.50,-0.78 6.59,0.00 6.59,0.00 L 6.59,0 Z"></path></g><g transform="translate(1003.0555555555552 300.3531746031749) rotate(0 -450.99999999999994 14)" stroke="none"><path fill="#000000" d="M 0,6.40 Q 0,6.40 -6.32,6.67 -12.64,6.94 -21.66,6.71 -30.67,6.48 -46.00,6.32 -61.33,6.15 -77.62,6.03 -93.91,5.90 -110.41,6.96 -126.92,8.01 -142.06,9.01 -157.21,10.01 -169.83,11.55 -182.44,13.09 -195.78,15.44 -209.12,17.79 -222.48,19.38 -235.83,20.98 -248.16,23.34 -260.49,25.69 -271.23,26.74 -281.97,27.78 -290.99,28.78 -300.02,29.77 -307.44,30.46 -314.86,31.14 -320.91,31.71 -326.96,32.27 -333.58,32.57 -340.21,32.87 -347.62,32.93 -355.04,32.98 -362.79,32.94 -370.54,32.90 -377.86,32.95 -385.17,33.01 -392.02,33.64 -398.87,34.27 -406.09,34.60 -413.31,34.92 -420.41,35.09 -427.50,35.25 -434.54,35.35 -441.58,35.44 -449.75,35.25 -457.92,35.05 -468.30,34.81 -478.67,34.57 -487.10,34.41 -495.53,34.25 -503.71,34.20 -511.90,34.14 -518.83,34.35 -525.75,34.56 -533.55,34.02 -541.35,33.47 -547.88,33.43 -554.41,33.39 -561.19,33.41 -567.97,33.42 -573.17,33.68 -578.36,33.94 -583.39,33.61 -588.42,33.27 -595.50,33.47 -602.57,33.67 -611.27,33.86 -619.97,34.04 -624.58,34.15 -629.19,34.26 -634.59,34.27 -640.00,34.28 -645.75,34.24 -651.50,34.20 -656.82,34.22 -662.13,34.25 -667.27,34.29 -672.40,34.34 -676.89,34.44 -681.37,34.54 -686.72,34.54 -692.08,34.53 -698.38,34.38 -704.68,34.23 -710.23,34.22 -715.79,34.21 -724.66,33.85 -733.54,33.48 -738.80,33.47 -744.06,33.46 -748.39,32.86 -752.72,32.25 -757.76,32.16 -762.79,32.08 -769.75,31.44 -776.70,30.80 -781.02,30.88 -785.34,30.96 -793.01,30.27 -800.69,29.58 -806.93,28.46 -813.16,27.34 -818.33,26.79 -823.51,26.23 -828.40,26.01 -833.30,25.78 -837.57,25.02 -841.84,24.26 -846.23,24.05 -850.63,23.84 -855.58,23.96 -860.52,24.08 -865.34,24.18 -870.16,24.27 -875.48,25.29 -880.80,26.31 -886.10,27.22 -891.41,28.12 -896.24,28.40 -901.07,28.69 -903.43,28.34 -905.78,28.00 -907.90,26.93 -910.03,25.85 -911.69,24.15 -913.36,22.45 -914.40,20.31 -915.44,18.17 -915.74,15.81 -916.04,13.45 -915.57,11.12 -915.10,8.79 -913.91,6.73 -912.72,4.67 -910.93,3.09 -909.15,1.52 -906.95,0.60 -904.76,-0.31 -902.38,-0.48 -900.01,-0.65 -897.71,-0.06 -895.40,0.53 -893.41,1.83 -891.42,3.13 -889.94,4.99 -888.47,6.86 -887.67,9.10 -886.87,11.34 -886.83,13.72 -886.79,16.10 -887.51,18.37 -888.22,20.64 -889.63,22.56 -891.04,24.48 -892.98,25.85 -894.93,27.22 -897.21,27.90 -899.49,28.57 -901.87,28.49 -904.24,28.40 -906.47,27.56 -908.69,26.72 -910.54,25.21 -912.38,23.70 -913.64,21.69 -914.90,19.67 -915.45,17.35 -916.01,15.04 -915.79,12.67 -915.58,10.30 -914.62,8.12 -913.66,5.95 -912.05,4.19 -910.45,2.44 -908.36,1.28 -906.28,0.13 -903.94,-0.28 -901.60,-0.71 -901.60,-0.71 -901.60,-0.71 -899.51,-0.20 -897.41,0.30 -889.24,-0.90 -881.08,-2.12 -874.37,-3.17 -867.67,-4.23 -862.05,-4.10 -856.44,-3.96 -851.53,-3.74 -846.63,-3.51 -841.65,-2.96 -836.67,-2.42 -830.62,-1.84 -824.57,-1.26 -819.46,-0.37 -814.35,0.51 -809.19,1.66 -804.04,2.81 -798.71,3.46 -793.38,4.12 -789.07,4.64 -784.76,5.16 -780.13,5.50 -775.51,5.83 -770.36,6.89 -765.21,7.95 -760.74,8.33 -756.26,8.71 -749.75,9.77 -743.23,10.83 -736.87,11.52 -730.51,12.21 -723.15,12.99 -715.79,13.78 -710.23,13.77 -704.68,13.76 -698.38,13.61 -692.08,13.46 -686.72,13.45 -681.37,13.45 -676.89,13.55 -672.40,13.65 -667.27,13.70 -662.13,13.74 -656.81,13.77 -651.49,13.80 -645.74,13.76 -639.99,13.72 -634.57,13.74 -629.15,13.75 -624.52,13.88 -619.90,14.00 -614.39,14.05 -608.89,14.11 -601.44,14.73 -593.98,15.35 -586.10,16.76 -578.22,18.18 -572.98,18.53 -567.75,18.87 -560.83,19.10 -553.90,19.32 -547.12,19.77 -540.34,20.22 -533.05,20.82 -525.75,21.43 -518.83,21.64 -511.90,21.85 -503.72,21.79 -495.54,21.73 -487.11,21.56 -478.68,21.39 -468.32,21.14 -457.96,20.88 -449.82,20.65 -441.68,20.42 -434.70,20.42 -427.72,20.43 -420.77,20.39 -413.82,20.34 -406.92,20.18 -400.03,20.01 -392.61,19.49 -385.19,18.96 -377.88,19.01 -370.56,19.05 -362.83,18.98 -355.10,18.91 -347.74,18.90 -340.37,18.89 -333.87,19.04 -327.36,19.18 -321.45,19.38 -315.54,19.58 -308.37,19.41 -301.19,19.23 -292.10,18.21 -283.00,17.19 -272.75,16.19 -262.51,15.19 -249.82,12.74 -237.13,10.29 -224.08,8.69 -211.03,7.09 -197.42,4.63 -183.81,2.17 -170.91,0.50 -158.00,-1.15 -142.85,-2.28 -127.70,-3.41 -110.81,-4.66 -93.91,-5.90 -77.62,-6.03 -61.33,-6.15 -46.00,-6.32 -30.67,-6.48 -21.66,-6.71 -12.64,-6.94 -6.32,-6.67 0,-6.40 0.76,-6.31 1.53,-6.22 2.25,-5.94 2.97,-5.67 3.61,-5.23 4.24,-4.79 4.76,-4.21 5.27,-3.63 5.63,-2.95 5.99,-2.27 6.17,-1.52 6.36,-0.77 6.36,0.00 6.36,0.77 6.17,1.52 5.99,2.27 5.63,2.95 5.27,3.64 4.76,4.21 4.24,4.79 3.61,5.23 2.97,5.67 2.25,5.94 1.53,6.22 0.76,6.31 -0.00,6.40 -0.00,6.40 L 0,6.40 Z"></path></g><g transform="translate(95.05555555555543 446.3531746031749) rotate(0 449.99999999999994 10)" stroke="none"><path fill="#000000" d="M 2.11,-6.33 Q 2.11,-6.33 7.39,-4.93 12.67,-3.52 18.66,-1.14 24.65,1.24 31.76,2.26 38.86,3.29 48.54,4.56 58.22,5.83 69.62,6.45 81.03,7.06 95.10,7.38 109.16,7.71 122.63,7.89 136.09,8.07 148.71,8.18 161.34,8.29 171.30,8.36 181.27,8.43 190.10,8.48 198.94,8.52 207.87,8.55 216.79,8.58 224.62,8.45 232.44,8.32 240.57,8.83 248.70,9.34 257.12,9.66 265.53,9.97 274.29,10.13 283.04,10.29 291.94,10.37 300.84,10.46 309.22,10.48 317.60,10.50 329.22,10.54 340.83,10.58 353.24,10.60 365.65,10.63 379.44,10.07 393.23,9.51 405.27,8.15 417.31,6.78 429.46,5.61 441.60,4.45 451.46,3.95 461.33,3.45 471.87,3.24 482.42,3.03 492.50,2.38 502.58,1.72 512.18,1.43 521.78,1.15 532.20,1.03 542.61,0.91 552.78,0.86 562.96,0.81 574.05,0.22 585.14,-0.36 595.15,-0.62 605.16,-0.87 615.18,-0.98 625.19,-1.09 635.20,-1.14 645.20,-1.18 654.63,-1.20 664.05,-1.22 673.51,-2.36 682.96,-3.50 691.86,-4.01 700.77,-4.51 709.17,-4.77 717.57,-5.02 724.00,-5.49 730.44,-5.96 735.48,-6.42 740.52,-6.88 745.54,-7.25 750.56,-7.61 756.15,-7.85 761.74,-8.09 769.30,-8.67 776.87,-9.24 782.33,-9.69 787.80,-10.13 793.94,-10.48 800.09,-10.82 804.54,-11.10 808.98,-11.37 815.62,-10.01 822.27,-8.65 828.43,-7.61 834.60,-6.56 841.53,-4.76 848.47,-2.97 855.48,-2.09 862.49,-1.21 868.10,-0.27 873.72,0.65 878.73,1.44 883.74,2.23 889.81,3.94 895.87,5.65 898.99,5.98 902.10,6.30 904.18,7.12 906.27,7.93 907.98,9.37 909.70,10.80 910.86,12.71 912.03,14.62 912.52,16.81 913.02,18.99 912.79,21.21 912.56,23.44 911.64,25.48 910.71,27.51 909.18,29.15 907.66,30.78 905.69,31.84 903.72,32.91 901.51,33.28 899.31,33.66 897.09,33.31 894.88,32.96 892.90,31.93 890.92,30.89 889.37,29.28 887.82,27.67 886.87,25.64 885.91,23.62 885.66,21.39 885.40,19.17 885.87,16.98 886.33,14.79 887.47,12.87 888.61,10.94 890.31,9.48 892.01,8.02 894.08,7.18 896.15,6.34 898.39,6.21 900.62,6.07 902.78,6.65 904.94,7.24 906.80,8.48 908.66,9.73 910.03,11.50 911.39,13.27 912.12,15.39 912.85,17.50 912.86,19.74 912.88,21.98 912.18,24.10 911.48,26.23 910.13,28.02 908.79,29.81 906.95,31.08 905.10,32.34 902.95,32.96 900.80,33.57 898.56,33.46 896.33,33.35 896.33,33.35 896.33,33.36 893.59,32.39 890.85,31.42 885.77,30.16 880.69,28.89 876.00,27.81 871.30,26.73 866.28,25.57 861.25,24.40 854.73,23.12 848.20,21.83 842.38,20.30 836.55,18.77 830.12,17.49 823.69,16.20 816.22,13.79 808.75,11.37 804.42,11.10 800.09,10.82 793.94,10.48 787.80,10.13 782.34,9.69 776.87,9.24 769.32,8.68 761.76,8.11 756.19,7.89 750.61,7.66 745.62,7.33 740.62,6.99 735.61,6.61 730.60,6.22 724.22,5.93 717.83,5.64 709.60,5.81 701.36,5.97 692.78,6.45 684.20,6.92 674.14,8.10 664.08,9.28 654.67,9.30 645.25,9.32 635.28,9.36 625.31,9.41 615.37,9.52 605.43,9.62 595.56,9.88 585.69,10.13 574.35,10.73 563.01,11.33 552.87,11.38 542.73,11.43 532.41,11.55 522.09,11.68 512.68,11.96 503.26,12.24 492.95,12.91 482.63,13.58 472.25,13.79 461.86,14.01 452.24,14.50 442.62,14.99 430.57,16.16 418.51,17.33 406.09,18.75 393.67,20.17 379.66,20.76 365.65,21.35 353.23,21.37 340.82,21.39 329.20,21.41 317.58,21.43 309.18,21.42 300.79,21.40 291.85,21.40 282.91,21.39 274.06,21.34 265.20,21.30 256.53,21.12 247.86,20.95 240.15,20.31 232.43,19.67 224.61,19.53 216.79,19.40 207.86,19.42 198.93,19.45 190.09,19.49 181.25,19.52 171.28,19.56 161.31,19.60 148.67,19.64 136.02,19.69 122.52,19.71 109.01,19.74 94.78,19.69 80.56,19.65 68.70,19.40 56.83,19.14 46.93,18.38 37.03,17.61 27.83,16.55 18.64,15.48 13.33,12.95 8.02,10.42 2.95,8.38 -2.11,6.33 -2.83,5.99 -3.56,5.64 -4.19,5.13 -4.81,4.62 -5.29,3.98 -5.78,3.34 -6.09,2.60 -6.41,1.86 -6.54,1.06 -6.67,0.27 -6.60,-0.53 -6.54,-1.33 -6.28,-2.09 -6.03,-2.86 -5.60,-3.54 -5.17,-4.22 -4.59,-4.77 -4.01,-5.33 -3.31,-5.74 -2.62,-6.14 -1.84,-6.36 -1.07,-6.59 -0.26,-6.62 0.53,-6.65 1.32,-6.49 2.11,-6.33 2.11,-6.33 L 2.11,-6.33 Z"></path></g><g transform="translate(1001.0555555555552 594.3531746031749) rotate(0 -444.99999999999994 6)" stroke="none"><path fill="#000000" d="M 0.73,6.20 Q 0.73,6.20 -9.06,7.22 -18.85,8.23 -28.96,8.64 -39.07,9.04 -52.58,9.18 -66.09,9.32 -83.41,8.78 -100.73,8.24 -120.64,8.00 -140.55,7.75 -158.79,7.64 -177.03,7.52 -193.60,6.31 -210.16,5.10 -223.36,4.58 -236.55,4.07 -246.76,3.84 -256.96,3.62 -264.74,3.68 -272.52,3.74 -278.41,4.63 -284.29,5.53 -289.56,6.67 -294.84,7.80 -300.91,8.44 -306.99,9.08 -312.01,10.03 -317.03,10.97 -324.84,11.19 -332.66,11.41 -340.62,12.32 -348.58,13.23 -357.63,13.54 -366.69,13.86 -373.94,14.20 -381.19,14.54 -386.58,14.97 -391.96,15.40 -397.72,15.67 -403.48,15.94 -408.35,16.73 -413.21,17.52 -419.79,17.85 -426.37,18.19 -433.17,18.27 -439.96,18.36 -447.45,18.24 -454.94,18.12 -462.14,18.06 -469.35,18.01 -474.71,18.23 -480.07,18.46 -484.64,18.71 -489.22,18.96 -494.05,19.15 -498.87,19.33 -503.79,19.48 -508.71,19.62 -513.11,20.28 -517.52,20.93 -522.22,21.35 -526.91,21.77 -533.38,22.26 -539.86,22.76 -544.91,23.07 -549.97,23.38 -557.77,23.51 -565.58,23.63 -570.87,23.54 -576.17,23.45 -581.87,23.32 -587.58,23.18 -593.47,22.52 -599.36,21.85 -605.24,21.44 -611.13,21.02 -616.57,20.88 -622.00,20.73 -628.78,19.92 -635.55,19.10 -641.43,18.75 -647.31,18.41 -653.29,18.23 -659.26,18.06 -665.22,16.81 -671.18,15.56 -676.50,15.28 -681.81,15.01 -686.06,15.19 -690.31,15.38 -696.82,15.56 -703.33,15.74 -710.11,15.86 -716.90,15.97 -722.22,17.69 -727.55,19.41 -734.57,19.89 -741.59,20.36 -747.06,21.32 -752.53,22.28 -759.78,22.50 -767.03,22.73 -773.25,22.82 -779.46,22.92 -784.11,23.03 -788.75,23.14 -793.44,23.23 -798.14,23.31 -803.08,23.37 -808.03,23.44 -813.17,23.59 -818.32,23.74 -822.56,24.57 -826.81,25.39 -831.82,25.98 -836.82,26.57 -843.94,27.07 -851.06,27.57 -856.55,27.74 -862.04,27.90 -867.52,27.89 -872.99,27.88 -879.83,27.21 -886.66,26.54 -888.73,26.30 -890.81,26.05 -892.98,25.38 -895.15,24.71 -896.99,23.38 -898.83,22.05 -900.15,20.20 -901.47,18.36 -902.13,16.19 -902.79,14.01 -902.73,11.74 -902.66,9.48 -901.87,7.35 -901.09,5.22 -899.66,3.45 -898.23,1.68 -896.32,0.47 -894.40,-0.74 -892.20,-1.29 -889.99,-1.83 -887.73,-1.64 -885.47,-1.45 -883.39,-0.55 -881.30,0.34 -879.62,1.86 -877.93,3.38 -876.82,5.36 -875.70,7.34 -875.28,9.57 -874.86,11.80 -875.17,14.05 -875.48,16.30 -876.49,18.33 -877.51,20.36 -879.12,21.96 -880.72,23.56 -882.76,24.57 -884.80,25.57 -887.05,25.87 -889.30,26.17 -891.52,25.74 -893.75,25.31 -895.73,24.19 -897.70,23.07 -899.21,21.37 -900.73,19.68 -901.62,17.59 -902.51,15.50 -902.69,13.24 -902.87,10.98 -902.32,8.78 -901.76,6.57 -900.54,4.66 -899.31,2.75 -897.54,1.34 -895.76,-0.07 -893.63,-0.85 -891.50,-1.63 -889.23,-1.68 -886.96,-1.74 -886.96,-1.74 -886.96,-1.74 -879.99,-0.81 -873.01,0.11 -867.62,0.09 -862.23,0.06 -857.16,0.08 -852.09,0.09 -847.29,-0.15 -842.49,-0.40 -834.38,-1.30 -826.28,-2.20 -818.87,-2.86 -811.46,-3.53 -807.06,-3.46 -802.66,-3.39 -797.79,-3.32 -792.92,-3.25 -788.66,-3.14 -784.40,-3.04 -778.95,-2.97 -773.50,-2.89 -767.32,-2.89 -761.14,-2.90 -755.77,-3.07 -750.39,-3.24 -743.89,-3.94 -737.39,-4.64 -732.47,-4.87 -727.55,-5.11 -719.07,-6.48 -710.59,-7.86 -703.75,-7.68 -696.90,-7.50 -690.67,-7.20 -684.43,-6.89 -679.71,-6.23 -675.00,-5.56 -666.89,-3.64 -658.79,-1.73 -652.62,-1.68 -646.46,-1.63 -640.02,-1.45 -633.58,-1.27 -627.59,-0.85 -621.60,-0.43 -615.95,-0.36 -610.30,-0.30 -603.64,-0.23 -596.97,-0.15 -592.27,0.32 -587.56,0.81 -581.87,0.67 -576.17,0.54 -570.88,0.45 -565.58,0.36 -561.25,0.38 -556.91,0.40 -550.81,0.62 -544.70,0.84 -539.84,1.10 -534.98,1.36 -527.38,1.36 -519.78,1.35 -514.25,0.86 -508.73,0.36 -503.80,0.51 -498.87,0.65 -494.06,0.84 -489.24,1.02 -484.66,1.26 -480.09,1.51 -474.74,1.72 -469.39,1.93 -462.21,1.83 -455.04,1.74 -447.64,1.53 -440.24,1.31 -433.65,1.19 -427.05,1.06 -421.07,0.89 -415.09,0.72 -409.35,0.32 -403.60,-0.06 -397.92,0.12 -392.24,0.30 -386.94,0.53 -381.64,0.76 -374.58,0.64 -367.52,0.52 -359.14,-0.24 -350.76,-1.01 -342.04,-2.66 -333.32,-4.31 -326.26,-4.71 -319.19,-5.10 -313.54,-5.60 -307.88,-6.09 -302.38,-6.13 -296.87,-6.18 -291.13,-6.65 -285.39,-7.11 -278.89,-7.29 -272.39,-7.47 -264.56,-7.23 -256.74,-6.99 -246.44,-6.78 -236.15,-6.58 -222.77,-6.08 -209.39,-5.58 -193.18,-4.42 -176.98,-3.26 -158.71,-3.20 -140.43,-3.14 -120.42,-2.97 -100.41,-2.80 -83.34,-2.37 -66.26,-1.94 -52.95,-2.21 -39.64,-2.49 -29.94,-3.06 -20.24,-3.63 -10.48,-4.92 -0.73,-6.20 0.02,-6.20 0.77,-6.20 1.50,-6.01 2.23,-5.83 2.90,-5.48 3.56,-5.12 4.13,-4.62 4.69,-4.12 5.11,-3.50 5.54,-2.88 5.80,-2.17 6.07,-1.47 6.16,-0.72 6.24,0.02 6.15,0.77 6.06,1.51 5.79,2.22 5.52,2.92 5.09,3.54 4.66,4.16 4.09,4.65 3.53,5.15 2.86,5.50 2.19,5.85 1.46,6.02 0.72,6.20 0.72,6.20 L 0.73,6.20 Z"></path></g><g stroke-linecap="round" transform="translate(18.888888888888914 156.66666666666606) rotate(0 47.22222222222223 50.55555555555566)"><path d="M24.96 -3.49 L75.16 -1.98 L83.35 1.16 L89.08 5.93 L93.69 26.98 L97.1 74.54 L94.89 91.51 L82.48 98.37 L67.52 102.14 L15.53 99.67 L12.6 95.18 L1.55 93.28 L3.14 75.89 L2.28 17.04 L4.34 7.29 L11.37 1.79 L24.67 -0.62" stroke="none" stroke-width="0" fill="#228be6"></path><path d="M23.61 0 M23.61 0 C38.54 -0.03, 52.81 2.83, 70.83 0 M23.61 0 C42.33 0.66, 58.96 -1.72, 70.83 0 M70.83 0 C84.72 2.88, 93.74 5.52, 94.44 23.61 M70.83 0 C91.08 0.31, 92.24 10.64, 94.44 23.61 M94.44 23.61 C92.37 45.17, 95 66.24, 94.44 77.5 M94.44 23.61 C94.35 40.57, 94.71 60.92, 94.44 77.5 M94.44 77.5 C95.48 94.62, 85.38 98.76, 70.83 101.11 M94.44 77.5 C91.19 92.83, 84.85 104.19, 70.83 101.11 M70.83 101.11 C55.67 98.5, 40.74 101.16, 23.61 101.11 M70.83 101.11 C56.83 103.25, 46.7 103.27, 23.61 101.11 M23.61 101.11 C6.19 104.65, 0.11 90.72, 0 77.5 M23.61 101.11 C6.22 98.11, -1.48 90.8, 0 77.5 M0 77.5 C-2.22 60.54, -2.91 33.51, 0 23.61 M0 77.5 C1.39 59.43, 2.72 41.78, 0 23.61 M0 23.61 C-3.63 8.45, 4.28 1.99, 23.61 0 M0 23.61 C2.56 7.73, 12.33 4.33, 23.61 0" stroke="#000000" stroke-width="4" fill="none"></path></g><g stroke-linecap="round" transform="translate(10 106.66666666666606) rotate(0 58.888888888888914 30.555555555555657)"><path d="M11.79 -1.2 L100.15 -1.88 L109.65 0.1 L114.25 10.94 L121.15 48.49 L112.67 57.07 L115.49 56.22 L103.08 57.8 L16.31 58.56 L4.89 62.34 L-2.38 47.65 L1.63 14.84 L4.36 4.06 L14.24 -1.56" stroke="none" stroke-width="0" fill="#228be6"></path><path d="M15.28 0 M15.28 0 C45.52 -0.76, 73.38 3.68, 102.5 0 M15.28 0 C33.65 1.37, 51.96 2.22, 102.5 0 M102.5 0 C111.84 2.25, 118.69 5.4, 117.78 15.28 M102.5 0 C108.27 -2.14, 121.09 4.29, 117.78 15.28 M117.78 15.28 C116.46 25.06, 121.61 26.24, 117.78 45.83 M117.78 15.28 C118.4 26.37, 118.33 37.68, 117.78 45.83 M117.78 45.83 C116.62 53.88, 110.41 59.69, 102.5 61.11 M117.78 45.83 C120.35 57.21, 114.27 59.73, 102.5 61.11 M102.5 61.11 C79.96 63.63, 60.03 58.39, 15.28 61.11 M102.5 61.11 C72.38 59.73, 44.04 58.64, 15.28 61.11 M15.28 61.11 C8.83 57.42, 2.51 56.4, 0 45.83 M15.28 61.11 C8.03 59.18, 4.06 56.15, 0 45.83 M0 45.83 C-1.07 36.47, 3.36 35.14, 0 15.28 M0 45.83 C-0.76 33.98, 0.68 23.42, 0 15.28 M0 15.28 C3.46 5.82, 3.98 3.39, 15.28 0 M0 15.28 C-1.61 0.91, 5.76 -4.13, 15.28 0" stroke="#000000" stroke-width="4" fill="none"></path></g><g transform="translate(45.55555555555543 135.55555555555293) rotate(0 0.00004999999998744897 0.00005000000010113581)" stroke="none"><path fill="#000000" d="M 6.28,-6.28 Q 6.28,-6.28 7.11,-5.11 7.95,-3.94 8.37,-2.57 8.80,-1.19 8.76,0.23 8.72,1.67 8.22,3.02 7.73,4.37 6.83,5.49 5.93,6.61 4.72,7.38 3.50,8.15 2.11,8.50 0.72,8.85 -0.71,8.73 -2.14,8.61 -3.46,8.05 -4.78,7.48 -5.85,6.52 -6.92,5.56 -7.63,4.31 -8.33,3.06 -8.60,1.65 -8.87,0.23 -8.68,-1.18 -8.49,-2.60 -7.85,-3.89 -7.21,-5.18 -6.19,-6.19 -5.18,-7.21 -3.89,-7.85 -2.60,-8.49 -1.18,-8.68 0.24,-8.87 1.65,-8.60 3.06,-8.33 4.31,-7.62 5.56,-6.92 6.52,-5.85 7.48,-4.78 8.05,-3.46 8.62,-2.14 8.73,-0.70 8.85,0.72 8.50,2.11 8.15,3.51 7.38,4.72 6.61,5.93 5.48,6.83 4.36,7.73 3.02,8.22 1.67,8.72 0.23,8.76 -1.20,8.80 -2.57,8.37 -3.94,7.95 -5.11,7.11 -6.28,6.27 -6.28,6.27 -6.28,6.28 -6.94,5.43 -7.60,4.59 -8.04,3.61 -8.48,2.64 -8.67,1.58 -8.86,0.53 -8.80,-0.53 -8.73,-1.60 -8.41,-2.62 -8.09,-3.64 -7.54,-4.56 -6.99,-5.47 -6.23,-6.23 -5.47,-6.99 -4.56,-7.54 -3.64,-8.10 -2.62,-8.41 -1.60,-8.73 -0.53,-8.80 0.53,-8.86 1.59,-8.67 2.64,-8.48 3.61,-8.04 4.59,-7.60 5.43,-6.94 6.28,-6.28 6.28,-6.28 L 6.28,-6.28 Z"></path></g><g transform="translate(96.66666666666663 134.44444444444343) rotate(0 0.00005000000000165983 0.00005000000010113581)" stroke="none"><path fill="#000000" d="M 6.28,-6.28 Q 6.28,-6.28 7.11,-5.11 7.95,-3.94 8.37,-2.57 8.80,-1.19 8.76,0.23 8.72,1.67 8.22,3.02 7.73,4.37 6.83,5.49 5.93,6.61 4.72,7.38 3.50,8.15 2.11,8.50 0.72,8.85 -0.71,8.73 -2.14,8.61 -3.46,8.05 -4.78,7.48 -5.85,6.52 -6.92,5.56 -7.63,4.31 -8.33,3.06 -8.60,1.65 -8.87,0.23 -8.68,-1.18 -8.49,-2.60 -7.85,-3.89 -7.21,-5.18 -6.19,-6.19 -5.18,-7.21 -3.89,-7.85 -2.60,-8.49 -1.18,-8.68 0.24,-8.87 1.65,-8.60 3.06,-8.33 4.31,-7.62 5.56,-6.92 6.52,-5.85 7.48,-4.78 8.05,-3.46 8.62,-2.14 8.73,-0.70 8.85,0.72 8.50,2.11 8.15,3.51 7.38,4.72 6.61,5.93 5.48,6.83 4.36,7.73 3.02,8.22 1.67,8.72 0.23,8.76 -1.20,8.80 -2.57,8.37 -3.94,7.95 -5.11,7.11 -6.28,6.27 -6.28,6.27 -6.28,6.28 -6.94,5.43 -7.60,4.59 -8.04,3.61 -8.48,2.64 -8.67,1.58 -8.86,0.53 -8.80,-0.53 -8.73,-1.60 -8.41,-2.62 -8.09,-3.64 -7.54,-4.56 -6.99,-5.47 -6.23,-6.23 -5.47,-6.99 -4.56,-7.54 -3.64,-8.10 -2.62,-8.41 -1.60,-8.73 -0.53,-8.80 0.53,-8.86 1.59,-8.67 2.64,-8.48 3.61,-8.04 4.59,-7.60 5.43,-6.94 6.28,-6.28 6.28,-6.28 L 6.28,-6.28 Z"></path></g><g transform="translate(71.11111111111103 105.55555555555293) rotate(0 0.5555555555555713 -17.22222222222217)" stroke="none"><path fill="#000000" d="M -5.17,1.03 Q -5.17,1.03 -5.57,-0.54 -5.96,-2.12 -6.32,-5.60 -6.67,-9.07 -6.72,-11.26 -6.77,-13.45 -6.45,-16.06 -6.13,-18.68 -6.01,-22.37 -5.90,-26.06 -5.10,-28.77 -4.30,-31.48 -4.06,-33.09 -3.81,-34.71 -3.48,-35.61 -3.14,-36.52 -2.53,-37.27 -1.92,-38.02 -1.10,-38.54 -0.28,-39.05 0.65,-39.28 1.59,-39.51 2.55,-39.42 3.52,-39.34 4.40,-38.95 5.29,-38.56 6.01,-37.91 6.72,-37.26 7.19,-36.42 7.66,-35.57 7.84,-34.62 8.02,-33.67 7.88,-32.71 7.74,-31.76 7.31,-30.89 6.87,-30.03 6.19,-29.35 5.50,-28.67 4.63,-28.25 3.76,-27.82 2.80,-27.70 1.84,-27.57 0.89,-27.76 -0.05,-27.95 -0.88,-28.43 -1.72,-28.91 -2.37,-29.63 -3.01,-30.36 -3.38,-31.25 -3.76,-32.14 -3.83,-33.10 -3.91,-34.07 -3.67,-35.01 -3.43,-35.94 -2.90,-36.75 -2.37,-37.57 -1.62,-38.17 -0.86,-38.77 0.04,-39.10 0.95,-39.42 1.92,-39.44 2.88,-39.46 3.81,-39.17 4.73,-38.89 5.51,-38.32 6.29,-37.75 6.85,-36.96 7.41,-36.17 7.69,-35.24 7.97,-34.32 7.94,-33.35 7.90,-32.38 7.90,-32.38 7.90,-32.38 6.82,-28.97 5.74,-25.56 5.47,-21.32 5.21,-17.07 4.92,-13.23 4.62,-9.39 4.65,-6.82 4.69,-4.25 4.93,-2.64 5.17,-1.03 5.22,-0.40 5.27,0.23 5.16,0.86 5.06,1.48 4.81,2.07 4.56,2.65 4.17,3.16 3.79,3.67 3.29,4.07 2.80,4.47 2.22,4.74 1.65,5.01 1.02,5.13 0.40,5.26 -0.23,5.23 -0.86,5.20 -1.47,5.02 -2.08,4.84 -2.63,4.52 -3.18,4.20 -3.64,3.76 -4.10,3.32 -4.44,2.78 -4.77,2.24 -4.97,1.63 -5.17,1.03 -5.17,1.03 L -5.17,1.03 Z"></path></g><g stroke-linecap="round" transform="translate(66.66666666666663 52.22222222222081) rotate(0 11.111111111111114 6.666666666666515)"><path d="M7.23 1.4 C9.62 1.23, 13.84 1.05, 16.04 1.24 C18.24 1.42, 19.7 1.37, 20.45 2.51 C21.19 3.64, 21.08 6.22, 20.5 8.03 C19.93 9.84, 18.7 12.69, 16.99 13.36 C15.28 14.02, 12.42 12.46, 10.27 12.04 C8.12 11.61, 6.02 11.78, 4.08 10.8 C2.14 9.81, -0.98 7.56, -1.37 6.12 C-1.77 4.67, -1.48 2.53, 1.71 2.15 C4.91 1.77, 14.79 2.56, 17.78 3.84 C20.78 5.12, 19.58 9.85, 19.68 9.83 M4.69 -0.5 C5.93 -1.3, 9.87 -1.68, 12.21 -0.71 C14.54 0.25, 16.59 3.77, 18.72 5.29 C20.86 6.81, 25.13 6.96, 25 8.42 C24.87 9.88, 20.36 13.62, 17.94 14.04 C15.52 14.45, 12.58 11.72, 10.48 10.92 C8.38 10.11, 6.59 9.55, 5.34 9.2 C4.08 8.85, 3.77 9.31, 2.93 8.83 C2.09 8.34, -0.15 8.12, 0.28 6.29 C0.72 4.46, 4.4 -0.76, 5.53 -2.15 C6.67 -3.53, 6.61 -2.83, 7.11 -1.99" stroke="none" stroke-width="0" fill="#228be6"></path><path d="M20.37 4.07 C21.53 5.32, 21.21 5.55, 20.85 6.76 C20.48 7.96, 19.63 10.33, 18.18 11.31 C16.72 12.3, 13.87 12.67, 12.09 12.66 C10.32 12.64, 9.56 11.7, 7.53 11.23 C5.5 10.76, 0.8 11.07, -0.1 9.83 C-1 8.58, 1.08 5.33, 2.13 3.77 C3.18 2.21, 4.59 0.98, 6.23 0.48 C7.86 -0.03, 9.6 0.17, 11.93 0.76 C14.27 1.36, 18.51 3.26, 20.26 4.05 C22.01 4.84, 22.47 5.16, 22.43 5.5 M3.02 4.38 C4.39 3.78, 8.2 3.33, 10.19 2.98 C12.18 2.62, 13.04 2.09, 14.97 2.26 C16.9 2.42, 21.09 3.19, 21.77 3.96 C22.44 4.73, 19.34 5.6, 19.02 6.87 C18.7 8.13, 21.57 9.96, 19.83 11.52 C18.09 13.09, 11.31 16.5, 8.61 16.26 C5.9 16.01, 4.74 11.12, 3.62 10.04 C2.5 8.97, 2.64 10.8, 1.87 9.81 C1.11 8.81, -0.85 5.06, -0.95 4.06 C-1.05 3.07, 0.45 3.74, 1.27 3.81" stroke="#000000" stroke-width="2" fill="none"></path></g><g stroke-linecap="round" transform="translate(232.63888888888874 176.2499999999991) rotate(0 71.24999999999989 58.75)"><path d="M90 14.75 M90 14.75 C100.64 26.6, 109.84 35.97, 124.5 44.25 M90 14.75 C98.34 23.73, 109.1 28.62, 124.5 44.25 M124.5 44.25 C142.77 60.31, 144.99 58.36, 124.5 73.75 M124.5 44.25 C142.31 54.51, 142.44 63.49, 124.5 73.75 M124.5 73.75 C120.73 77.17, 107.91 87.94, 90 102.75 M124.5 73.75 C115.24 80, 105.84 88.64, 90 102.75 M90 102.75 C74.29 115.64, 73.72 119.77, 54 102.75 M90 102.75 C76.18 121.34, 76.25 120.66, 54 102.75 M54 102.75 C43.8 91.82, 31.69 84.81, 18 73.75 M54 102.75 C44.26 96.7, 35.69 87.64, 18 73.75 M18 73.75 C0.51 60.98, 2.33 55.99, 18 44.25 M18 73.75 C0.56 57.09, 2.66 57.69, 18 44.25 M18 44.25 C31.81 34.04, 45.03 25.59, 54 14.75 M18 44.25 C26.24 37.1, 34.18 31.58, 54 14.75 M54 14.75 C72.01 -4, 68.37 0.23, 90 14.75 M54 14.75 C73.53 -2.86, 69.11 2.83, 90 14.75" stroke="#c92a2a" stroke-width="4" fill="none"></path></g><g transform="translate(281.88888888888863 213.4999999999991) rotate(0 22 21.5)"><text x="22" y="35" font-family="Cascadia, Segoe UI Emoji" font-size="36px" fill="#c92a2a" text-anchor="middle" style="white-space: pre;" direction="ltr">-1</text></g><g transform="translate(676.3888888888889 676.5) rotate(0 32.5 21.5)"><text x="0" y="35" font-family="Cascadia, Segoe UI Emoji" font-size="36px" fill="#5c940d" text-anchor="start" style="white-space: pre;" direction="ltr">0.9</text></g><g transform="translate(873.3888888888885 503.5) rotate(0 32.5 21.5)"><text x="0" y="35" font-family="Cascadia, Segoe UI Emoji" font-size="36px" fill="#000000" text-anchor="start" style="white-space: pre;" direction="ltr">0.8</text></g><g transform="translate(463.38888888888863 676) rotate(0 32.5 21.5)"><text x="0" y="35" font-family="Cascadia, Segoe UI Emoji" font-size="36px" fill="#5c940d" text-anchor="start" style="white-space: pre;" direction="ltr">0.5</text></g><g transform="translate(453.38888888888863 516) rotate(0 32.5 21.5)"><text x="0" y="35" font-family="Cascadia, Segoe UI Emoji" font-size="36px" fill="#5c940d" text-anchor="start" style="white-space: pre;" direction="ltr">0.4</text></g><g transform="translate(450.88888888888863 363.5) rotate(0 32.5 21.5)"><text x="0" y="35" font-family="Cascadia, Segoe UI Emoji" font-size="36px" fill="#5c940d" text-anchor="start" style="white-space: pre;" direction="ltr">0.3</text></g><g transform="translate(253.38888888888863 376) rotate(0 32.5 21.5)"><text x="0" y="35" font-family="Cascadia, Segoe UI Emoji" font-size="36px" fill="#5c940d" text-anchor="start" style="white-space: pre;" direction="ltr">0.2</text></g><g transform="translate(75.88888888888874 363.5) rotate(0 32.5 21.5)"><text x="0" y="35" font-family="Cascadia, Segoe UI Emoji" font-size="36px" fill="#5c940d" text-anchor="start" style="white-space: pre;" direction="ltr">0.2</text></g><g transform="translate(880.8888888888885 358.5) rotate(0 32.5 21.5)"><text x="0" y="35" font-family="Cascadia, Segoe UI Emoji" font-size="36px" fill="#000000" text-anchor="start" style="white-space: pre;" direction="ltr">0.4</text></g><g transform="translate(883.8888888888885 221) rotate(0 32.5 21.5)"><text x="0" y="35" font-family="Cascadia, Segoe UI Emoji" font-size="36px" fill="#000000" text-anchor="start" style="white-space: pre;" direction="ltr">0.3</text></g><g transform="translate(686.3888888888887 211) rotate(0 32.5 21.5)"><text x="0" y="35" font-family="Cascadia, Segoe UI Emoji" font-size="36px" fill="#000000" text-anchor="start" style="white-space: pre;" direction="ltr">0.2</text></g><g transform="translate(681.3888888888887 366) rotate(0 32.5 21.5)"><text x="0" y="35" font-family="Cascadia, Segoe UI Emoji" font-size="36px" fill="#000000" text-anchor="start" style="white-space: pre;" direction="ltr">0.1</text></g><g transform="translate(468.88888888888863 218.5) rotate(0 32.5 21.5)"><text x="0" y="35" font-family="Cascadia, Segoe UI Emoji" font-size="36px" fill="#000000" text-anchor="start" style="white-space: pre;" direction="ltr">0.1</text></g><g transform="translate(261.38888888888863 501) rotate(0 32.5 21.5)"><text x="0" y="35" font-family="Cascadia, Segoe UI Emoji" font-size="36px" fill="#000000" text-anchor="start" style="white-space: pre;" direction="ltr">0.1</text></g><g transform="translate(266.38888888888863 668.5) rotate(0 32.5 21.5)"><text x="0" y="35" font-family="Cascadia, Segoe UI Emoji" font-size="36px" fill="#000000" text-anchor="start" style="white-space: pre;" direction="ltr">0.2</text></g><g stroke-linecap="round" transform="translate(632.6388888888887 458.7500000000009) rotate(0 71.24999999999989 58.75)"><path d="M90 14.75 M90 14.75 C101.25 18.25, 107.06 27.95, 124.5 44.25 M90 14.75 C105.45 26.98, 117.94 38.81, 124.5 44.25 M124.5 44.25 C144.54 59.63, 143.24 59.68, 124.5 73.75 M124.5 44.25 C141.42 61.84, 142.07 55.76, 124.5 73.75 M124.5 73.75 C111.81 82.3, 104.31 93.56, 90 102.75 M124.5 73.75 C109.43 85.07, 96.9 96.96, 90 102.75 M90 102.75 C70.22 117.05, 74.27 114.56, 54 102.75 M90 102.75 C73.88 114.61, 72.53 116.94, 54 102.75 M54 102.75 C36.98 93.34, 26.63 76.97, 18 73.75 M54 102.75 C45.21 97.35, 36.72 89.99, 18 73.75 M18 73.75 C1.76 62.84, -1.56 60.24, 18 44.25 M18 73.75 C1.3 60.6, -1 55.43, 18 44.25 M18 44.25 C28.64 37.48, 42.17 22.26, 54 14.75 M18 44.25 C29.36 34.71, 43.91 24.91, 54 14.75 M54 14.75 C68.42 -0.79, 73.52 -1.02, 90 14.75 M54 14.75 C69.93 -2.13, 68.04 -2.78, 90 14.75" stroke="#c92a2a" stroke-width="4" fill="none"></path></g><g transform="translate(681.8888888888887 496.0000000000009) rotate(0 22 21.5)"><text x="22" y="35" font-family="Cascadia, Segoe UI Emoji" font-size="36px" fill="#c92a2a" text-anchor="middle" style="white-space: pre;" direction="ltr">-1</text></g><g stroke-linecap="round" transform="translate(27.638888888888857 646.2500000000009) rotate(0 71.24999999999989 58.75)"><path d="M90 14.75 M90 14.75 C104.13 27.03, 111.38 33.5, 124.5 44.25 M90 14.75 C104.79 26.42, 117.59 38.09, 124.5 44.25 M124.5 44.25 C146.34 57.44, 143.74 60.13, 124.5 73.75 M124.5 44.25 C144.1 58, 138.93 60.85, 124.5 73.75 M124.5 73.75 C118.41 81.56, 103.16 92.1, 90 102.75 M124.5 73.75 C114.6 84.71, 103.3 91.23, 90 102.75 M90 102.75 C71.21 119.02, 70.98 115.7, 54 102.75 M90 102.75 C69.87 113.54, 69.22 119.11, 54 102.75 M54 102.75 C42.38 92.58, 33 82.39, 18 73.75 M54 102.75 C44.35 95.11, 31.44 82.83, 18 73.75 M18 73.75 C0.89 60.08, -3.05 60.42, 18 44.25 M18 73.75 C4.58 54.6, 1.71 56.08, 18 44.25 M18 44.25 C26.83 32.67, 39.32 27.78, 54 14.75 M18 44.25 C25 36.09, 33.18 31.32, 54 14.75 M54 14.75 C74.76 0.86, 71.84 -3.85, 90 14.75 M54 14.75 C72.57 1, 73.47 2.35, 90 14.75" stroke="#c92a2a" stroke-width="4" fill="none"></path></g><g transform="translate(76.88888888888874 683.5000000000009) rotate(0 22 21.5)"><text x="22" y="35" font-family="Cascadia, Segoe UI Emoji" font-size="36px" fill="#c92a2a" text-anchor="middle" style="white-space: pre;" direction="ltr">-1</text></g><g stroke-linecap="round" transform="translate(22.638888888888857 461.2500000000009) rotate(0 71.24999999999989 58.75)"><path d="M90 14.75 M90 14.75 C102.85 20.7, 110.73 32.85, 124.5 44.25 M90 14.75 C103.21 25.47, 114.53 36.16, 124.5 44.25 M124.5 44.25 C139.05 56.59, 143.9 59.61, 124.5 73.75 M124.5 44.25 C138.96 57.14, 141.68 58.16, 124.5 73.75 M124.5 73.75 C110.93 85.33, 104.61 95.74, 90 102.75 M124.5 73.75 C113.8 81.43, 103.2 93.98, 90 102.75 M90 102.75 C68.18 118.99, 69.46 116.08, 54 102.75 M90 102.75 C76.16 116.72, 71.82 113.01, 54 102.75 M54 102.75 C38.05 88.36, 23.91 77.06, 18 73.75 M54 102.75 C47.13 97.33, 37.53 91.83, 18 73.75 M18 73.75 C0.87 60.27, 2.04 62.44, 18 44.25 M18 73.75 C-0.24 57.07, 4.57 55.23, 18 44.25 M18 44.25 C28.34 30.19, 42.56 24.24, 54 14.75 M18 44.25 C29.68 35.18, 36.77 27.02, 54 14.75 M54 14.75 C69.8 3.52, 74.31 2.31, 90 14.75 M54 14.75 C67.95 1.39, 74.84 4.32, 90 14.75" stroke="#c92a2a" stroke-width="4" fill="none"></path></g><g transform="translate(71.88888888888874 498.5000000000009) rotate(0 22 21.5)"><text x="22" y="35" font-family="Cascadia, Segoe UI Emoji" font-size="36px" fill="#c92a2a" text-anchor="middle" style="white-space: pre;" direction="ltr">-1</text></g><g stroke-linecap="round" transform="translate(853.8888888888885 620) rotate(0 72.50000000000003 66.25)"><path d="M83.31 1.26 C93.53 1.77, 105.82 7.18, 114.54 12.42 C123.26 17.65, 130.56 24.4, 135.64 32.67 C140.73 40.93, 144.49 52.25, 145.05 62 C145.62 71.76, 142.82 82.52, 139.05 91.21 C135.29 99.91, 130 107.85, 122.46 114.15 C114.91 120.46, 104.05 125.98, 93.79 129.05 C83.52 132.12, 71.32 133.99, 60.87 132.6 C50.42 131.21, 39.82 126.19, 31.1 120.7 C22.37 115.22, 13.7 108.14, 8.5 99.7 C3.3 91.27, 0.59 79.9, -0.08 70.09 C-0.75 60.28, 0.71 49.79, 4.5 40.85 C8.29 31.91, 14.96 22.78, 22.65 16.46 C30.33 10.14, 39.43 5.35, 50.6 2.93 C61.76 0.51, 82.47 1.88, 89.63 1.94 C96.78 2, 93.91 2.21, 93.54 3.29 M83.93 0.21 C94.05 0.25, 106.62 5.18, 115.41 10.65 C124.21 16.12, 131.81 24.69, 136.69 33.03 C141.56 41.38, 144.34 51.21, 144.64 60.73 C144.95 70.26, 142.3 81.13, 138.51 90.18 C134.73 99.22, 129.35 108.25, 121.94 115 C114.52 121.75, 103.96 127.92, 94.03 130.66 C84.1 133.41, 73.01 133.14, 62.36 131.46 C51.71 129.77, 39.08 125.78, 30.11 120.56 C21.14 115.34, 13.39 108.32, 8.54 100.13 C3.69 91.94, 1.78 81.13, 1.02 71.42 C0.25 61.72, 0.02 50.69, 3.95 41.9 C7.89 33.1, 16.43 25.09, 24.63 18.66 C32.84 12.23, 43.2 6.33, 53.17 3.32 C63.14 0.31, 79.18 0.98, 84.46 0.58 C89.74 0.18, 85.16 -0.05, 84.87 0.92" stroke="#5c940d" stroke-width="4" fill="none"></path></g><g transform="translate(918.8888888888885 665) rotate(0 11.5 21.5)"><text x="0" y="35" font-family="Cascadia, Segoe UI Emoji" font-size="36px" fill="#5c940d" text-anchor="start" style="white-space: pre;" direction="ltr">1</text></g><g transform="translate(197.3888888888887 10) rotate(0 352.5 42.5)"><text x="0" y="60" font-family="Virgil, Segoe UI Emoji" font-size="67.99999999999947px" fill="#000000" text-anchor="start" style="white-space: pre;" direction="ltr">Value-based Methods</text></g><g transform="translate(118.88888888888857 221) rotate(0 32.5 21.5)"><text x="0" y="35" font-family="Cascadia, Segoe UI Emoji" font-size="36px" fill="#000000" text-anchor="start" style="white-space: pre;" direction="ltr">0.1</text></g></svg>