<svg version="1.1" xmlns="http://www.w3.org/2000/svg" viewBox="0 0 881.5714285714289 232.22751435190094" width="881.5714285714289" height="232.22751435190094">
  <!-- svg-source:excalidraw -->
  
  <defs>
    <style class="style-fonts">
      @font-face {
        font-family: "Virgil";
        src: url("https://excalidraw.com/Virgil.woff2");
      }
      @font-face {
        font-family: "Cascadia";
        src: url("https://excalidraw.com/Cascadia.woff2");
      }
    </style>
  </defs>
  <rect x="0" y="0" width="881.5714285714289" height="232.22751435190094" fill="#ffffff"></rect><g transform="translate(50.47619047619082 91.71031746031531) rotate(0 53.5 22.5)"><text x="0" y="32" font-family="Virgil, Segoe UI Emoji" font-size="36px" fill="#5c940d" text-anchor="start" style="white-space: pre;" direction="ltr">State</text></g><g stroke-linecap="round" transform="translate(349.8199491206842 40.68268487147361) rotate(90.80922911940965 82.81159727909085 97.36636286147677)"><path d="M32 0 M32 0 C67.87 1.74, 100.68 2.02, 133.62 0 M32 0 C59.05 -0.41, 84.36 -0.19, 133.62 0 M133.62 0 C156.54 0.18, 164.99 10.96, 165.62 32 M133.62 0 C152.72 1.77, 164.9 10.94, 165.62 32 M165.62 32 C165.46 67.45, 165.85 107.93, 165.62 162.73 M165.62 32 C165.47 66.89, 166.1 103.59, 165.62 162.73 M165.62 162.73 C164.16 182.62, 156.56 195.54, 133.62 194.73 M165.62 162.73 C167.55 184.17, 153.48 197.03, 133.62 194.73 M133.62 194.73 C100.79 195.07, 69.47 193.57, 32 194.73 M133.62 194.73 C101.46 194.99, 68.53 195.97, 32 194.73 M32 194.73 C10.75 194.91, 0.74 184.97, 0 162.73 M32 194.73 C12.91 196.63, 0.99 182.11, 0 162.73 M0 162.73 C0.66 127.43, -0.27 92.32, 0 32 M0 162.73 C0.24 129.68, 0.56 97.5, 0 32 M0 32 C0.19 10.62, 11.92 0.52, 32 0 M0 32 C-1.39 8.6, 8.58 0.17, 32 0" stroke="#1864ab" stroke-width="1" fill="none"></path></g><g stroke-linecap="round"><g transform="translate(434.23168785422195 -8.954712906882378) rotate(90.80922911940965 -0.9361379736183153 98.3927476909439)"><path d="M-0.92 -0.63 C-1.3 32.07, -1.78 164.71, -1.82 197.42 M0.8 1.65 C0.23 34.52, -2.29 163.2, -2.68 195.65" stroke="#1864ab" stroke-width="1" fill="none"></path></g></g><mask></mask><g stroke-linecap="round"><g transform="translate(432.71590411464285 31.417181841411548) rotate(90.80922911940965 -0.8122106542052734 99.22298156961915)"><path d="M1.07 1.07 C0.44 34.1, -2.07 165.35, -2.7 197.87 M0.18 0.58 C-0.17 33.34, 0.31 163.57, -0.35 196.34" stroke="#1864ab" stroke-width="1" fill="none"></path></g></g><mask></mask><g stroke-linecap="round"><g transform="translate(433.28746334584685 78.00675039149519) rotate(90.80922911940965 -1.2167826482595956 98.40950413015344)"><path d="M-1.02 -0.59 C-1.7 32.22, -2.88 164.55, -3.08 197.41 M0.65 1.71 C0.23 34.13, -0.31 162.96, -0.93 195.64" stroke="#1864ab" stroke-width="1" fill="none"></path></g></g><mask></mask><g stroke-linecap="round"><g transform="translate(501.24274034983046 56.7273099850654) rotate(180.47674530074968 -0.5453589075307264 78.82334715234947)"><path d="M-0.49 -0.67 C-1.05 25.35, -2.42 130.43, -2.55 156.82 M1.46 1.59 C1.18 27.75, 0.22 132.62, -0.34 158.32" stroke="#1864ab" stroke-width="1" fill="none"></path></g></g><mask></mask><g stroke-linecap="round"><g transform="translate(469.0053258332332 57.58781205440209) rotate(180.47674530074968 -0.7472966556824758 78.14360752120047)"><path d="M-0.67 -0.95 C-1.06 25.34, -1.66 131.04, -1.68 157.24 M1.17 1.17 C0.56 27.12, -2.28 129.28, -2.67 155.29" stroke="#1864ab" stroke-width="1" fill="none"></path></g></g><mask></mask><g stroke-linecap="round"><g transform="translate(431.9667018785726 57.08544393577631) rotate(180.47674530074968 -0.6426790394461932 78.27384629460857)"><path d="M-0.95 -0.08 C-1.08 26.32, -1.05 131.73, -1.27 157.71 M0.75 -1.16 C0.54 24.96, -1.35 129.72, -2.04 156.01" stroke="#1864ab" stroke-width="1" fill="none"></path></g></g><mask></mask><g stroke-linecap="round"><g transform="translate(398.52988512430557 57.15854128941919) rotate(180.47674530074968 -0.8333115504128727 78.4497440264222)"><path d="M-0.08 0.34 C-0.1 26.53, -0.36 130.19, -0.79 156.24 M-1.58 -0.53 C-1.63 25.89, -1.52 131.04, -1.31 157.43" stroke="#1864ab" stroke-width="1" fill="none"></path></g></g><mask></mask><g stroke-linecap="round"><g transform="translate(360.40409512677115 56.80030355599865) rotate(180.47674530074968 -0.9625070939880516 78.50504564827634)"><path d="M0.34 0.81 C0.12 26.8, -1.9 130.02, -2.26 155.84 M-0.95 0.19 C-0.69 26.29, 0.41 130.77, 0.11 156.82" stroke="#1864ab" stroke-width="1" fill="none"></path></g></g><mask></mask><g stroke-linecap="round"><g transform="translate(212.53968253968242 117.28676456851463) rotate(0 44.389980603772074 0.1685810183371359)"><path d="M1.13 -0.39 C15.75 -0.12, 74.19 0.39, 88.52 0.97 M0.26 -1.63 C14.76 -1.2, 73.87 1.47, 88.2 1.97" stroke="#000000" stroke-width="4" fill="none"></path></g><g transform="translate(212.53968253968242 117.28676456851463) rotate(0 44.389980603772074 0.1685810183371359)"><path d="M58.97 13.07 C68.35 7.16, 82.35 5.94, 89.18 2.99 M60.17 11.25 C66.17 9.38, 71.46 7.49, 87.71 2.88" stroke="#000000" stroke-width="4" fill="none"></path></g><g transform="translate(212.53968253968242 117.28676456851463) rotate(0 44.389980603772074 0.1685810183371359)"><path d="M59.81 -7.43 C68.77 -5.88, 82.47 0.37, 89.18 2.99 M61 -9.26 C66.94 -6.98, 72.06 -4.71, 87.71 2.88" stroke="#000000" stroke-width="4" fill="none"></path></g></g><mask></mask><g stroke-linecap="round" transform="translate(10 83.77777777777737) rotate(0 96.11111111111109 36.11111111111131)"><path d="M18.06 0 M18.06 0 C67.95 2.45, 118.93 1.44, 174.17 0 M18.06 0 C65.22 -0.24, 112.01 -0.54, 174.17 0 M174.17 0 C186.93 1.59, 190.75 7.09, 192.22 18.06 M174.17 0 C185.52 2.21, 193.73 7.05, 192.22 18.06 M192.22 18.06 C191.84 25.57, 193.32 34.13, 192.22 54.17 M192.22 18.06 C192.75 26.04, 192.92 33.82, 192.22 54.17 M192.22 54.17 C193.16 67.27, 185.89 72.91, 174.17 72.22 M192.22 54.17 C191.4 66.36, 185.02 71.52, 174.17 72.22 M174.17 72.22 C122.65 70.56, 69.73 70.66, 18.06 72.22 M174.17 72.22 C142.52 72.95, 110.79 74.17, 18.06 72.22 M18.06 72.22 C4.51 70.77, -0.84 65.62, 0 54.17 M18.06 72.22 C7.79 73.34, -0.98 67.85, 0 54.17 M0 54.17 C1.35 44.57, -0.77 36.37, 0 18.06 M0 54.17 C-0.67 44.27, -1.07 34.71, 0 18.06 M0 18.06 C-0.83 7.61, 5.77 0.29, 18.06 0 M0 18.06 C1.16 5.97, 5.71 0.01, 18.06 0" stroke="#5c940d" stroke-width="4" fill="none"></path></g><g transform="translate(358.6111111111113 10) rotate(0 71 22.5)"><text x="0" y="32" font-family="Virgil, Segoe UI Emoji" font-size="36px" fill="#1864ab" text-anchor="start" style="white-space: pre;" direction="ltr">Q-Table</text></g><g stroke-linecap="round"><g transform="translate(551.9444444444443 129.33333333333212) rotate(0 66.42415615121513 1.013757446092768)"><path d="M-0.84 0.04 C21.56 0.36, 111.18 1.28, 133.69 1.73 M0.92 -0.99 C23.25 -0.48, 110.76 2.73, 132.93 3.01" stroke="#000000" stroke-width="4" fill="none"></path></g><g transform="translate(551.9444444444443 129.33333333333212) rotate(0 66.42415615121513 1.013757446092768)"><path d="M104.54 13.12 C110.58 11.88, 119.23 7.61, 130.96 4.68 M104.18 11.94 C114.27 9.62, 125.53 6.65, 133.62 3.09" stroke="#000000" stroke-width="4" fill="none"></path></g><g transform="translate(551.9444444444443 129.33333333333212) rotate(0 66.42415615121513 1.013757446092768)"><path d="M105.08 -7.39 C110.96 -3.66, 119.47 -2.95, 130.96 4.68 M104.72 -8.57 C114.47 -3.58, 125.54 0.75, 133.62 3.09" stroke="#000000" stroke-width="4" fill="none"></path></g></g><mask></mask><g transform="translate(727.5 105.55555555555475) rotate(0 54 22.5)"><text x="0" y="32" font-family="Virgil, Segoe UI Emoji" font-size="36px" fill="#c92a2a" text-anchor="start" style="white-space: pre;" direction="ltr">Action</text></g><g stroke-linecap="round" transform="translate(694.0714285714289 93.31746031746025) rotate(0 88.75 33.125)"><path d="M87.58 0.32 C99.75 -0.07, 113.86 1.7, 125.5 3.63 C137.14 5.56, 149.03 8.22, 157.42 11.92 C165.82 15.61, 172.69 21.22, 175.87 25.79 C179.04 30.37, 179.25 34.62, 176.46 39.37 C173.67 44.12, 167.1 50.55, 159.13 54.28 C151.16 58.01, 140.1 59.69, 128.65 61.75 C117.2 63.81, 103.23 66.39, 90.44 66.65 C77.65 66.9, 63.75 65.55, 51.92 63.3 C40.09 61.06, 27.56 57.03, 19.48 53.2 C11.41 49.36, 6.47 44.79, 3.47 40.3 C0.47 35.81, -0.97 30.75, 1.47 26.26 C3.91 21.76, 10.09 17.15, 18.1 13.33 C26.1 9.51, 37.12 5.44, 49.48 3.34 C61.84 1.23, 84.03 1.06, 92.27 0.69 C100.51 0.32, 98.71 0.62, 98.93 1.1 M58.44 1.6 C69.3 -0.04, 83.73 0.99, 96.13 1.36 C108.53 1.73, 121.55 1.65, 132.84 3.82 C144.12 5.99, 156.62 10.33, 163.83 14.41 C171.05 18.5, 174.62 23.46, 176.13 28.35 C177.64 33.24, 176.88 38.98, 172.89 43.74 C168.91 48.5, 160.82 53.59, 152.21 56.92 C143.61 60.25, 133.34 62.08, 121.26 63.72 C109.17 65.37, 92.46 67.15, 79.7 66.79 C66.93 66.43, 55.37 64.01, 44.68 61.59 C34 59.17, 22.74 56.33, 15.57 52.27 C8.4 48.22, 3.37 42.38, 1.67 37.25 C-0.02 32.12, 1.69 25.91, 5.4 21.52 C9.12 17.13, 15.24 13.96, 23.96 10.91 C32.69 7.86, 52.26 4.51, 57.74 3.22 C63.22 1.93, 56.21 3.01, 56.84 3.15" stroke="#c92a2a" stroke-width="4" fill="none"></path></g></svg>