<svg version="1.1" xmlns="http://www.w3.org/2000/svg" viewBox="0 0 881.5436507936508 338.6415349537265" width="881.5436507936508" height="338.6415349537265">
  <!-- svg-source:excalidraw -->
  
  <defs>
    <style class="style-fonts">
      @font-face {
        font-family: "Virgil";
        src: url("https://excalidraw.com/Virgil.woff2");
      }
      @font-face {
        font-family: "Cascadia";
        src: url("https://excalidraw.com/Cascadia.woff2");
      }
    </style>
  </defs>
  <rect x="0" y="0" width="881.5436507936508" height="338.6415349537265" fill="#ffffff"></rect><g transform="translate(44.64285714285643 176.7103174603144) rotate(0 53.500000000000114 22.5)"><text x="0" y="32" font-family="Virgil, Segoe UI Emoji" font-size="36px" fill="#5c940d" text-anchor="start" style="white-space: pre;" direction="ltr">State</text></g><g stroke-linecap="round"><g transform="translate(211.42857142857133 196.23423633436323) rotate(0 45.00860304178536 0.2477552417080915)"><path d="M-0.79 0.34 C13.87 0.54, 73.67 1.03, 88.69 1.24 M1 -0.53 C15.95 -0.71, 76.26 -0.76, 90.81 -0.74" stroke="#000000" stroke-width="4" fill="none"></path></g><g transform="translate(211.42857142857133 196.23423633436323) rotate(0 45.00860304178536 0.2477552417080915)"><path d="M63.18 7.63 C73.24 5.17, 84.02 0.47, 92.42 -1.64 M62.1 9.47 C70.88 6.72, 80.89 3.15, 91.8 -0.34" stroke="#000000" stroke-width="4" fill="none"></path></g><g transform="translate(211.42857142857133 196.23423633436323) rotate(0 45.00860304178536 0.2477552417080915)"><path d="M63.18 -12.89 C73.24 -7.95, 84.02 -5.24, 92.42 -1.64 M62.1 -11.05 C70.94 -7.45, 80.95 -4.67, 91.8 -0.34" stroke="#000000" stroke-width="4" fill="none"></path></g></g><mask></mask><g stroke-linecap="round" transform="translate(10 167.25) rotate(0 96.1111111111112 32.222222222222626)"><path d="M16.11 0 M16.11 0 C62.53 -0.01, 111.89 0.6, 176.11 0 M16.11 0 C49.56 1.02, 82.17 0.2, 176.11 0 M176.11 0 C186.75 -0.86, 192.6 7.1, 192.22 16.11 M176.11 0 C186.38 2.28, 193.16 6.32, 192.22 16.11 M192.22 16.11 C192.42 26.15, 194.1 34.12, 192.22 48.33 M192.22 16.11 C191.48 23.36, 191.58 30.34, 192.22 48.33 M192.22 48.33 C194.08 60.47, 185.15 63.54, 176.11 64.44 M192.22 48.33 C193.4 58.67, 188.68 64.65, 176.11 64.44 M176.11 64.44 C133.79 65.18, 89.31 64.69, 16.11 64.44 M176.11 64.44 C113.82 63.89, 49.7 62.58, 16.11 64.44 M16.11 64.44 C4.59 65.38, 1.17 58.84, 0 48.33 M16.11 64.44 C6.59 64.48, -0.32 56.88, 0 48.33 M0 48.33 C1.15 38.81, 0.28 25.9, 0 16.11 M0 48.33 C1.01 40.06, 0.38 30.29, 0 16.11 M0 16.11 C-0.73 5.67, 5.71 -1.25, 16.11 0 M0 16.11 C-2.22 4.94, 4.92 1.74, 16.11 0" stroke="#5c940d" stroke-width="4" fill="none"></path></g><g transform="translate(392.08333333333326 10) rotate(0 39 22.5)"><text x="0" y="32" font-family="Virgil, Segoe UI Emoji" font-size="36px" fill="#1864ab" text-anchor="start" style="white-space: pre;" direction="ltr">DQN</text></g><g stroke-linecap="round"><g transform="translate(557.0833333333333 194.7499999999991) rotate(0 66.45457255571318 0.13661729930072397)"><path d="M0.27 -0.5 C22.54 -0.13, 111.62 0.76, 133.96 1.12 M-1.05 -1.81 C21.08 -1.23, 110.83 1.33, 133.35 2.08" stroke="#000000" stroke-width="4" fill="none"></path></g><g transform="translate(557.0833333333333 194.7499999999991) rotate(0 66.45457255571318 0.13661729930072397)"><path d="M104.02 12.53 C112.47 9.94, 122.76 5.44, 133.96 0.78 M105.04 12.34 C111.74 10.25, 119.43 7.34, 133.44 2" stroke="#000000" stroke-width="4" fill="none"></path></g><g transform="translate(557.0833333333333 194.7499999999991) rotate(0 66.45457255571318 0.13661729930072397)"><path d="M104.65 -7.98 C112.69 -3.84, 122.78 -1.61, 133.96 0.78 M105.67 -8.17 C112.2 -5.16, 119.74 -2.97, 133.44 2" stroke="#000000" stroke-width="4" fill="none"></path></g></g><mask></mask><g transform="translate(732.638888888888 170.97222222222172) rotate(0 54 22.5)"><text x="0" y="32" font-family="Virgil, Segoe UI Emoji" font-size="36px" fill="#c92a2a" text-anchor="start" style="white-space: pre;" direction="ltr">Action</text></g><g stroke-linecap="round" transform="translate(343.87697463696054 137.75164375166423) rotate(0 13.733085697990191 13.389758555540539)"><path d="M10.31 0.27 C12.93 -0.13, 16.17 0.19, 19.19 1.92 C22.2 3.65, 27.16 7.67, 28.43 10.67 C29.69 13.66, 27.73 17.23, 26.75 19.89 C25.78 22.55, 24.87 25.84, 22.56 26.62 C20.25 27.4, 16.13 25.57, 12.9 24.57 C9.67 23.57, 5.64 22.36, 3.18 20.64 C0.71 18.92, -2.19 17.14, -1.9 14.27 C-1.61 11.4, 2.66 5.56, 4.92 3.45 C7.17 1.33, 10.17 1.8, 11.63 1.6 C13.09 1.4, 13.33 2.03, 13.68 2.23 M9.89 -1.35 C12.51 -2.85, 14.23 -2.94, 17.17 -1.55 C20.12 -0.17, 26.35 4.54, 27.57 6.95 C28.79 9.37, 25.18 9.77, 24.5 12.94 C23.82 16.11, 25.74 23.81, 23.49 25.97 C21.24 28.13, 14.6 25.87, 11.01 25.89 C7.41 25.9, 3.74 27.78, 1.92 26.05 C0.11 24.32, 0.27 18.55, 0.11 15.51 C-0.04 12.47, -0.16 10.6, 0.99 7.82 C2.13 5.04, 5.3 -0.27, 6.99 -1.17 C8.68 -2.07, 10.72 1.75, 11.13 2.42" stroke="#1864ab" stroke-width="4" fill="none"></path></g><g stroke-linecap="round" transform="translate(343.87697463696054 168.65108657214205) rotate(0 13.733085697990191 13.389758555540539)"><path d="M8.46 -0.39 C11.21 -1.13, 14.78 1.26, 17.88 2.37 C20.99 3.48, 25.19 3.8, 27.09 6.25 C28.98 8.69, 29.64 13.95, 29.25 17.04 C28.85 20.13, 27.5 23.17, 24.7 24.79 C21.89 26.41, 15.86 27.19, 12.43 26.75 C8.99 26.31, 5.98 23.62, 4.12 22.17 C2.26 20.72, 1.92 20.81, 1.26 18.05 C0.61 15.3, -1.96 8.87, 0.2 5.61 C2.36 2.36, 11.11 -0.72, 14.21 -1.48 C17.31 -2.23, 18.78 0.7, 18.78 1.06 M4.84 0.46 C6.78 -0.84, 10.61 1.89, 13.91 2.17 C17.2 2.45, 22.81 0.09, 24.61 2.14 C26.41 4.19, 24.38 11.6, 24.69 14.47 C25 17.34, 28.08 17.86, 26.48 19.38 C24.87 20.91, 17.97 22.72, 15.08 23.62 C12.19 24.53, 11.56 25.92, 9.14 24.81 C6.72 23.71, 1.76 20.01, 0.57 16.97 C-0.62 13.94, 1.27 8.83, 2.01 6.62 C2.75 4.41, 3.94 4.51, 5.02 3.72 C6.1 2.94, 7.92 2.4, 8.49 1.93" stroke="#1864ab" stroke-width="4" fill="none"></path></g><g stroke-linecap="round" transform="translate(344.5636289218603 199.55052939261986) rotate(0 13.733085697990191 13.389758555540539)"><path d="M4.01 2.81 C6.61 1.32, 13.01 1.4, 16.21 1.84 C19.42 2.28, 21.03 3.55, 23.22 5.47 C25.41 7.39, 28.75 11.16, 29.35 13.36 C29.96 15.56, 28.78 16.76, 26.85 18.67 C24.91 20.59, 21.14 23.53, 17.75 24.86 C14.35 26.19, 8.91 27.75, 6.48 26.64 C4.05 25.52, 4.48 20.61, 3.18 18.17 C1.88 15.73, -2.1 14.58, -1.33 11.98 C-0.55 9.39, 5.25 4.3, 7.81 2.59 C10.38 0.89, 13.88 2.03, 14.09 1.76 M12.99 -2.35 C15.97 -2.02, 22.95 1.86, 24.88 3.72 C26.82 5.57, 24.34 5.59, 24.58 8.78 C24.81 11.96, 27.85 20.09, 26.29 22.83 C24.74 25.58, 18.67 24.35, 15.22 25.24 C11.77 26.14, 7.87 29.16, 5.58 28.2 C3.29 27.23, 2.52 22.19, 1.5 19.44 C0.48 16.69, -0.84 14.8, -0.55 11.7 C-0.26 8.6, 0.45 2.56, 3.25 0.84 C6.05 -0.88, 14.42 1.33, 16.25 1.37 C18.07 1.4, 14.88 0.7, 14.21 1.06" stroke="#1864ab" stroke-width="4" fill="none"></path></g><g stroke-linecap="round" transform="translate(344.5636289218603 233.88324363759511) rotate(0 13.733085697990191 13.389758555540539)"><path d="M6.82 3.66 C9.42 2.38, 14.56 -0.19, 17.76 0.3 C20.96 0.8, 24.13 4.22, 26.02 6.64 C27.91 9.06, 29.69 12.27, 29.08 14.8 C28.47 17.34, 24.72 20.21, 22.37 21.85 C20.02 23.49, 17.37 23.83, 14.97 24.64 C12.56 25.46, 10.51 28.12, 7.94 26.75 C5.38 25.39, 0.51 19.68, -0.42 16.46 C-1.35 13.24, 0.44 10, 2.36 7.46 C4.28 4.91, 9.25 2.47, 11.09 1.18 C12.93 -0.12, 13.81 -0.46, 13.4 -0.31 M15.24 2.48 C18.37 2.83, 23.86 0.99, 25.42 3.21 C26.98 5.43, 24.59 12.94, 24.61 15.8 C24.62 18.66, 27.35 19.02, 25.54 20.35 C23.72 21.68, 16.64 23.15, 13.72 23.77 C10.8 24.39, 10.25 25.42, 8 24.08 C5.74 22.73, 1.09 18.81, 0.18 15.7 C-0.73 12.58, 1.54 7.49, 2.55 5.4 C3.56 3.3, 3.51 3.94, 6.24 3.13 C8.98 2.32, 16.95 1.24, 18.96 0.52 C20.97 -0.2, 18.23 -1.44, 18.31 -1.17" stroke="#1864ab" stroke-width="4" fill="none"></path></g><g stroke-linecap="round" transform="translate(414.9456931240595 77.32606668050812) rotate(0 13.733085697990191 13.389758555540539)"><path d="M16 1.83 C19.07 2.05, 20.84 3.45, 23.06 5.33 C25.28 7.22, 28.68 10.96, 29.33 13.16 C29.98 15.35, 28.86 16.56, 26.96 18.5 C25.06 20.44, 21.33 23.43, 17.95 24.8 C14.57 26.17, 9.12 27.79, 6.67 26.72 C4.23 25.64, 4.62 20.77, 3.28 18.35 C1.94 15.93, -1.45 14.46, -1.37 12.18 C-1.29 9.91, 0.61 6.43, 3.77 4.72 C6.93 3.01, 15.04 2.59, 17.6 1.92 C20.16 1.24, 19.25 0.61, 19.14 0.67 M6.63 3.57 C8.36 1.58, 7.91 -3.06, 10.69 -2.77 C13.46 -2.49, 20.97 3.16, 23.27 5.28 C25.57 7.39, 24.56 7.07, 24.48 9.9 C24.4 12.72, 23.77 19.62, 22.79 22.24 C21.81 24.87, 20.99 24.84, 18.6 25.67 C16.22 26.49, 11.57 28.41, 8.45 27.19 C5.34 25.97, 0.99 20.76, -0.06 18.35 C-1.11 15.93, 1.38 15.07, 2.17 12.7 C2.95 10.33, 4.54 5.26, 4.67 4.1 C4.79 2.94, 2.7 5.81, 2.9 5.74" stroke="#1864ab" stroke-width="4" fill="none"></path></g><g stroke-linecap="round" transform="translate(414.9456931240595 108.22550950098594) rotate(0 13.733085697990191 13.389758555540539)"><path d="M6.47 3.48 C8.74 1.58, 12.37 1.82, 15.27 2 C18.18 2.17, 22.26 3.06, 23.91 4.51 C25.57 5.96, 25.1 8.49, 25.19 10.72 C25.29 12.95, 25.39 15.09, 24.46 17.89 C23.54 20.69, 22.4 26.45, 19.67 27.53 C16.93 28.62, 10.73 25.85, 8.05 24.41 C5.37 22.96, 4.61 20.95, 3.61 18.85 C2.61 16.75, 0.78 14.98, 2.04 11.82 C3.3 8.66, 9.11 1.8, 11.17 -0.1 C13.22 -2, 14.46 0.35, 14.37 0.44 M8.41 -1.6 C10.82 -3.03, 11.57 0.65, 14.74 1.45 C17.92 2.25, 25.48 1.45, 27.44 3.18 C29.4 4.9, 26.79 8.52, 26.5 11.81 C26.21 15.1, 27.68 20.58, 25.68 22.93 C23.67 25.27, 17.63 26.02, 14.48 25.89 C11.33 25.77, 9.46 23.38, 6.78 22.17 C4.11 20.96, -0.9 21.08, -1.57 18.63 C-2.24 16.18, 1 10.74, 2.75 7.5 C4.5 4.26, 7.65 0.15, 8.94 -0.81 C10.23 -1.77, 10.63 0.94, 10.48 1.71" stroke="#1864ab" stroke-width="4" fill="none"></path></g><g stroke-linecap="round" transform="translate(415.6323474089588 139.12495232146284) rotate(0 13.733085697990191 13.389758555540539)"><path d="M14.6 1.9 C17.43 1.84, 22.71 3.91, 25.1 5.23 C27.49 6.54, 28.93 7.42, 28.95 9.77 C28.98 12.13, 27.42 16.47, 25.23 19.36 C23.04 22.26, 18.37 26.28, 15.83 27.12 C13.3 27.95, 12.7 25.41, 10.03 24.4 C7.36 23.39, 1.68 23.07, -0.19 21.05 C-2.05 19.02, -2.18 15.06, -1.17 12.25 C-0.15 9.44, 2.97 6.32, 5.91 4.18 C8.84 2.04, 14.16 -0.26, 16.45 -0.61 C18.74 -0.95, 19.82 1.89, 19.64 2.14 M1.25 1.16 C2.93 -0.55, 10.51 2.31, 13.45 2.37 C16.38 2.43, 17.11 -0.14, 18.87 1.52 C20.63 3.17, 22.81 9.42, 24.01 12.31 C25.22 15.19, 26.98 16.43, 26.09 18.82 C25.21 21.21, 21.69 25.72, 18.7 26.64 C15.71 27.56, 10.52 25.05, 8.15 24.35 C5.78 23.65, 5.85 24.33, 4.5 22.44 C3.15 20.56, 0.44 15.75, 0.03 13.03 C-0.38 10.32, 1.29 7.75, 2.04 6.16 C2.79 4.57, 3.78 3.83, 4.51 3.47" stroke="#1864ab" stroke-width="4" fill="none"></path></g><g stroke-linecap="round" transform="translate(415.6323474089588 173.457666566439) rotate(0 13.733085697990191 13.389758555540539)"><path d="M26.27 6.93 C28.14 9.18, 29.77 12.65, 29.08 15.18 C28.39 17.72, 24.54 20.55, 22.12 22.14 C19.7 23.73, 17 23.97, 14.58 24.71 C12.16 25.45, 10.13 28, 7.6 26.56 C5.08 25.13, 0.3 19.35, -0.55 16.1 C-1.4 12.86, 0.91 9.43, 2.49 7.1 C4.08 4.77, 6.38 3.38, 8.94 2.12 C11.49 0.86, 14.99 -1.7, 17.81 -0.46 C20.63 0.78, 24.2 7.3, 25.85 9.58 C27.5 11.85, 27.89 13.39, 27.7 13.18 M19.23 3.63 C21.91 5.15, 28.47 5.52, 29.44 7.66 C30.41 9.81, 26.4 13.51, 25.07 16.5 C23.75 19.49, 24.09 24.15, 21.49 25.62 C18.9 27.1, 12.52 26.5, 9.5 25.34 C6.47 24.17, 5.23 20.55, 3.33 18.62 C1.44 16.69, -2.28 16.26, -1.88 13.75 C-1.48 11.24, 3.12 6.18, 5.74 3.57 C8.35 0.95, 10.73 -1.86, 13.82 -1.95 C16.9 -2.04, 23 1.96, 24.23 3.01 C25.46 4.06, 21.84 3.72, 21.18 4.34" stroke="#1864ab" stroke-width="4" fill="none"></path></g><g stroke-linecap="round" transform="translate(416.3190016938586 205.73041795671543) rotate(0 13.733085697990191 13.389758555540539)"><path d="M26.58 6.8 C28.67 8.2, 29.49 9.53, 29.05 11.91 C28.6 14.28, 26.45 18.44, 23.89 21.05 C21.34 23.67, 16.33 27.18, 13.7 27.57 C11.06 27.97, 10.55 24.83, 8.09 23.41 C5.64 21.99, 0.41 21.27, -1.02 19.08 C-2.45 16.88, -1.97 12.89, -0.5 10.22 C0.96 7.54, 5.02 4.86, 7.76 3.04 C10.5 1.21, 12.73 -3.18, 15.94 -0.72 C19.14 1.73, 26.84 13.48, 26.97 17.76 C27.11 22.04, 17.22 24.89, 16.72 24.94 M15.85 2.37 C18.65 2.75, 19.28 0.98, 20.71 3.02 C22.14 5.06, 23.73 11.64, 24.43 14.61 C25.13 17.58, 26.23 18.71, 24.89 20.85 C23.56 22.99, 19.62 27, 16.45 27.45 C13.28 27.9, 8.09 24.72, 5.89 23.55 C3.7 22.38, 4.21 22.56, 3.3 20.42 C2.39 18.28, 0.35 13.35, 0.44 10.73 C0.54 8.1, 1.41 6.54, 3.88 4.65 C6.34 2.76, 13.15 0.27, 15.22 -0.61 C17.3 -1.48, 15.89 -0.79, 16.32 -0.59" stroke="#1864ab" stroke-width="4" fill="none"></path></g><g stroke-linecap="round" transform="translate(416.3190016938586 236.62986077719324) rotate(0 13.733085697990191 13.389758555540539)"><path d="M16.23 1.62 C18.39 1.29, 19.58 2.29, 21.22 3.69 C22.85 5.09, 25.24 6.88, 26.05 10.01 C26.86 13.15, 27.71 20.07, 26.08 22.49 C24.45 24.92, 18.99 24.29, 16.28 24.56 C13.57 24.84, 11.97 24.93, 9.81 24.13 C7.65 23.33, 4.63 22.19, 3.31 19.76 C1.99 17.32, 1.67 12.37, 1.88 9.53 C2.09 6.68, 0.27 2.75, 4.57 2.68 C8.88 2.61, 25.27 5.65, 27.72 9.1 C30.17 12.56, 19.36 23.06, 19.26 23.38 M5.13 2.54 C7 -0.38, 6.94 -2.46, 9.83 -2.65 C12.71 -2.85, 19.71 -0.27, 22.44 1.4 C25.17 3.07, 25.28 5.05, 26.2 7.37 C27.12 9.7, 29.14 12.11, 27.97 15.33 C26.8 18.54, 21.61 24.78, 19.17 26.66 C16.73 28.55, 15.8 27.68, 13.34 26.65 C10.88 25.62, 6.28 22.55, 4.42 20.5 C2.57 18.44, 2.62 16.62, 2.24 14.32 C1.86 12.02, 2.17 7.68, 2.15 6.7 C2.13 5.72, 1.97 8.52, 2.12 8.43" stroke="#1864ab" stroke-width="4" fill="none"></path></g><g stroke-linecap="round" transform="translate(417.0056559787579 267.52930359767106) rotate(0 13.733085697990191 13.389758555540539)"><path d="M26.43 3.52 C27.88 5.13, 28.21 9.65, 27.42 12.99 C26.63 16.34, 23.47 21.54, 21.71 23.61 C19.95 25.67, 19.74 24.98, 16.85 25.4 C13.96 25.81, 7.35 27.16, 4.38 26.08 C1.41 25.01, -0.53 21.74, -0.99 18.97 C-1.45 16.19, 0.28 12.54, 1.62 9.44 C2.95 6.33, 4.43 1.74, 7.01 0.33 C9.6 -1.08, 13.98 -1.35, 17.13 0.97 C20.28 3.29, 25.32 10.28, 25.92 14.25 C26.51 18.23, 20.66 25.02, 20.7 24.82 M0.03 4.45 C0.92 2.18, 4.35 3.28, 7.66 2.75 C10.96 2.22, 16.89 0.16, 19.86 1.25 C22.84 2.34, 24.69 6.93, 25.52 9.28 C26.34 11.62, 25.2 12.53, 24.82 15.32 C24.44 18.1, 25.35 23.95, 23.22 25.97 C21.09 28, 15.63 27.67, 12.05 27.47 C8.46 27.26, 3.68 27.09, 1.73 24.75 C-0.23 22.41, -0.08 16.83, 0.33 13.44 C0.74 10.05, 3.24 5.89, 4.19 4.43 C5.13 2.97, 6.01 4.13, 5.98 4.68" stroke="#1864ab" stroke-width="4" fill="none"></path></g><g stroke-linecap="round" transform="translate(417.0056559787579 301.8620178426454) rotate(0 13.733085697990191 13.389758555540539)"><path d="M23.26 6.1 C24.43 7.71, 25.91 10, 26.03 13.13 C26.16 16.26, 26.16 22.88, 24.01 24.87 C21.86 26.86, 15.95 25.47, 13.13 25.09 C10.3 24.7, 8.87 23.93, 7.05 22.55 C5.24 21.18, 2.91 19.48, 2.24 16.82 C1.56 14.16, 2.14 9.22, 2.99 6.6 C3.85 3.99, 4.8 2.38, 7.35 1.13 C9.91 -0.11, 15.3 -3.5, 18.33 -0.85 C21.36 1.8, 25.66 12.51, 25.53 17.06 C25.41 21.61, 17.96 26.58, 17.58 26.45 M17.03 -2.34 C19.76 -1.23, 26.07 3.37, 27.76 6.15 C29.44 8.94, 27.74 11.83, 27.13 14.35 C26.52 16.86, 26.56 18.85, 24.09 21.26 C21.61 23.66, 15.19 28.32, 12.29 28.77 C9.38 29.22, 8.54 26.37, 6.68 23.95 C4.81 21.53, 1.58 17.01, 1.1 14.26 C0.62 11.51, 2.68 9.43, 3.81 7.46 C4.94 5.48, 5.68 3.06, 7.88 2.42 C10.08 1.78, 15.49 3.87, 17.02 3.64 C18.54 3.41, 16.68 1.66, 17.02 1.02" stroke="#1864ab" stroke-width="4" fill="none"></path></g><g stroke-linecap="round" transform="translate(502.15078730629625 168.30775942969285) rotate(0 13.733085697990191 13.389758555540539)"><path d="M23.66 2.82 C25.13 5.16, 25.07 10.59, 25.54 13.45 C26.01 16.32, 28.18 17.59, 26.47 20.02 C24.77 22.44, 18.69 26.78, 15.3 27.99 C11.91 29.2, 8.4 28.57, 6.12 27.28 C3.83 25.99, 2.62 23.36, 1.58 20.25 C0.54 17.14, -0.91 11.5, -0.14 8.6 C0.63 5.69, 3.87 4.37, 6.2 2.81 C8.52 1.26, 10.94 -4.01, 13.81 -0.76 C16.69 2.5, 24.31 18.27, 23.43 22.33 C22.56 26.39, 8.82 23.84, 8.59 23.61 M20.35 6.22 C22.91 8.12, 26.66 9.22, 27.3 11.86 C27.95 14.51, 26.2 20, 24.22 22.07 C22.23 24.14, 17.75 23.49, 15.39 24.3 C13.03 25.12, 12.42 27.67, 10.08 26.95 C7.73 26.23, 3.27 22.42, 1.33 19.97 C-0.6 17.53, -2.32 15.32, -1.54 12.3 C-0.75 9.27, 3.08 4.05, 6.04 1.85 C8.99 -0.34, 12.82 -1.06, 16.2 -0.87 C19.58 -0.68, 25.16 1.92, 26.33 2.99 C27.51 4.07, 24.28 4.95, 23.26 5.59" stroke="#1864ab" stroke-width="4" fill="none"></path></g><g stroke-linecap="round" transform="translate(502.837441591196 200.58051081996837) rotate(0 13.733085697990191 13.389758555540539)"><path d="M22.2 2.11 C24.77 4.21, 28.11 11.13, 28.34 14.02 C28.57 16.92, 25.2 17.69, 23.6 19.49 C22 21.3, 21.08 23.77, 18.76 24.83 C16.44 25.9, 12.38 27, 9.7 25.9 C7.03 24.8, 4.43 20.91, 2.73 18.24 C1.02 15.57, -1.16 12.77, -0.52 9.88 C0.11 6.99, 4.07 2.81, 6.53 0.91 C8.99 -0.98, 10.78 -4.67, 14.22 -1.51 C17.65 1.65, 27.94 15.56, 27.13 19.88 C26.32 24.21, 9.68 24.3, 9.37 24.43 M5.3 5.06 C7 3.16, 7.99 0.37, 10.65 -0.56 C13.32 -1.48, 18.98 -2.31, 21.29 -0.49 C23.59 1.33, 23.33 7.36, 24.48 10.36 C25.62 13.36, 28.6 15.42, 28.16 17.49 C27.71 19.56, 24.16 21.19, 21.82 22.77 C19.47 24.35, 17.22 26.79, 14.06 26.96 C10.91 27.13, 5.38 25.47, 2.88 23.79 C0.39 22.11, -0.77 19.96, -0.9 16.88 C-1.03 13.79, 1.14 7.56, 2.08 5.28 C3.01 3.01, 4.04 3.45, 4.7 3.2" stroke="#1864ab" stroke-width="4" fill="none"></path></g><g stroke-linecap="round"><g transform="translate(370.48482817681656 141.35657874738718) rotate(0 21.443418348887235 -24.894923200193716)"><path d="M2.22 -2.8 C8.91 -11.78, 36.56 -44.03, 42.9 -51.64 M-0.01 1.85 C6.05 -7.02, 33.04 -39.83, 40.65 -49.03" stroke="#1864ab" stroke-width="4" fill="none"></path></g></g><mask></mask><g stroke-linecap="round"><g transform="translate(368.76819246456785 146.50648588413333) rotate(0 23.540254136046997 -12.925781847807684)"><path d="M-2.8 -0.02 C4.24 -4.69, 36.08 -22.37, 44.49 -25.83 M0.88 -2.49 C8.61 -7.13, 42.27 -19.89, 49.88 -23.65" stroke="#1864ab" stroke-width="4" fill="none"></path></g></g><mask></mask><g stroke-linecap="round"><g transform="translate(369.6265103206922 154.231346589253) rotate(0 22.58821545074011 0.5676587102361736)"><path d="M-0.02 -1.86 C6.89 -1.04, 35.57 1.99, 43.69 2.14 M-3.47 3.3 C4.07 3.53, 40.04 -1.81, 48.65 -2.17" stroke="#1864ab" stroke-width="4" fill="none"></path></g></g><mask></mask><g stroke-linecap="round"><g transform="translate(367.05155675231913 157.66461801374953) rotate(0 23.74396966862423 11.43264178213758)"><path d="M-1.86 -2.66 C6.83 1.6, 41.33 21.61, 49.35 25.53 M2.32 2.07 C11.01 5.58, 39.52 18.36, 47.81 21.79" stroke="#1864ab" stroke-width="4" fill="none"></path></g></g><mask></mask><g stroke-linecap="round"><g transform="translate(368.76819246456785 160.23957158212306) rotate(0 23.878250695941233 24.18884747001266)"><path d="M-2.66 1.28 C5.75 9.3, 42.35 38.06, 50.42 46.23 M1.09 -0.49 C9.34 8.01, 41.09 41.12, 49.45 48.87" stroke="#1864ab" stroke-width="4" fill="none"></path></g></g><mask></mask><g stroke-linecap="round"><g transform="translate(365.33492104006996 163.6728430066205) rotate(0 26.80370620001372 39.63845391752875)"><path d="M1.28 2.35 C9.87 15.42, 40.92 63.49, 49.66 75.76 M-1.46 1.16 C8.19 14.74, 45.97 65.32, 55.07 78.12" stroke="#1864ab" stroke-width="4" fill="none"></path></g></g><mask></mask><g stroke-linecap="round"><g transform="translate(364.47660318394605 161.95620729437178) rotate(0 28.091068021477668 55.55966133720813)"><path d="M2.35 -1.83 C11.27 16.78, 42.75 93.75, 50.87 112.95 M0.18 3.34 C10.2 21.08, 46.57 91.5, 56 109.15" stroke="#1864ab" stroke-width="4" fill="none"></path></g></g><mask></mask><g stroke-linecap="round"><g transform="translate(366.19323889619477 160.23957158212306) rotate(0 25.94769530091685 70.6691873653649)"><path d="M-1.83 -2.35 C6.91 20.8, 44.4 116.83, 53.73 141.21 M2.37 2.55 C10.82 27.21, 44.14 119.55, 52.7 143.68" stroke="#1864ab" stroke-width="4" fill="none"></path></g></g><mask></mask><g stroke-linecap="round"><g transform="translate(365.33492104006996 171.39770371174018) rotate(0 25.27719385463365 -38.40466184432398)"><path d="M-2.35 2.23 C5.21 -10.04, 38.87 -62.42, 47.65 -75.46 M1.58 0.97 C9.79 -11.85, 45.01 -65.47, 52.9 -79.04" stroke="#1864ab" stroke-width="4" fill="none"></path></g></g><mask></mask><g stroke-linecap="round"><g transform="translate(368.76819246456785 173.1143394239889) rotate(0 25.35281427170071 -24.63230197074745)"><path d="M2.23 -2.13 C10.99 -9.65, 42.72 -39.65, 50.71 -47.47 M0 2.89 C8.79 -5.32, 41.66 -43.93, 49.91 -52.15" stroke="#1864ab" stroke-width="4" fill="none"></path></g></g><mask></mask><g stroke-linecap="round"><g transform="translate(373.918099601314 179.98088227298376) rotate(0 19.834870514424665 -13.736088917992674)"><path d="M-2.13 2.64 C5.23 -2.1, 34.74 -20.84, 41.8 -26.24 M1.91 1.61 C9.16 -4.11, 33.89 -25.28, 39.89 -30.12" stroke="#1864ab" stroke-width="4" fill="none"></path></g></g><mask></mask><g stroke-linecap="round"><g transform="translate(373.918099601314 181.69751798523248) rotate(0 22.81807774052868 1.1475333342764316)"><path d="M2.64 0.6 C9.77 1.08, 38.53 0.54, 45 0.74 M0.63 -1.54 C7.38 -0.48, 37.52 2.75, 43.9 3.84" stroke="#1864ab" stroke-width="4" fill="none"></path></g></g><mask></mask><g stroke-linecap="round"><g transform="translate(369.6265103206922 185.98910726585473) rotate(0 20.56794618883714 14.38756256191482)"><path d="M0.6 2.09 C8.23 5.84, 36.3 20.95, 43.66 25.17 M-2.52 0.75 C4.84 6.06, 33.3 24.43, 40.89 28.02" stroke="#1864ab" stroke-width="4" fill="none"></path></g></g><mask></mask><g stroke-linecap="round"><g transform="translate(368.76819246456785 185.1307894097299) rotate(0 26.01475878122187 28.660253108392226)"><path d="M2.09 -0.98 C9.42 8.52, 38.83 48.2, 46.63 57.61 M-0.22 -3.98 C7.8 5.96, 44.3 51.05, 52.25 61.3" stroke="#1864ab" stroke-width="4" fill="none"></path></g></g><mask></mask><g stroke-linecap="round"><g transform="translate(367.05155675231913 188.56406083422735) rotate(0 24.025268319987617 42.168668061992776)"><path d="M-0.98 -1.43 C7.09 12.51, 41.05 71.57, 49.03 85.77 M3.69 3.96 C11.34 16.83, 38.69 67.48, 46.85 81.2" stroke="#1864ab" stroke-width="4" fill="none"></path></g></g><mask></mask><g stroke-linecap="round"><g transform="translate(365.33492104006996 194.5722858270983) rotate(0 25.43146986756733 55.32688280210141)"><path d="M-1.43 0.1 C6.93 18.67, 43.67 92.07, 52.3 110.43 M2.98 -2.31 C10.86 16.65, 43.01 93.89, 50.49 112.96" stroke="#1864ab" stroke-width="4" fill="none"></path></g></g><mask></mask><g stroke-linecap="round"><g transform="translate(369.6265103206922 210.88032509346158) rotate(0 22.32155050294091 -58.12327778027975)"><path d="M0.1 0.8 C7.37 -18.47, 35.56 -97.9, 42.62 -117.05 M-3.28 -1.24 C4.95 -20, 39.37 -94.49, 47.93 -114.05" stroke="#1864ab" stroke-width="4" fill="none"></path></g></g><mask></mask><g stroke-linecap="round"><g transform="translate(372.2014638890653 215.17191437408383) rotate(0 19.765651459553283 -45.060066775417454)"><path d="M0.8 -2.01 C8 -17.56, 34.42 -78.4, 41.74 -93.19 M-2.21 3.06 C4.63 -12.21, 31.18 -75.66, 38.87 -90.75" stroke="#1864ab" stroke-width="4" fill="none"></path></g></g><mask></mask><g stroke-linecap="round"><g transform="translate(375.6347353135627 214.313596517959) rotate(0 20.23574224233198 -30.448227106506238)"><path d="M-2.01 -1.17 C4.18 -10.59, 30.32 -45.88, 37.28 -55.7 M2.09 -4.28 C9.14 -14.56, 36.49 -50.71, 42.49 -59.72" stroke="#1864ab" stroke-width="4" fill="none"></path></g></g><mask></mask><g stroke-linecap="round"><g transform="translate(371.3431460329409 216.03023223020773) rotate(0 20.918872377427533 -16.088790463673377)"><path d="M-1.17 -2.2 C5.86 -7.69, 36.38 -29.02, 43.01 -34.95 M3.39 2.77 C10.14 -2.03, 34.98 -24.71, 41.76 -31.19" stroke="#1864ab" stroke-width="4" fill="none"></path></g></g><mask></mask><g stroke-linecap="round"><g transform="translate(373.918099601314 220.32182151082998) rotate(0 19.18940890539352 -2.0983384989326623)"><path d="M-2.2 1.81 C4.9 1, 33.92 -5.28, 40.58 -6.01 M1.8 0.33 C8.73 -0.12, 31.58 -2.45, 38.48 -3.78" stroke="#1864ab" stroke-width="4" fill="none"></path></g></g><mask></mask><g stroke-linecap="round"><g transform="translate(371.3431460329409 212.5969608057103) rotate(0 21.918608015743757 13.787882437257394)"><path d="M1.81 0.24 C8.59 5.18, 32.63 22.12, 39.48 27.45 M-0.65 -2.1 C7.07 3.29, 37.45 24.68, 44.49 29.67" stroke="#1864ab" stroke-width="4" fill="none"></path></g></g><mask></mask><g stroke-linecap="round"><g transform="translate(371.3431460329409 216.88855008633254) rotate(0 21.981807232066785 27.900899899403157)"><path d="M0.24 -2.57 C7.62 6.85, 34.28 48.79, 42.04 58.38 M-3.07 2.2 C5.33 10.58, 38.83 44.76, 47.04 53.84" stroke="#1864ab" stroke-width="4" fill="none"></path></g></g><mask></mask><g stroke-linecap="round"><g transform="translate(370.48482817681656 220.32182151082998) rotate(0 21.03435705040806 43.991108849410466)"><path d="M-2.57 -2.59 C4.56 12.46, 37.34 75.55, 44.64 90.57 M1.22 2.17 C7.9 16.45, 35.3 72.06, 42.88 86.74" stroke="#1864ab" stroke-width="4" fill="none"></path></g></g><mask></mask><g stroke-linecap="round"><g transform="translate(367.90987460844303 240.06313220169068) rotate(0 22.104003518238414 -73.79524635986854)"><path d="M-2.59 0.87 C5.17 -23.45, 39.07 -123.53, 46.8 -148.46 M1.2 -1.13 C8.76 -24.96, 39.01 -121.88, 45.74 -146.21" stroke="#1864ab" stroke-width="4" fill="none"></path></g></g><mask></mask><g stroke-linecap="round"><g transform="translate(365.33492104006996 236.62986077719324) rotate(0 25.07668427284443 -52.977099931447356)"><path d="M0.87 2.17 C9.17 -15.42, 39.55 -90.25, 47.24 -108.12 M-2.1 0.88 C7.27 -16.07, 43.19 -86.57, 52.26 -104.94" stroke="#1864ab" stroke-width="4" fill="none"></path></g></g><mask></mask><g stroke-linecap="round"><g transform="translate(365.33492104006996 234.0549072088197) rotate(0 24.85411028668227 -41.0388226310547)"><path d="M2.17 -2.55 C10.9 -16.74, 41.36 -71.14, 49.81 -84.32 M-0.1 2.24 C8.42 -11.8, 38.39 -68.73, 47.12 -82.2" stroke="#1864ab" stroke-width="4" fill="none"></path></g></g><mask></mask><g stroke-linecap="round"><g transform="translate(367.05155675231913 238.34649648944105) rotate(0 23.38582158385384 -25.22313270474706)"><path d="M-2.55 -0.83 C4.71 -8.83, 36.15 -37.92, 44.43 -45.82 M1.27 -3.75 C9.26 -12.7, 41.98 -42.7, 49.32 -49.61" stroke="#1864ab" stroke-width="4" fill="none"></path></g></g><mask></mask><g stroke-linecap="round"><g transform="translate(370.48482817681656 237.48817863331806) rotate(0 22.16402176746078 -10.263560333929945)"><path d="M-0.83 -2.78 C6.33 -6.09, 37.9 -19.02, 45.16 -22.41 M3.91 1.88 C10.71 -0.73, 37.99 -15.11, 44.14 -18.83" stroke="#1864ab" stroke-width="4" fill="none"></path></g></g><mask></mask><g stroke-linecap="round"><g transform="translate(373.918099601314 242.6380857700642) rotate(0 18.734382219201734 3.046683450224009)"><path d="M-2.78 2.24 C4.35 2.64, 33.2 1.44, 40.25 1.52 M0.9 0.99 C7.88 1.93, 31.9 5.58, 37.96 5.05" stroke="#1864ab" stroke-width="4" fill="none"></path></g></g><mask></mask><g stroke-linecap="round"><g transform="translate(372.2014638890653 244.35472148231202) rotate(0 20.5115205328932 17.062783518112155)"><path d="M2.24 -0.09 C9.22 5.96, 34.34 28.12, 41.01 33.54 M0.02 -2.61 C6.67 4.11, 31.83 30.55, 38.66 36.73" stroke="#1864ab" stroke-width="4" fill="none"></path></g></g><mask></mask><g stroke-linecap="round"><g transform="translate(370.48482817681656 251.22126433130688) rotate(0 21.413686185466076 26.608123079963207)"><path d="M-0.09 -0.19 C8.11 8.76, 38.85 47.1, 46.41 55.98 M-3.58 -2.77 C4.42 5.12, 34.63 41.88, 43.74 51.54" stroke="#1864ab" stroke-width="4" fill="none"></path></g></g><mask></mask><g stroke-linecap="round"><g transform="translate(499.2325065954735 173.1143394239889) rotate(0 -28.729643062113837 -44.700018452239874)"><path d="M-0.19 -0.8 C-9.83 -15.55, -45.88 -74.6, -55.6 -88.6 M-3.74 -3.7 C-13.86 -18.13, -49.11 -71.74, -57.27 -86.01" stroke="#1864ab" stroke-width="4" fill="none"></path></g></g><mask></mask><g stroke-linecap="round"><g transform="translate(499.2325065954735 175.68929299236152) rotate(0 -28.156327179958907 -29.15209075252187)"><path d="M-0.8 1.05 C-10.83 -8.81, -51 -49.81, -60.28 -59.35 M3.97 -0.85 C-5.16 -10.37, -44.71 -46.69, -54.92 -56.73" stroke="#1864ab" stroke-width="4" fill="none"></path></g></g><mask></mask><g stroke-linecap="round"><g transform="translate(499.2325065954735 181.69751798523248) rotate(0 -27.435455040273155 -14.473084908573128)"><path d="M1.05 -1.91 C-8.24 -6.48, -46.95 -23.48, -55.92 -28.17 M-1.82 3.22 C-10.19 -2.06, -41.84 -27.14, -50.52 -32.17" stroke="#1864ab" stroke-width="4" fill="none"></path></g></g><mask></mask><g stroke-linecap="round"><g transform="translate(499.2325065954735 185.1307894097299) rotate(0 -25.591311876562486 0.55611458172325)"><path d="M-1.91 -1.85 C-10.48 -1.67, -43.51 1.55, -52.2 2.13 M2.24 3.32 C-6.46 2.56, -43.73 -2.49, -53.43 -2.2" stroke="#1864ab" stroke-width="4" fill="none"></path></g></g><mask></mask><g stroke-linecap="round"><g transform="translate(503.5240958760953 187.70574297810253) rotate(0 -28.5804976941954 14.45395021116201)"><path d="M-1.85 1.87 C-11.68 6.33, -48.52 21.34, -57.96 24.87 M2.34 0.42 C-7.84 5.54, -49.13 24.37, -59.51 28.49" stroke="#1864ab" stroke-width="4" fill="none"></path></g></g><mask></mask><g stroke-linecap="round"><g transform="translate(503.5240958760953 188.56406083422735) rotate(0 -31.527414781867492 27.577899519630137)"><path d="M1.87 1.27 C-8.26 10.85, -51.62 46.38, -62.68 55.67 M-0.56 -0.51 C-10.89 8.35, -55.24 42.2, -64.93 51.06" stroke="#1864ab" stroke-width="4" fill="none"></path></g></g><mask></mask><g stroke-linecap="round"><g transform="translate(502.66577801997096 187.70574297810253) rotate(0 -29.529568138079185 42.494586345238076)"><path d="M1.27 -0.02 C-8.17 13.81, -48.75 70.36, -58.49 84.85 M-1.49 -2.5 C-11.07 11.48, -50.94 72.03, -60.33 87.49" stroke="#1864ab" stroke-width="4" fill="none"></path></g></g><mask></mask><g stroke-linecap="round"><g transform="translate(503.5240958760953 189.42237869035216) rotate(0 -31.39776819612848 59.16545384766823)"><path d="M-0.02 0.74 C-10.79 20.47, -52.67 100.29, -62.78 119.66 M-3.47 -1.33 C-13.52 17.51, -47.57 95.6, -57.37 115.78" stroke="#1864ab" stroke-width="4" fill="none"></path></g></g><mask></mask><g stroke-linecap="round"><g transform="translate(500.94914230772224 208.30537152508805) rotate(0 -29.19180512629123 -56.552543542291914)"><path d="M0.74 -1.84 C-9.14 -21.24, -47.77 -97.52, -58.01 -116.44 M-2.31 3.34 C-12.49 -15.55, -49.03 -92.07, -59.12 -112.66" stroke="#1864ab" stroke-width="4" fill="none"></path></g></g><mask></mask><g stroke-linecap="round"><g transform="translate(501.8074601638466 206.58873581283933) rotate(0 -31.044868091388253 -42.61468342406806)"><path d="M-1.84 2.07 C-12.23 -12.6, -52.46 -72.37, -62.37 -87.3 M2.36 0.73 C-8.37 -13.58, -53.66 -69.74, -64.45 -84.01" stroke="#1864ab" stroke-width="4" fill="none"></path></g></g><mask></mask><g stroke-linecap="round"><g transform="translate(499.2325065954735 206.58873581283933) rotate(0 -27.16315289963927 -27.51409072258184)"><path d="M2.07 0.29 C-7.02 -7.91, -44.47 -42.72, -53.83 -51.03 M-0.24 -2.03 C-9.83 -10.9, -47.05 -46.72, -56.4 -55.31" stroke="#1864ab" stroke-width="4" fill="none"></path></g></g><mask></mask><g stroke-linecap="round"><g transform="translate(501.8074601638466 209.16368938121286) rotate(0 -29.13187357096922 -13.177077799940434)"><path d="M0.29 -0.61 C-8.91 -5.25, -47.73 -21.57, -57.03 -25.74 M-3 -3.42 C-12.29 -7.83, -49.74 -19.31, -58.55 -22.57" stroke="#1864ab" stroke-width="4" fill="none"></path></g></g><mask></mask><g stroke-linecap="round"><g transform="translate(500.94914230772224 210.88032509346158) rotate(0 -26.686831052091748 5.913225735572269)"><path d="M-0.61 1.33 C-10.11 3.32, -45.89 10.87, -54.92 12.24 M4.25 -0.41 C-5.89 0.85, -47.4 6.56, -57.62 8.75" stroke="#1864ab" stroke-width="4" fill="none"></path></g></g><mask></mask><g stroke-linecap="round"><g transform="translate(499.2325065954735 210.88032509346158) rotate(0 -25.759798653550888 16.500431533134815)"><path d="M1.33 -0.85 C-7.41 4.85, -42.77 27.46, -52.13 33.57 M-1.39 -3.78 C-10.27 2.39, -43.66 30.97, -52.85 36.78" stroke="#1864ab" stroke-width="4" fill="none"></path></g></g><mask></mask><g stroke-linecap="round"><g transform="translate(500.94914230772224 214.313596517959) rotate(0 -28.521350751767386 32.01197337201802)"><path d="M-0.85 2.8 C-10.46 12.32, -49.08 49.55, -58.27 58.48 M3.89 1.85 C-6.11 11.75, -50.77 52.75, -60.93 62.17" stroke="#1864ab" stroke-width="4" fill="none"></path></g></g><mask></mask><g stroke-linecap="round"><g transform="translate(504.3824137322197 223.7550929353274) rotate(0 -30.529771375808423 40.111821113158385)"><path d="M2.8 -0.77 C-7.7 13.35, -50.59 69.7, -61.68 83.88 M0.88 -3.65 C-10.11 9.72, -54.04 65.76, -63.86 79.67" stroke="#1864ab" stroke-width="4" fill="none"></path></g></g><mask></mask><g stroke-linecap="round" transform="translate(709.0436507936508 158.15343971563289) rotate(0 81.25 33.75)"><path d="M119.2 3.55 C130.17 5.41, 140.79 10.06, 147.83 14.28 C154.87 18.5, 159.85 23.56, 161.43 28.87 C163.02 34.18, 161.75 41.26, 157.33 46.14 C152.91 51.02, 144.32 54.59, 134.91 58.14 C125.51 61.7, 113.11 66.09, 100.89 67.48 C88.68 68.88, 73.97 68.05, 61.62 66.51 C49.27 64.96, 36.24 61.84, 26.78 58.22 C17.33 54.59, 9.2 49.53, 4.89 44.74 C0.58 39.94, -0.71 34.44, 0.92 29.45 C2.56 24.46, 7.51 19.05, 14.72 14.78 C21.93 10.52, 33.05 6.29, 44.2 3.87 C55.34 1.45, 67.88 -0.07, 81.61 0.26 C95.33 0.58, 118.01 4.33, 126.52 5.83 C135.04 7.34, 133.49 8.76, 132.69 9.3 M98.77 0.42 C110.78 0.84, 122.23 3.22, 131.75 6.32 C141.27 9.43, 150.6 13.94, 155.89 19.04 C161.19 24.14, 164.38 31.29, 163.53 36.94 C162.68 42.58, 157.76 48.49, 150.8 52.92 C143.83 57.36, 132.64 61.36, 121.74 63.54 C110.83 65.72, 97.99 65.92, 85.35 66.02 C72.72 66.11, 57.36 65.85, 45.94 64.11 C34.52 62.37, 24.3 59.55, 16.85 55.58 C9.4 51.61, 3.51 45.9, 1.25 40.28 C-1.01 34.67, -0.67 27.04, 3.29 21.89 C7.25 16.73, 15.85 12.94, 25.04 9.34 C34.22 5.74, 46.58 1.74, 58.4 0.28 C70.22 -1.19, 89.35 0.29, 95.95 0.54 C102.55 0.8, 98.22 1.15, 97.97 1.8" stroke="#c92a2a" stroke-width="4" fill="none"></path></g></svg>